%FSTAX23Y23*%
%MOIN*%
%SFA1B1*%

%IPPOS*%
%ADD12C,0.007874*%
%ADD45C,0.003937*%
%ADD46C,0.001969*%
%LNpcb1-1*%
%LPD*%
G54D12*
X01677Y04937D02*
D01*
X01668Y04937*
X0166Y04936*
X01652Y04935*
X01644Y04933*
X01636Y0493*
X01628Y04927*
X0162Y04923*
X01613Y04919*
X01606Y04914*
X01599Y04909*
X01593Y04904*
X01587Y04898*
X01582Y04891*
X01577Y04884*
X01573Y04877*
X01569Y0487*
X01565Y04862*
X01562Y04854*
X0156Y04846*
X01558Y04838*
X01557Y0483*
X01557Y04821*
Y04813*
X01557Y04805*
X01558Y04796*
X0156Y04788*
X01562Y0478*
X01565Y04772*
X01569Y04765*
X01573Y04757*
X01577Y0475*
X01582Y04743*
X01587Y04737*
X01593Y04731*
X01599Y04725*
X01606Y0472*
X01613Y04715*
X0162Y04711*
X01628Y04708*
X01636Y04704*
X01644Y04702*
X01652Y047*
X0166Y04698*
X01668Y04697*
X01677Y04697*
D01*
X01685Y04697*
X01693Y04698*
X01702Y047*
X0171Y04702*
X01718Y04704*
X01726Y04708*
X01733Y04711*
X0174Y04715*
X01747Y0472*
X01754Y04725*
X0176Y04731*
X01766Y04737*
X01771Y04743*
X01776Y0475*
X01781Y04757*
X01785Y04765*
X01788Y04772*
X01791Y0478*
X01793Y04788*
X01795Y04796*
X01796Y04805*
X01797Y04813*
Y04821*
X01796Y0483*
X01795Y04838*
X01793Y04846*
X01791Y04854*
X01788Y04862*
X01785Y0487*
X01781Y04877*
X01776Y04884*
X01771Y04891*
X01766Y04898*
X0176Y04904*
X01754Y04909*
X01747Y04914*
X0174Y04919*
X01733Y04923*
X01726Y04927*
X01718Y0493*
X0171Y04933*
X01702Y04935*
X01693Y04936*
X01685Y04937*
X01677Y04937*
X04066Y04555D02*
D01*
X04066Y04546*
X04067Y04537*
X04068Y04529*
X0407Y0452*
X04073Y04512*
X04076Y04504*
X0408Y04496*
X04084Y04489*
X04089Y04482*
X04095Y04475*
X041Y04468*
X04107Y04462*
X04113Y04457*
X0412Y04452*
X04128Y04447*
X04135Y04443*
X04143Y0444*
X04151Y04437*
X0416Y04434*
X04168Y04432*
X04177Y04431*
X04185Y04431*
X04194*
X04203Y04431*
X04211Y04432*
X0422Y04434*
X04228Y04437*
X04236Y0444*
X04244Y04443*
X04252Y04447*
X04259Y04452*
X04266Y04457*
X04273Y04462*
X04279Y04468*
X04285Y04475*
X0429Y04482*
X04295Y04489*
X04299Y04496*
X04303Y04504*
X04306Y04512*
X04309Y0452*
X04311Y04529*
X04312Y04537*
X04313Y04546*
X04314Y04555*
D01*
X04313Y04563*
X04312Y04572*
X04311Y0458*
X04309Y04589*
X04306Y04597*
X04303Y04605*
X04299Y04613*
X04295Y0462*
X0429Y04628*
X04285Y04634*
X04279Y04641*
X04273Y04647*
X04266Y04652*
X04259Y04657*
X04252Y04662*
X04244Y04666*
X04236Y0467*
X04228Y04673*
X0422Y04675*
X04211Y04677*
X04203Y04678*
X04194Y04679*
X04185*
X04177Y04678*
X04168Y04677*
X0416Y04675*
X04151Y04673*
X04143Y0467*
X04135Y04666*
X04128Y04662*
X0412Y04657*
X04113Y04652*
X04107Y04647*
X041Y04641*
X04095Y04634*
X04089Y04628*
X04084Y0462*
X0408Y04613*
X04076Y04605*
X04073Y04597*
X0407Y04589*
X04068Y0458*
X04067Y04572*
X04066Y04563*
X04066Y04555*
G54D45*
X01453Y03559D02*
Y03599D01*
X01433Y03579D02*
X01473D01*
X02221Y02792D02*
Y02831D01*
X02201Y02811D02*
X0224D01*
X02221Y01256D02*
Y01296D01*
X02201Y01276D02*
X0224D01*
X01453Y02024D02*
Y02063D01*
X01433Y02044D02*
X01473D01*
X00685Y02792D02*
Y02831D01*
X00666Y02811D02*
X00705D01*
X00685Y03559D02*
Y03599D01*
X00666Y03579D02*
X00705D01*
X00685Y04327D02*
Y04366D01*
X00666Y04347D02*
X00705D01*
X00685Y02024D02*
Y02063D01*
X00666Y02044D02*
X00705D01*
X01453Y02792D02*
Y02831D01*
X01433Y02811D02*
X01473D01*
X02201Y02044D02*
X0224D01*
X02221Y02024D02*
Y02063D01*
X02969Y04347D02*
X03008D01*
X02988Y04327D02*
Y04366D01*
X02201Y04347D02*
X0224D01*
X02221Y04327D02*
Y04366D01*
X01433Y04347D02*
X01473D01*
X01453Y04327D02*
Y04366D01*
X02969Y03239D02*
X03008D01*
X02988Y0322D02*
Y03259D01*
X02201Y03579D02*
X0224D01*
X02221Y03559D02*
Y03599D01*
X02969Y0166D02*
X03008D01*
X02988Y0164D02*
Y01679D01*
X0105Y01276D02*
X01089D01*
X01069Y01256D02*
Y01296D01*
G54D46*
X01142Y0389D02*
X01764D01*
Y03268D02*
Y0389D01*
X01142Y03268D02*
X01764D01*
X01142D02*
Y0389D01*
X0191Y03122D02*
X02532D01*
Y025D02*
Y03122D01*
X0191Y025D02*
X02532D01*
X0191D02*
Y03122D01*
Y01587D02*
X02532D01*
Y00965D02*
Y01587D01*
X0191Y00965D02*
X02532D01*
X0191D02*
Y01587D01*
X01142Y02355D02*
X01764D01*
Y01733D02*
Y02355D01*
X01142Y01733D02*
X01764D01*
X01142D02*
Y02355D01*
X00374Y03122D02*
X00996D01*
Y025D02*
Y03122D01*
X00374Y025D02*
X00996D01*
X00374D02*
Y03122D01*
Y0389D02*
X00996D01*
Y03268D02*
Y0389D01*
X00374Y03268D02*
X00996D01*
X00374D02*
Y0389D01*
Y04658D02*
X00996D01*
Y04036D02*
Y04658D01*
X00374Y04036D02*
X00996D01*
X00374D02*
Y04658D01*
Y02355D02*
X00996D01*
Y01733D02*
Y02355D01*
X00374Y01733D02*
X00996D01*
X00374D02*
Y02355D01*
X01142Y03122D02*
X01764D01*
Y025D02*
Y03122D01*
X01142Y025D02*
X01764D01*
X01142D02*
Y03122D01*
X0191Y01733D02*
Y02355D01*
Y01733D02*
X02532D01*
Y02355*
X0191D02*
X02532D01*
X02677Y04036D02*
Y04658D01*
Y04036D02*
X033D01*
Y04658*
X02677D02*
X033D01*
X0191Y04036D02*
Y04658D01*
Y04036D02*
X02532D01*
Y04658*
X0191D02*
X02532D01*
X01142Y04036D02*
Y04658D01*
Y04036D02*
X01764D01*
Y04658*
X01142D02*
X01764D01*
X02677Y02928D02*
Y0355D01*
Y02928D02*
X033D01*
Y0355*
X02677D02*
X033D01*
X0191Y03268D02*
Y0389D01*
Y03268D02*
X02532D01*
Y0389*
X0191D02*
X02532D01*
X02677Y01349D02*
Y01971D01*
Y01349D02*
X033D01*
Y01971*
X02677D02*
X033D01*
X00758Y00965D02*
Y01587D01*
Y00965D02*
X0138D01*
Y01587*
X00758D02*
X0138D01*
M02*