%FSTAX23Y23*%
%MOIN*%
%SFA1B1*%

%IPPOS*%
%ADD9500C,0.028000*%
%ADD9501C,0.033465*%
%ADD9502C,0.035433*%
%ADD9503C,0.037402*%
%ADD9504C,0.039370*%
%ADD9505C,0.040157*%
%ADD9506C,0.059000*%
%ADD9507C,0.078740*%
%ADD9508C,0.067000*%
%ADD9509C,0.157000*%
%LNpcb1-roundholes-1*%
%LPD*%
G54D9500*
X04287Y02473D03*
X03677Y03409D03*
X04602Y0475D03*
G54D9501*
X03913Y01109D03*
Y01409D03*
X04736Y01459D03*
Y01759D03*
X03913Y01866D03*
Y01566D03*
X0222Y04866D03*
X0192D03*
G54D9502*
X01444Y01163D03*
Y01442D03*
X0259Y01427D03*
Y01147D03*
X03397Y01118D03*
Y01218D03*
Y01318D03*
Y01018D03*
X03362Y01568D03*
Y01848D03*
Y03096D03*
X02606Y03001D03*
Y02722D03*
X02598Y02131D03*
Y01852D03*
X01826Y01883D03*
Y02163D03*
X01826Y02706D03*
Y02986D03*
X01062Y02994D03*
Y02714D03*
Y02131D03*
Y01852D03*
X01078Y03411D03*
Y0369D03*
X01082Y04269D03*
Y04549D03*
X01826D03*
Y04269D03*
Y03702D03*
Y03423D03*
X02598Y03411D03*
Y0369D03*
X0261Y04293D03*
Y04572D03*
X03366Y04541D03*
Y04261D03*
X03917Y04117D03*
Y04017D03*
Y03917D03*
Y03817D03*
Y03717D03*
X03362Y03375D03*
X02533Y04781D03*
X02433D03*
X02333D03*
G54D9503*
X0414Y04555D03*
X0424D03*
G54D9504*
X01677Y04767D03*
Y04867D03*
G54D9505*
X03586Y01164D03*
Y01264D03*
Y01364D03*
Y01464D03*
X04586D03*
Y01364D03*
Y01264D03*
Y01164D03*
Y01564D03*
Y01664D03*
Y01764D03*
Y01864D03*
Y01964D03*
Y02064D03*
Y02164D03*
Y02264D03*
Y02364D03*
Y02464D03*
Y02564D03*
X03586D03*
Y02464D03*
Y02364D03*
Y02264D03*
Y02164D03*
Y02064D03*
Y01964D03*
Y01864D03*
Y01764D03*
Y01664D03*
Y01564D03*
G54D9506*
X00919Y01376D03*
X01169Y01476D03*
X02071Y01376D03*
X02321Y01476D03*
Y02244D03*
X02071Y02144D03*
Y02911D03*
X02321Y03011D03*
X02838Y0176D03*
X03088Y0186D03*
X01553Y02244D03*
X01303Y02144D03*
X00785Y02244D03*
X00535Y02144D03*
Y02911D03*
X00785Y03011D03*
X01303Y02911D03*
X01553Y03011D03*
Y03779D03*
X01303Y03679D03*
X00785Y03779D03*
X00535Y03679D03*
Y04447D03*
X00785Y04547D03*
X01303Y04447D03*
X01553Y04547D03*
X02071Y04447D03*
X02321Y04547D03*
X02838Y04447D03*
X03088Y04547D03*
Y03439D03*
X02838Y03339D03*
X02321Y03779D03*
X02071Y03679D03*
G54D9507*
X00397Y00992D03*
X04759Y00984D03*
X04763Y04944D03*
X00397Y0494D03*
G54D9508*
X00869Y01276D03*
X01269D03*
X02021D03*
X02421D03*
X03188Y0166D03*
X02788D03*
X02421Y02044D03*
X02021D03*
X01653D03*
Y02811D03*
X02021D03*
X02421D03*
X01253D03*
X00885D03*
X00485D03*
Y02044D03*
X00885D03*
X01253D03*
Y03579D03*
X00885D03*
X00485D03*
Y04347D03*
X00885D03*
X01253D03*
X01653D03*
X02021D03*
X02421D03*
X02788D03*
Y03239D03*
X02421Y03579D03*
X02021D03*
X01653D03*
X03188Y03239D03*
Y04347D03*
G54D9509*
X01069Y01276D03*
X02221D03*
Y02044D03*
Y02811D03*
X02988Y0166D03*
X01453Y02044D03*
Y02811D03*
X00685D03*
Y02044D03*
Y03579D03*
X01453D03*
Y04347D03*
X00685D03*
X02221D03*
X02988D03*
Y03239D03*
X02221Y03579D03*
M02*