%FSTAX23Y23*%
%MOIN*%
%SFA1B1*%

%IPPOS*%
%ADD47C,0.002000*%
%ADD48C,0.002665*%
%ADD49C,0.001335*%
%LNpcb1-1*%
%LPD*%
G54D47*
X04751Y00976D02*
X04755Y00984D01*
X04751Y00992*
X04759Y00988*
X04767Y00992*
X04763Y00984*
X04767Y00976*
X04759Y0098*
X04751Y00976*
X04755Y0098D02*
X04757Y00984D01*
X04755Y00988*
X04759Y00986*
X04763Y00988*
X04761Y00984*
X04763Y0098*
X04759Y00982*
X04755Y0098*
X00389Y04932D02*
X00393Y0494D01*
X00389Y04948*
X00397Y04944*
X00405Y04948*
X00401Y0494*
X00405Y04932*
X00397Y04936*
X00389Y04932*
X00393Y04936D02*
X00395Y0494D01*
X00393Y04944*
X00397Y04942*
X00401Y04944*
X00399Y0494*
X00401Y04936*
X00397Y04938*
X00393Y04936*
X04755Y04936D02*
X04759Y04944D01*
X04755Y04952*
X04763Y04948*
X04771Y04952*
X04767Y04944*
X04771Y04936*
X04763Y0494*
X04755Y04936*
X04759Y0494D02*
X04761Y04944D01*
X04759Y04948*
X04763Y04946*
X04767Y04948*
X04765Y04944*
X04767Y0494*
X04763Y04942*
X04759Y0494*
X02525Y04773D02*
X02529Y04781D01*
X02525Y04789*
X02533Y04785*
X02541Y04789*
X02537Y04781*
X02541Y04773*
X02533Y04777*
X02525Y04773*
X02425D02*
X02429Y04781D01*
X02425Y04789*
X02433Y04785*
X02441Y04789*
X02437Y04781*
X02441Y04773*
X02433Y04777*
X02425Y04773*
X02325D02*
X02329Y04781D01*
X02325Y04789*
X02333Y04785*
X02341Y04789*
X02337Y04781*
X02341Y04773*
X02333Y04777*
X02325Y04773*
X01653Y03571D02*
X01657Y03575D01*
X01661*
X01657Y03579*
X01661Y03583*
X01657*
X01653Y03587*
X01649Y03583*
X01645*
X01649Y03579*
X01645Y03575*
X01649*
X01653Y03571*
X01253D02*
X01257Y03575D01*
X01261*
X01257Y03579*
X01261Y03583*
X01257*
X01253Y03587*
X01249Y03583*
X01245*
X01249Y03579*
X01245Y03575*
X01249*
X01253Y03571*
X01453D02*
X01445Y03587D01*
X01461*
X01453Y03571*
X02421Y02803D02*
X02425Y02807D01*
X02429*
X02425Y02811*
X02429Y02815*
X02425*
X02421Y02819*
X02417Y02815*
X02413*
X02417Y02811*
X02413Y02807*
X02417*
X02421Y02803*
X02021D02*
X02025Y02807D01*
X02029*
X02025Y02811*
X02029Y02815*
X02025*
X02021Y02819*
X02017Y02815*
X02013*
X02017Y02811*
X02013Y02807*
X02017*
X02021Y02803*
X02221D02*
X02213Y02819D01*
X02229*
X02221Y02803*
X02421Y01268D02*
X02425Y01272D01*
X02429*
X02425Y01276*
X02429Y0128*
X02425*
X02421Y01284*
X02417Y0128*
X02413*
X02417Y01276*
X02413Y01272*
X02417*
X02421Y01268*
X02021D02*
X02025Y01272D01*
X02029*
X02025Y01276*
X02029Y0128*
X02025*
X02021Y01284*
X02017Y0128*
X02013*
X02017Y01276*
X02013Y01272*
X02017*
X02021Y01268*
X02221D02*
X02213Y01284D01*
X02229*
X02221Y01268*
X01653Y02036D02*
X01657Y0204D01*
X01661*
X01657Y02044*
X01661Y02048*
X01657*
X01653Y02052*
X01649Y02048*
X01645*
X01649Y02044*
X01645Y0204*
X01649*
X01653Y02036*
X01253D02*
X01257Y0204D01*
X01261*
X01257Y02044*
X01261Y02048*
X01257*
X01253Y02052*
X01249Y02048*
X01245*
X01249Y02044*
X01245Y0204*
X01249*
X01253Y02036*
X01453D02*
X01445Y02052D01*
X01461*
X01453Y02036*
X00885Y02803D02*
X00889Y02807D01*
X00893*
X00889Y02811*
X00893Y02815*
X00889*
X00885Y02819*
X00881Y02815*
X00877*
X00881Y02811*
X00877Y02807*
X00881*
X00885Y02803*
X00485D02*
X00489Y02807D01*
X00493*
X00489Y02811*
X00493Y02815*
X00489*
X00485Y02819*
X00481Y02815*
X00477*
X00481Y02811*
X00477Y02807*
X00481*
X00485Y02803*
X00685D02*
X00677Y02819D01*
X00693*
X00685Y02803*
X00885Y03571D02*
X00889Y03575D01*
X00893*
X00889Y03579*
X00893Y03583*
X00889*
X00885Y03587*
X00881Y03583*
X00877*
X00881Y03579*
X00877Y03575*
X00881*
X00885Y03571*
X00485D02*
X00489Y03575D01*
X00493*
X00489Y03579*
X00493Y03583*
X00489*
X00485Y03587*
X00481Y03583*
X00477*
X00481Y03579*
X00477Y03575*
X00481*
X00485Y03571*
X00685D02*
X00677Y03587D01*
X00693*
X00685Y03571*
X00885Y04339D02*
X00889Y04343D01*
X00893*
X00889Y04347*
X00893Y04351*
X00889*
X00885Y04355*
X00881Y04351*
X00877*
X00881Y04347*
X00877Y04343*
X00881*
X00885Y04339*
X00485D02*
X00489Y04343D01*
X00493*
X00489Y04347*
X00493Y04351*
X00489*
X00485Y04355*
X00481Y04351*
X00477*
X00481Y04347*
X00477Y04343*
X00481*
X00485Y04339*
X00685D02*
X00677Y04355D01*
X00693*
X00685Y04339*
X00885Y02036D02*
X00889Y0204D01*
X00893*
X00889Y02044*
X00893Y02048*
X00889*
X00885Y02052*
X00881Y02048*
X00877*
X00881Y02044*
X00877Y0204*
X00881*
X00885Y02036*
X00485D02*
X00489Y0204D01*
X00493*
X00489Y02044*
X00493Y02048*
X00489*
X00485Y02052*
X00481Y02048*
X00477*
X00481Y02044*
X00477Y0204*
X00481*
X00485Y02036*
X00685D02*
X00677Y02052D01*
X00693*
X00685Y02036*
X02212Y04858D02*
Y04874D01*
X02228*
Y04858*
X02212*
X01912D02*
Y04874D01*
X01928*
Y04858*
X01912*
X01669Y04759D02*
Y04775D01*
X01685*
Y04759*
X01669*
X01673Y04763D02*
Y04771D01*
X01681*
Y04763*
X01673*
X01669Y04859D02*
Y04875D01*
X01685*
Y04859*
X01669*
X01673Y04863D02*
Y04871D01*
X01681*
Y04863*
X01673*
X01653Y02803D02*
X01657Y02807D01*
X01661*
X01657Y02811*
X01661Y02815*
X01657*
X01653Y02819*
X01649Y02815*
X01645*
X01649Y02811*
X01645Y02807*
X01649*
X01653Y02803*
X01253D02*
X01257Y02807D01*
X01261*
X01257Y02811*
X01261Y02815*
X01257*
X01253Y02819*
X01249Y02815*
X01245*
X01249Y02811*
X01245Y02807*
X01249*
X01253Y02803*
X01453D02*
X01445Y02819D01*
X01461*
X01453Y02803*
X00389Y00984D02*
X00393Y00992D01*
X00389Y01*
X00397Y00996*
X00405Y01*
X00401Y00992*
X00405Y00984*
X00397Y00988*
X00389Y00984*
X00393Y00988D02*
X00395Y00992D01*
X00393Y00996*
X00397Y00994*
X00401Y00996*
X00399Y00992*
X00401Y00988*
X00397Y0099*
X00393Y00988*
X04129Y02696D02*
X04137Y02704D01*
X04145Y02696*
X04137Y02688*
X04129Y02696*
Y02854D02*
X04137Y02862D01*
X04145Y02854*
X04137Y02846*
X04129Y02854*
Y03011D02*
X04137Y03019D01*
X04145Y03011*
X04137Y03003*
X04129Y03011*
X0397D02*
X03978Y03019D01*
X03986Y03011*
X03978Y03003*
X0397Y03011*
Y02854D02*
X03978Y02862D01*
X03986Y02854*
X03978Y02846*
X0397Y02854*
Y02696D02*
X03978Y02704D01*
X03986Y02696*
X03978Y02688*
X0397Y02696*
Y02224D02*
X03978Y02232D01*
X03986Y02224*
X03978Y02216*
X0397Y02224*
X03873Y03161D02*
X03865Y03177D01*
X03881*
X03873Y03161*
Y03165D02*
X03869Y03173D01*
X03877*
X03873Y03165*
Y02058D02*
X03865Y02074D01*
X03881*
X03873Y02058*
Y02062D02*
X03869Y0207D01*
X03877*
X03873Y02062*
X04242Y02058D02*
X04234Y02074D01*
X0425*
X04242Y02058*
Y02062D02*
X04238Y0207D01*
X04246*
X04242Y02062*
X0397Y02381D02*
X03978Y02389D01*
X03986Y02381*
X03978Y02373*
X0397Y02381*
X04129D02*
X04137Y02389D01*
X04145Y02381*
X04137Y02373*
X04129Y02381*
Y02224D02*
X04137Y02232D01*
X04145Y02224*
X04137Y02216*
X04129Y02224*
X04242Y03161D02*
X04234Y03177D01*
X0425*
X04242Y03161*
Y03165D02*
X04238Y03173D01*
X04246*
X04242Y03165*
X04728Y01751D02*
Y01767D01*
X04744*
Y01751*
X04728*
Y01451D02*
Y01467D01*
X04744*
Y01451*
X04728*
X04578Y02556D02*
X04582D01*
X04586Y0256*
X0459Y02556*
X04594*
Y0256*
X0459Y02564*
X04594Y02568*
Y02572*
X0459*
X04586Y02568*
X04582Y02572*
X04578*
Y02568*
X04582Y02564*
X04578Y0256*
Y02556*
Y02456D02*
X04582D01*
X04586Y0246*
X0459Y02456*
X04594*
Y0246*
X0459Y02464*
X04594Y02468*
Y02472*
X0459*
X04586Y02468*
X04582Y02472*
X04578*
Y02468*
X04582Y02464*
X04578Y0246*
Y02456*
Y02356D02*
X04582D01*
X04586Y0236*
X0459Y02356*
X04594*
Y0236*
X0459Y02364*
X04594Y02368*
Y02372*
X0459*
X04586Y02368*
X04582Y02372*
X04578*
Y02368*
X04582Y02364*
X04578Y0236*
Y02356*
Y02256D02*
X04582D01*
X04586Y0226*
X0459Y02256*
X04594*
Y0226*
X0459Y02264*
X04594Y02268*
Y02272*
X0459*
X04586Y02268*
X04582Y02272*
X04578*
Y02268*
X04582Y02264*
X04578Y0226*
Y02256*
Y02156D02*
X04582D01*
X04586Y0216*
X0459Y02156*
X04594*
Y0216*
X0459Y02164*
X04594Y02168*
Y02172*
X0459*
X04586Y02168*
X04582Y02172*
X04578*
Y02168*
X04582Y02164*
X04578Y0216*
Y02156*
Y02056D02*
X04582D01*
X04586Y0206*
X0459Y02056*
X04594*
Y0206*
X0459Y02064*
X04594Y02068*
Y02072*
X0459*
X04586Y02068*
X04582Y02072*
X04578*
Y02068*
X04582Y02064*
X04578Y0206*
Y02056*
Y01956D02*
X04582D01*
X04586Y0196*
X0459Y01956*
X04594*
Y0196*
X0459Y01964*
X04594Y01968*
Y01972*
X0459*
X04586Y01968*
X04582Y01972*
X04578*
Y01968*
X04582Y01964*
X04578Y0196*
Y01956*
Y01856D02*
X04582D01*
X04586Y0186*
X0459Y01856*
X04594*
Y0186*
X0459Y01864*
X04594Y01868*
Y01872*
X0459*
X04586Y01868*
X04582Y01872*
X04578*
Y01868*
X04582Y01864*
X04578Y0186*
Y01856*
Y01756D02*
X04582D01*
X04586Y0176*
X0459Y01756*
X04594*
Y0176*
X0459Y01764*
X04594Y01768*
Y01772*
X0459*
X04586Y01768*
X04582Y01772*
X04578*
Y01768*
X04582Y01764*
X04578Y0176*
Y01756*
Y01656D02*
X04582D01*
X04586Y0166*
X0459Y01656*
X04594*
Y0166*
X0459Y01664*
X04594Y01668*
Y01672*
X0459*
X04586Y01668*
X04582Y01672*
X04578*
Y01668*
X04582Y01664*
X04578Y0166*
Y01656*
Y01556D02*
X04582D01*
X04586Y0156*
X0459Y01556*
X04594*
Y0156*
X0459Y01564*
X04594Y01568*
Y01572*
X0459*
X04586Y01568*
X04582Y01572*
X04578*
Y01568*
X04582Y01564*
X04578Y0156*
Y01556*
Y01456D02*
X04582D01*
X04586Y0146*
X0459Y01456*
X04594*
Y0146*
X0459Y01464*
X04594Y01468*
Y01472*
X0459*
X04586Y01468*
X04582Y01472*
X04578*
Y01468*
X04582Y01464*
X04578Y0146*
Y01456*
Y01356D02*
X04582D01*
X04586Y0136*
X0459Y01356*
X04594*
Y0136*
X0459Y01364*
X04594Y01368*
Y01372*
X0459*
X04586Y01368*
X04582Y01372*
X04578*
Y01368*
X04582Y01364*
X04578Y0136*
Y01356*
Y01256D02*
X04582D01*
X04586Y0126*
X0459Y01256*
X04594*
Y0126*
X0459Y01264*
X04594Y01268*
Y01272*
X0459*
X04586Y01268*
X04582Y01272*
X04578*
Y01268*
X04582Y01264*
X04578Y0126*
Y01256*
Y01156D02*
X04582D01*
X04586Y0116*
X0459Y01156*
X04594*
Y0116*
X0459Y01164*
X04594Y01168*
Y01172*
X0459*
X04586Y01168*
X04582Y01172*
X04578*
Y01168*
X04582Y01164*
X04578Y0116*
Y01156*
X03578Y02556D02*
X03582D01*
X03586Y0256*
X0359Y02556*
X03594*
Y0256*
X0359Y02564*
X03594Y02568*
Y02572*
X0359*
X03586Y02568*
X03582Y02572*
X03578*
Y02568*
X03582Y02564*
X03578Y0256*
Y02556*
Y02456D02*
X03582D01*
X03586Y0246*
X0359Y02456*
X03594*
Y0246*
X0359Y02464*
X03594Y02468*
Y02472*
X0359*
X03586Y02468*
X03582Y02472*
X03578*
Y02468*
X03582Y02464*
X03578Y0246*
Y02456*
Y02356D02*
X03582D01*
X03586Y0236*
X0359Y02356*
X03594*
Y0236*
X0359Y02364*
X03594Y02368*
Y02372*
X0359*
X03586Y02368*
X03582Y02372*
X03578*
Y02368*
X03582Y02364*
X03578Y0236*
Y02356*
Y02256D02*
X03582D01*
X03586Y0226*
X0359Y02256*
X03594*
Y0226*
X0359Y02264*
X03594Y02268*
Y02272*
X0359*
X03586Y02268*
X03582Y02272*
X03578*
Y02268*
X03582Y02264*
X03578Y0226*
Y02256*
Y02156D02*
X03582D01*
X03586Y0216*
X0359Y02156*
X03594*
Y0216*
X0359Y02164*
X03594Y02168*
Y02172*
X0359*
X03586Y02168*
X03582Y02172*
X03578*
Y02168*
X03582Y02164*
X03578Y0216*
Y02156*
Y02056D02*
X03582D01*
X03586Y0206*
X0359Y02056*
X03594*
Y0206*
X0359Y02064*
X03594Y02068*
Y02072*
X0359*
X03586Y02068*
X03582Y02072*
X03578*
Y02068*
X03582Y02064*
X03578Y0206*
Y02056*
Y01956D02*
X03582D01*
X03586Y0196*
X0359Y01956*
X03594*
Y0196*
X0359Y01964*
X03594Y01968*
Y01972*
X0359*
X03586Y01968*
X03582Y01972*
X03578*
Y01968*
X03582Y01964*
X03578Y0196*
Y01956*
Y01856D02*
X03582D01*
X03586Y0186*
X0359Y01856*
X03594*
Y0186*
X0359Y01864*
X03594Y01868*
Y01872*
X0359*
X03586Y01868*
X03582Y01872*
X03578*
Y01868*
X03582Y01864*
X03578Y0186*
Y01856*
Y01756D02*
X03582D01*
X03586Y0176*
X0359Y01756*
X03594*
Y0176*
X0359Y01764*
X03594Y01768*
Y01772*
X0359*
X03586Y01768*
X03582Y01772*
X03578*
Y01768*
X03582Y01764*
X03578Y0176*
Y01756*
Y01656D02*
X03582D01*
X03586Y0166*
X0359Y01656*
X03594*
Y0166*
X0359Y01664*
X03594Y01668*
Y01672*
X0359*
X03586Y01668*
X03582Y01672*
X03578*
Y01668*
X03582Y01664*
X03578Y0166*
Y01656*
Y01556D02*
X03582D01*
X03586Y0156*
X0359Y01556*
X03594*
Y0156*
X0359Y01564*
X03594Y01568*
Y01572*
X0359*
X03586Y01568*
X03582Y01572*
X03578*
Y01568*
X03582Y01564*
X03578Y0156*
Y01556*
Y01456D02*
X03582D01*
X03586Y0146*
X0359Y01456*
X03594*
Y0146*
X0359Y01464*
X03594Y01468*
Y01472*
X0359*
X03586Y01468*
X03582Y01472*
X03578*
Y01468*
X03582Y01464*
X03578Y0146*
Y01456*
Y01356D02*
X03582D01*
X03586Y0136*
X0359Y01356*
X03594*
Y0136*
X0359Y01364*
X03594Y01368*
Y01372*
X0359*
X03586Y01368*
X03582Y01372*
X03578*
Y01368*
X03582Y01364*
X03578Y0136*
Y01356*
Y01256D02*
X03582D01*
X03586Y0126*
X0359Y01256*
X03594*
Y0126*
X0359Y01264*
X03594Y01268*
Y01272*
X0359*
X03586Y01268*
X03582Y01272*
X03578*
Y01268*
X03582Y01264*
X03578Y0126*
Y01256*
Y01156D02*
X03582D01*
X03586Y0116*
X0359Y01156*
X03594*
Y0116*
X0359Y01164*
X03594Y01168*
Y01172*
X0359*
X03586Y01168*
X03582Y01172*
X03578*
Y01168*
X03582Y01164*
X03578Y0116*
Y01156*
X02582Y01139D02*
X02586Y01147D01*
X02582Y01155*
X0259Y01151*
X02598Y01155*
X02594Y01147*
X02598Y01139*
X0259Y01143*
X02582Y01139*
Y01419D02*
X02586Y01427D01*
X02582Y01435*
X0259Y01431*
X02598Y01435*
X02594Y01427*
X02598Y01419*
X0259Y01423*
X02582Y01419*
X0259Y01844D02*
X02594Y01852D01*
X0259Y0186*
X02598Y01856*
X02606Y0186*
X02602Y01852*
X02606Y01844*
X02598Y01848*
X0259Y01844*
Y02123D02*
X02594Y02131D01*
X0259Y02139*
X02598Y02135*
X02606Y02139*
X02602Y02131*
X02606Y02123*
X02598Y02127*
X0259Y02123*
X02221Y02036D02*
X02213Y02052D01*
X02229*
X02221Y02036*
X02021D02*
X02025Y0204D01*
X02029*
X02025Y02044*
X02029Y02048*
X02025*
X02021Y02052*
X02017Y02048*
X02013*
X02017Y02044*
X02013Y0204*
X02017*
X02021Y02036*
X02421D02*
X02425Y0204D01*
X02429*
X02425Y02044*
X02429Y02048*
X02425*
X02421Y02052*
X02417Y02048*
X02413*
X02417Y02044*
X02413Y0204*
X02417*
X02421Y02036*
X03354Y0156D02*
X03358Y01568D01*
X03354Y01576*
X03362Y01572*
X0337Y01576*
X03366Y01568*
X0337Y0156*
X03362Y01564*
X03354Y0156*
Y0184D02*
X03358Y01848D01*
X03354Y01856*
X03362Y01852*
X0337Y01856*
X03366Y01848*
X0337Y0184*
X03362Y01844*
X03354Y0184*
Y03088D02*
X03358Y03096D01*
X03354Y03104*
X03362Y031*
X0337Y03104*
X03366Y03096*
X0337Y03088*
X03362Y03092*
X03354Y03088*
Y03367D02*
X03358Y03375D01*
X03354Y03383*
X03362Y03379*
X0337Y03383*
X03366Y03375*
X0337Y03367*
X03362Y03371*
X03354Y03367*
X03358Y04253D02*
X03362Y04261D01*
X03358Y04269*
X03366Y04265*
X03374Y04269*
X0337Y04261*
X03374Y04253*
X03366Y04257*
X03358Y04253*
Y04533D02*
X03362Y04541D01*
X03358Y04549*
X03366Y04545*
X03374Y04549*
X0337Y04541*
X03374Y04533*
X03366Y04537*
X03358Y04533*
X02602Y04285D02*
X02606Y04293D01*
X02602Y04301*
X0261Y04297*
X02618Y04301*
X02614Y04293*
X02618Y04285*
X0261Y04289*
X02602Y04285*
Y04564D02*
X02606Y04572D01*
X02602Y0458*
X0261Y04576*
X02618Y0458*
X02614Y04572*
X02618Y04564*
X0261Y04568*
X02602Y04564*
X01818Y04261D02*
X01822Y04269D01*
X01818Y04277*
X01826Y04273*
X01834Y04277*
X0183Y04269*
X01834Y04261*
X01826Y04265*
X01818Y04261*
Y04541D02*
X01822Y04549D01*
X01818Y04557*
X01826Y04553*
X01834Y04557*
X0183Y04549*
X01834Y04541*
X01826Y04545*
X01818Y04541*
X01074Y04261D02*
X01078Y04269D01*
X01074Y04277*
X01082Y04273*
X0109Y04277*
X01086Y04269*
X0109Y04261*
X01082Y04265*
X01074Y04261*
Y04541D02*
X01078Y04549D01*
X01074Y04557*
X01082Y04553*
X0109Y04557*
X01086Y04549*
X0109Y04541*
X01082Y04545*
X01074Y04541*
X0259Y03403D02*
X02594Y03411D01*
X0259Y03419*
X02598Y03415*
X02606Y03419*
X02602Y03411*
X02606Y03403*
X02598Y03407*
X0259Y03403*
Y03682D02*
X02594Y0369D01*
X0259Y03698*
X02598Y03694*
X02606Y03698*
X02602Y0369*
X02606Y03682*
X02598Y03686*
X0259Y03682*
X01818Y03415D02*
X01822Y03423D01*
X01818Y03431*
X01826Y03427*
X01834Y03431*
X0183Y03423*
X01834Y03415*
X01826Y03419*
X01818Y03415*
Y03694D02*
X01822Y03702D01*
X01818Y0371*
X01826Y03706*
X01834Y0371*
X0183Y03702*
X01834Y03694*
X01826Y03698*
X01818Y03694*
X0107Y03403D02*
X01074Y03411D01*
X0107Y03419*
X01078Y03415*
X01086Y03419*
X01082Y03411*
X01086Y03403*
X01078Y03407*
X0107Y03403*
Y03682D02*
X01074Y0369D01*
X0107Y03698*
X01078Y03694*
X01086Y03698*
X01082Y0369*
X01086Y03682*
X01078Y03686*
X0107Y03682*
X01054Y02706D02*
X01058Y02714D01*
X01054Y02722*
X01062Y02718*
X0107Y02722*
X01066Y02714*
X0107Y02706*
X01062Y0271*
X01054Y02706*
Y02986D02*
X01058Y02994D01*
X01054Y03002*
X01062Y02998*
X0107Y03002*
X01066Y02994*
X0107Y02986*
X01062Y0299*
X01054Y02986*
X01818Y02698D02*
X01822Y02706D01*
X01818Y02714*
X01826Y0271*
X01834Y02714*
X0183Y02706*
X01834Y02698*
X01826Y02702*
X01818Y02698*
Y02978D02*
X01822Y02986D01*
X01818Y02994*
X01826Y0299*
X01834Y02994*
X0183Y02986*
X01834Y02978*
X01826Y02982*
X01818Y02978*
X02598Y02714D02*
X02602Y02722D01*
X02598Y0273*
X02606Y02726*
X02614Y0273*
X0261Y02722*
X02614Y02714*
X02606Y02718*
X02598Y02714*
Y02993D02*
X02602Y03001D01*
X02598Y03009*
X02606Y03005*
X02614Y03009*
X0261Y03001*
X02614Y02993*
X02606Y02997*
X02598Y02993*
X01436Y01155D02*
X0144Y01163D01*
X01436Y01171*
X01444Y01167*
X01452Y01171*
X01448Y01163*
X01452Y01155*
X01444Y01159*
X01436Y01155*
Y01434D02*
X0144Y01442D01*
X01436Y0145*
X01444Y01446*
X01452Y0145*
X01448Y01442*
X01452Y01434*
X01444Y01438*
X01436Y01434*
X01818Y01875D02*
X01822Y01883D01*
X01818Y01891*
X01826Y01887*
X01834Y01891*
X0183Y01883*
X01834Y01875*
X01826Y01879*
X01818Y01875*
Y02155D02*
X01822Y02163D01*
X01818Y02171*
X01826Y02167*
X01834Y02171*
X0183Y02163*
X01834Y02155*
X01826Y02159*
X01818Y02155*
X01054Y01844D02*
X01058Y01852D01*
X01054Y0186*
X01062Y01856*
X0107Y0186*
X01066Y01852*
X0107Y01844*
X01062Y01848*
X01054Y01844*
Y02123D02*
X01058Y02131D01*
X01054Y02139*
X01062Y02135*
X0107Y02139*
X01066Y02131*
X0107Y02123*
X01062Y02127*
X01054Y02123*
X03389Y0131D02*
X03393Y01318D01*
X03389Y01326*
X03397Y01322*
X03405Y01326*
X03401Y01318*
X03405Y0131*
X03397Y01314*
X03389Y0131*
Y0121D02*
X03393Y01218D01*
X03389Y01226*
X03397Y01222*
X03405Y01226*
X03401Y01218*
X03405Y0121*
X03397Y01214*
X03389Y0121*
Y0111D02*
X03393Y01118D01*
X03389Y01126*
X03397Y01122*
X03405Y01126*
X03401Y01118*
X03405Y0111*
X03397Y01114*
X03389Y0111*
Y0101D02*
X03393Y01018D01*
X03389Y01026*
X03397Y01022*
X03405Y01026*
X03401Y01018*
X03405Y0101*
X03397Y01014*
X03389Y0101*
X03909Y04109D02*
X03913Y04117D01*
X03909Y04125*
X03917Y04121*
X03925Y04125*
X03921Y04117*
X03925Y04109*
X03917Y04113*
X03909Y04109*
Y04009D02*
X03913Y04017D01*
X03909Y04025*
X03917Y04021*
X03925Y04025*
X03921Y04017*
X03925Y04009*
X03917Y04013*
X03909Y04009*
Y03909D02*
X03913Y03917D01*
X03909Y03925*
X03917Y03921*
X03925Y03925*
X03921Y03917*
X03925Y03909*
X03917Y03913*
X03909Y03909*
Y03809D02*
X03913Y03817D01*
X03909Y03825*
X03917Y03821*
X03925Y03825*
X03921Y03817*
X03925Y03809*
X03917Y03813*
X03909Y03809*
Y03709D02*
X03913Y03717D01*
X03909Y03725*
X03917Y03721*
X03925Y03725*
X03921Y03717*
X03925Y03709*
X03917Y03713*
X03909Y03709*
X03905Y01858D02*
Y01874D01*
X03921*
Y01858*
X03905*
Y01558D02*
Y01574D01*
X03921*
Y01558*
X03905*
X02988Y04339D02*
X0298Y04355D01*
X02996*
X02988Y04339*
X02788D02*
X02792Y04343D01*
X02796*
X02792Y04347*
X02796Y04351*
X02792*
X02788Y04355*
X02784Y04351*
X0278*
X02784Y04347*
X0278Y04343*
X02784*
X02788Y04339*
X03188D02*
X03192Y04343D01*
X03196*
X03192Y04347*
X03196Y04351*
X03192*
X03188Y04355*
X03184Y04351*
X0318*
X03184Y04347*
X0318Y04343*
X03184*
X03188Y04339*
X02221D02*
X02213Y04355D01*
X02229*
X02221Y04339*
X02021D02*
X02025Y04343D01*
X02029*
X02025Y04347*
X02029Y04351*
X02025*
X02021Y04355*
X02017Y04351*
X02013*
X02017Y04347*
X02013Y04343*
X02017*
X02021Y04339*
X02421D02*
X02425Y04343D01*
X02429*
X02425Y04347*
X02429Y04351*
X02425*
X02421Y04355*
X02417Y04351*
X02413*
X02417Y04347*
X02413Y04343*
X02417*
X02421Y04339*
X01453D02*
X01445Y04355D01*
X01461*
X01453Y04339*
X01253D02*
X01257Y04343D01*
X01261*
X01257Y04347*
X01261Y04351*
X01257*
X01253Y04355*
X01249Y04351*
X01245*
X01249Y04347*
X01245Y04343*
X01249*
X01253Y04339*
X01653D02*
X01657Y04343D01*
X01661*
X01657Y04347*
X01661Y04351*
X01657*
X01653Y04355*
X01649Y04351*
X01645*
X01649Y04347*
X01645Y04343*
X01649*
X01653Y04339*
X03905Y01401D02*
Y01417D01*
X03921*
Y01401*
X03905*
Y01101D02*
Y01117D01*
X03921*
Y01101*
X03905*
X02988Y03231D02*
X0298Y03247D01*
X02996*
X02988Y03231*
X02788D02*
X02792Y03235D01*
X02796*
X02792Y03239*
X02796Y03243*
X02792*
X02788Y03247*
X02784Y03243*
X0278*
X02784Y03239*
X0278Y03235*
X02784*
X02788Y03231*
X03188D02*
X03192Y03235D01*
X03196*
X03192Y03239*
X03196Y03243*
X03192*
X03188Y03247*
X03184Y03243*
X0318*
X03184Y03239*
X0318Y03235*
X03184*
X03188Y03231*
X02221Y03571D02*
X02213Y03587D01*
X02229*
X02221Y03571*
X02021D02*
X02025Y03575D01*
X02029*
X02025Y03579*
X02029Y03583*
X02025*
X02021Y03587*
X02017Y03583*
X02013*
X02017Y03579*
X02013Y03575*
X02017*
X02021Y03571*
X02421D02*
X02425Y03575D01*
X02429*
X02425Y03579*
X02429Y03583*
X02425*
X02421Y03587*
X02417Y03583*
X02413*
X02417Y03579*
X02413Y03575*
X02417*
X02421Y03571*
X02988Y01652D02*
X0298Y01668D01*
X02996*
X02988Y01652*
X02788D02*
X02792Y01656D01*
X02796*
X02792Y0166*
X02796Y01664*
X02792*
X02788Y01668*
X02784Y01664*
X0278*
X02784Y0166*
X0278Y01656*
X02784*
X02788Y01652*
X03188D02*
X03192Y01656D01*
X03196*
X03192Y0166*
X03196Y01664*
X03192*
X03188Y01668*
X03184Y01664*
X0318*
X03184Y0166*
X0318Y01656*
X03184*
X03188Y01652*
X01069Y01268D02*
X01061Y01284D01*
X01077*
X01069Y01268*
X00869D02*
X00873Y01272D01*
X00877*
X00873Y01276*
X00877Y0128*
X00873*
X00869Y01284*
X00865Y0128*
X00861*
X00865Y01276*
X00861Y01272*
X00865*
X00869Y01268*
X01269D02*
X01273Y01272D01*
X01277*
X01273Y01276*
X01277Y0128*
X01273*
X01269Y01284*
X01265Y0128*
X01261*
X01265Y01276*
X01261Y01272*
X01265*
X01269Y01268*
X04598Y04746D02*
Y04742D01*
X04606*
Y04746*
X0461*
Y04754*
X04606*
Y04758*
X04598*
Y04754*
X04594*
Y04746*
X04598*
X04283Y02469D02*
Y02465D01*
X04291*
Y02469*
X04295*
Y02477*
X04291*
Y02481*
X04283*
Y02477*
X04279*
Y02469*
X04283*
X03673Y03405D02*
Y03401D01*
X03681*
Y03405*
X03685*
Y03413*
X03681*
Y03417*
X03673*
Y03413*
X03669*
Y03405*
X03673*
G54D48*
X01561Y03779D02*
D01*
X01561Y0378*
X01561Y0378*
X01561Y03781*
X01561Y03781*
X01561Y03782*
X0156Y03782*
X0156Y03783*
X0156Y03783*
X0156Y03784*
X01559Y03784*
X01559Y03785*
X01558Y03785*
X01558Y03785*
X01558Y03786*
X01557Y03786*
X01557Y03786*
X01556Y03786*
X01556Y03787*
X01555Y03787*
X01554Y03787*
X01554Y03787*
X01553Y03787*
X01553*
X01552Y03787*
X01552Y03787*
X01551Y03787*
X01551Y03787*
X0155Y03786*
X0155Y03786*
X01549Y03786*
X01549Y03786*
X01548Y03785*
X01548Y03785*
X01547Y03785*
X01547Y03784*
X01547Y03784*
X01546Y03783*
X01546Y03783*
X01546Y03782*
X01546Y03782*
X01545Y03781*
X01545Y03781*
X01545Y0378*
X01545Y0378*
X01545Y03779*
X01545Y03778*
X01545Y03778*
X01545Y03777*
X01545Y03777*
X01546Y03776*
X01546Y03776*
X01546Y03775*
X01546Y03775*
X01547Y03774*
X01547Y03774*
X01547Y03773*
X01548Y03773*
X01548Y03773*
X01549Y03772*
X01549Y03772*
X0155Y03772*
X0155Y03772*
X01551Y03771*
X01551Y03771*
X01552Y03771*
X01552Y03771*
X01553Y03771*
X01553*
X01554Y03771*
X01554Y03771*
X01555Y03771*
X01556Y03771*
X01556Y03772*
X01557Y03772*
X01557Y03772*
X01558Y03772*
X01558Y03773*
X01558Y03773*
X01559Y03773*
X01559Y03774*
X0156Y03774*
X0156Y03775*
X0156Y03775*
X0156Y03776*
X01561Y03776*
X01561Y03777*
X01561Y03777*
X01561Y03778*
X01561Y03778*
X01561Y03779*
X01311Y03679D02*
D01*
X01311Y0368*
X01311Y0368*
X01311Y03681*
X01311Y03681*
X01311Y03682*
X0131Y03682*
X0131Y03683*
X0131Y03683*
X0131Y03684*
X01309Y03684*
X01309Y03685*
X01308Y03685*
X01308Y03685*
X01308Y03686*
X01307Y03686*
X01307Y03686*
X01306Y03686*
X01306Y03687*
X01305Y03687*
X01304Y03687*
X01304Y03687*
X01303Y03687*
X01303*
X01302Y03687*
X01302Y03687*
X01301Y03687*
X01301Y03687*
X013Y03686*
X013Y03686*
X01299Y03686*
X01299Y03686*
X01298Y03685*
X01298Y03685*
X01297Y03685*
X01297Y03684*
X01297Y03684*
X01296Y03683*
X01296Y03683*
X01296Y03682*
X01296Y03682*
X01295Y03681*
X01295Y03681*
X01295Y0368*
X01295Y0368*
X01295Y03679*
X01295Y03678*
X01295Y03678*
X01295Y03677*
X01295Y03677*
X01296Y03676*
X01296Y03676*
X01296Y03675*
X01296Y03675*
X01297Y03674*
X01297Y03674*
X01297Y03673*
X01298Y03673*
X01298Y03673*
X01299Y03672*
X01299Y03672*
X013Y03672*
X013Y03672*
X01301Y03671*
X01301Y03671*
X01302Y03671*
X01302Y03671*
X01303Y03671*
X01303*
X01304Y03671*
X01304Y03671*
X01305Y03671*
X01306Y03671*
X01306Y03672*
X01307Y03672*
X01307Y03672*
X01308Y03672*
X01308Y03673*
X01308Y03673*
X01309Y03673*
X01309Y03674*
X0131Y03674*
X0131Y03675*
X0131Y03675*
X0131Y03676*
X01311Y03676*
X01311Y03677*
X01311Y03677*
X01311Y03678*
X01311Y03678*
X01311Y03679*
X02329Y03011D02*
D01*
X02329Y03012*
X02329Y03012*
X02329Y03013*
X02328Y03014*
X02328Y03014*
X02328Y03015*
X02328Y03015*
X02328Y03016*
X02327Y03016*
X02327Y03016*
X02327Y03017*
X02326Y03017*
X02326Y03018*
X02325Y03018*
X02325Y03018*
X02324Y03019*
X02324Y03019*
X02323Y03019*
X02323Y03019*
X02322Y03019*
X02322Y03019*
X02321Y03019*
X0232*
X0232Y03019*
X02319Y03019*
X02319Y03019*
X02318Y03019*
X02318Y03019*
X02317Y03019*
X02317Y03018*
X02316Y03018*
X02316Y03018*
X02315Y03017*
X02315Y03017*
X02315Y03016*
X02314Y03016*
X02314Y03016*
X02314Y03015*
X02313Y03015*
X02313Y03014*
X02313Y03014*
X02313Y03013*
X02313Y03012*
X02313Y03012*
X02313Y03011*
X02313Y03011*
X02313Y0301*
X02313Y0301*
X02313Y03009*
X02313Y03009*
X02313Y03008*
X02314Y03008*
X02314Y03007*
X02314Y03007*
X02315Y03006*
X02315Y03006*
X02315Y03005*
X02316Y03005*
X02316Y03005*
X02317Y03004*
X02317Y03004*
X02318Y03004*
X02318Y03004*
X02319Y03004*
X02319Y03003*
X0232Y03003*
X0232Y03003*
X02321*
X02322Y03003*
X02322Y03003*
X02323Y03004*
X02323Y03004*
X02324Y03004*
X02324Y03004*
X02325Y03004*
X02325Y03005*
X02326Y03005*
X02326Y03005*
X02327Y03006*
X02327Y03006*
X02327Y03007*
X02328Y03007*
X02328Y03008*
X02328Y03008*
X02328Y03009*
X02328Y03009*
X02329Y0301*
X02329Y0301*
X02329Y03011*
X02329Y03011*
X02079Y02911D02*
D01*
X02079Y02912*
X02079Y02912*
X02079Y02913*
X02078Y02914*
X02078Y02914*
X02078Y02915*
X02078Y02915*
X02078Y02916*
X02077Y02916*
X02077Y02916*
X02077Y02917*
X02076Y02917*
X02076Y02918*
X02075Y02918*
X02075Y02918*
X02074Y02919*
X02074Y02919*
X02073Y02919*
X02073Y02919*
X02072Y02919*
X02072Y02919*
X02071Y02919*
X0207*
X0207Y02919*
X02069Y02919*
X02069Y02919*
X02068Y02919*
X02068Y02919*
X02067Y02919*
X02067Y02918*
X02066Y02918*
X02066Y02918*
X02065Y02917*
X02065Y02917*
X02065Y02916*
X02064Y02916*
X02064Y02916*
X02064Y02915*
X02063Y02915*
X02063Y02914*
X02063Y02914*
X02063Y02913*
X02063Y02912*
X02063Y02912*
X02063Y02911*
X02063Y02911*
X02063Y0291*
X02063Y0291*
X02063Y02909*
X02063Y02909*
X02063Y02908*
X02064Y02908*
X02064Y02907*
X02064Y02907*
X02065Y02906*
X02065Y02906*
X02065Y02905*
X02066Y02905*
X02066Y02905*
X02067Y02904*
X02067Y02904*
X02068Y02904*
X02068Y02904*
X02069Y02904*
X02069Y02903*
X0207Y02903*
X0207Y02903*
X02071*
X02072Y02903*
X02072Y02903*
X02073Y02904*
X02073Y02904*
X02074Y02904*
X02074Y02904*
X02075Y02904*
X02075Y02905*
X02076Y02905*
X02076Y02905*
X02077Y02906*
X02077Y02906*
X02077Y02907*
X02078Y02907*
X02078Y02908*
X02078Y02908*
X02078Y02909*
X02078Y02909*
X02079Y0291*
X02079Y0291*
X02079Y02911*
X02079Y02911*
X02329Y01476D02*
D01*
X02329Y01476*
X02329Y01477*
X02329Y01478*
X02328Y01478*
X02328Y01479*
X02328Y01479*
X02328Y0148*
X02328Y0148*
X02327Y01481*
X02327Y01481*
X02327Y01481*
X02326Y01482*
X02326Y01482*
X02325Y01483*
X02325Y01483*
X02324Y01483*
X02324Y01483*
X02323Y01483*
X02323Y01484*
X02322Y01484*
X02322Y01484*
X02321Y01484*
X0232*
X0232Y01484*
X02319Y01484*
X02319Y01484*
X02318Y01483*
X02318Y01483*
X02317Y01483*
X02317Y01483*
X02316Y01483*
X02316Y01482*
X02315Y01482*
X02315Y01481*
X02315Y01481*
X02314Y01481*
X02314Y0148*
X02314Y0148*
X02313Y01479*
X02313Y01479*
X02313Y01478*
X02313Y01478*
X02313Y01477*
X02313Y01476*
X02313Y01476*
X02313Y01475*
X02313Y01475*
X02313Y01474*
X02313Y01474*
X02313Y01473*
X02313Y01473*
X02314Y01472*
X02314Y01472*
X02314Y01471*
X02315Y01471*
X02315Y0147*
X02315Y0147*
X02316Y0147*
X02316Y01469*
X02317Y01469*
X02317Y01469*
X02318Y01468*
X02318Y01468*
X02319Y01468*
X02319Y01468*
X0232Y01468*
X0232Y01468*
X02321*
X02322Y01468*
X02322Y01468*
X02323Y01468*
X02323Y01468*
X02324Y01468*
X02324Y01469*
X02325Y01469*
X02325Y01469*
X02326Y0147*
X02326Y0147*
X02327Y0147*
X02327Y01471*
X02327Y01471*
X02328Y01472*
X02328Y01472*
X02328Y01473*
X02328Y01473*
X02328Y01474*
X02329Y01474*
X02329Y01475*
X02329Y01475*
X02329Y01476*
X02079Y01376D02*
D01*
X02079Y01376*
X02079Y01377*
X02079Y01378*
X02078Y01378*
X02078Y01379*
X02078Y01379*
X02078Y0138*
X02078Y0138*
X02077Y01381*
X02077Y01381*
X02077Y01381*
X02076Y01382*
X02076Y01382*
X02075Y01383*
X02075Y01383*
X02074Y01383*
X02074Y01383*
X02073Y01383*
X02073Y01384*
X02072Y01384*
X02072Y01384*
X02071Y01384*
X0207*
X0207Y01384*
X02069Y01384*
X02069Y01384*
X02068Y01383*
X02068Y01383*
X02067Y01383*
X02067Y01383*
X02066Y01383*
X02066Y01382*
X02065Y01382*
X02065Y01381*
X02065Y01381*
X02064Y01381*
X02064Y0138*
X02064Y0138*
X02063Y01379*
X02063Y01379*
X02063Y01378*
X02063Y01378*
X02063Y01377*
X02063Y01376*
X02063Y01376*
X02063Y01375*
X02063Y01375*
X02063Y01374*
X02063Y01374*
X02063Y01373*
X02063Y01373*
X02064Y01372*
X02064Y01372*
X02064Y01371*
X02065Y01371*
X02065Y0137*
X02065Y0137*
X02066Y0137*
X02066Y01369*
X02067Y01369*
X02067Y01369*
X02068Y01368*
X02068Y01368*
X02069Y01368*
X02069Y01368*
X0207Y01368*
X0207Y01368*
X02071*
X02072Y01368*
X02072Y01368*
X02073Y01368*
X02073Y01368*
X02074Y01368*
X02074Y01369*
X02075Y01369*
X02075Y01369*
X02076Y0137*
X02076Y0137*
X02077Y0137*
X02077Y01371*
X02077Y01371*
X02078Y01372*
X02078Y01372*
X02078Y01373*
X02078Y01373*
X02078Y01374*
X02079Y01374*
X02079Y01375*
X02079Y01375*
X02079Y01376*
X01561Y02244D02*
D01*
X01561Y02244*
X01561Y02245*
X01561Y02245*
X01561Y02246*
X01561Y02246*
X0156Y02247*
X0156Y02247*
X0156Y02248*
X0156Y02248*
X01559Y02249*
X01559Y02249*
X01558Y0225*
X01558Y0225*
X01558Y0225*
X01557Y02251*
X01557Y02251*
X01556Y02251*
X01556Y02251*
X01555Y02251*
X01554Y02251*
X01554Y02252*
X01553Y02252*
X01553*
X01552Y02252*
X01552Y02251*
X01551Y02251*
X01551Y02251*
X0155Y02251*
X0155Y02251*
X01549Y02251*
X01549Y0225*
X01548Y0225*
X01548Y0225*
X01547Y02249*
X01547Y02249*
X01547Y02248*
X01546Y02248*
X01546Y02247*
X01546Y02247*
X01546Y02246*
X01545Y02246*
X01545Y02245*
X01545Y02245*
X01545Y02244*
X01545Y02244*
X01545Y02243*
X01545Y02242*
X01545Y02242*
X01545Y02241*
X01546Y02241*
X01546Y0224*
X01546Y0224*
X01546Y02239*
X01547Y02239*
X01547Y02238*
X01547Y02238*
X01548Y02238*
X01548Y02237*
X01549Y02237*
X01549Y02237*
X0155Y02236*
X0155Y02236*
X01551Y02236*
X01551Y02236*
X01552Y02236*
X01552Y02236*
X01553Y02236*
X01553*
X01554Y02236*
X01554Y02236*
X01555Y02236*
X01556Y02236*
X01556Y02236*
X01557Y02236*
X01557Y02237*
X01558Y02237*
X01558Y02237*
X01558Y02238*
X01559Y02238*
X01559Y02238*
X0156Y02239*
X0156Y02239*
X0156Y0224*
X0156Y0224*
X01561Y02241*
X01561Y02241*
X01561Y02242*
X01561Y02242*
X01561Y02243*
X01561Y02244*
X01311Y02144D02*
D01*
X01311Y02144*
X01311Y02145*
X01311Y02145*
X01311Y02146*
X01311Y02146*
X0131Y02147*
X0131Y02147*
X0131Y02148*
X0131Y02148*
X01309Y02149*
X01309Y02149*
X01308Y0215*
X01308Y0215*
X01308Y0215*
X01307Y02151*
X01307Y02151*
X01306Y02151*
X01306Y02151*
X01305Y02151*
X01304Y02151*
X01304Y02152*
X01303Y02152*
X01303*
X01302Y02152*
X01302Y02151*
X01301Y02151*
X01301Y02151*
X013Y02151*
X013Y02151*
X01299Y02151*
X01299Y0215*
X01298Y0215*
X01298Y0215*
X01297Y02149*
X01297Y02149*
X01297Y02148*
X01296Y02148*
X01296Y02147*
X01296Y02147*
X01296Y02146*
X01295Y02146*
X01295Y02145*
X01295Y02145*
X01295Y02144*
X01295Y02144*
X01295Y02143*
X01295Y02142*
X01295Y02142*
X01295Y02141*
X01296Y02141*
X01296Y0214*
X01296Y0214*
X01296Y02139*
X01297Y02139*
X01297Y02138*
X01297Y02138*
X01298Y02138*
X01298Y02137*
X01299Y02137*
X01299Y02137*
X013Y02136*
X013Y02136*
X01301Y02136*
X01301Y02136*
X01302Y02136*
X01302Y02136*
X01303Y02136*
X01303*
X01304Y02136*
X01304Y02136*
X01305Y02136*
X01306Y02136*
X01306Y02136*
X01307Y02136*
X01307Y02137*
X01308Y02137*
X01308Y02137*
X01308Y02138*
X01309Y02138*
X01309Y02138*
X0131Y02139*
X0131Y02139*
X0131Y0214*
X0131Y0214*
X01311Y02141*
X01311Y02141*
X01311Y02142*
X01311Y02142*
X01311Y02143*
X01311Y02144*
X00793Y03011D02*
D01*
X00793Y03012*
X00793Y03012*
X00793Y03013*
X00793Y03014*
X00793Y03014*
X00793Y03015*
X00792Y03015*
X00792Y03016*
X00792Y03016*
X00791Y03016*
X00791Y03017*
X00791Y03017*
X0079Y03018*
X0079Y03018*
X00789Y03018*
X00789Y03019*
X00788Y03019*
X00788Y03019*
X00787Y03019*
X00787Y03019*
X00786Y03019*
X00786Y03019*
X00785*
X00784Y03019*
X00784Y03019*
X00783Y03019*
X00783Y03019*
X00782Y03019*
X00782Y03019*
X00781Y03018*
X00781Y03018*
X0078Y03018*
X0078Y03017*
X0078Y03017*
X00779Y03016*
X00779Y03016*
X00779Y03016*
X00778Y03015*
X00778Y03015*
X00778Y03014*
X00778Y03014*
X00778Y03013*
X00777Y03012*
X00777Y03012*
X00777Y03011*
X00777Y03011*
X00777Y0301*
X00778Y0301*
X00778Y03009*
X00778Y03009*
X00778Y03008*
X00778Y03008*
X00779Y03007*
X00779Y03007*
X00779Y03006*
X0078Y03006*
X0078Y03005*
X0078Y03005*
X00781Y03005*
X00781Y03004*
X00782Y03004*
X00782Y03004*
X00783Y03004*
X00783Y03004*
X00784Y03003*
X00784Y03003*
X00785Y03003*
X00786*
X00786Y03003*
X00787Y03003*
X00787Y03004*
X00788Y03004*
X00788Y03004*
X00789Y03004*
X00789Y03004*
X0079Y03005*
X0079Y03005*
X00791Y03005*
X00791Y03006*
X00791Y03006*
X00792Y03007*
X00792Y03007*
X00792Y03008*
X00793Y03008*
X00793Y03009*
X00793Y03009*
X00793Y0301*
X00793Y0301*
X00793Y03011*
X00793Y03011*
X00543Y02911D02*
D01*
X00543Y02912*
X00543Y02912*
X00543Y02913*
X00543Y02914*
X00543Y02914*
X00543Y02915*
X00542Y02915*
X00542Y02916*
X00542Y02916*
X00541Y02916*
X00541Y02917*
X00541Y02917*
X0054Y02918*
X0054Y02918*
X00539Y02918*
X00539Y02919*
X00538Y02919*
X00538Y02919*
X00537Y02919*
X00537Y02919*
X00536Y02919*
X00536Y02919*
X00535*
X00534Y02919*
X00534Y02919*
X00533Y02919*
X00533Y02919*
X00532Y02919*
X00532Y02919*
X00531Y02918*
X00531Y02918*
X0053Y02918*
X0053Y02917*
X0053Y02917*
X00529Y02916*
X00529Y02916*
X00529Y02916*
X00528Y02915*
X00528Y02915*
X00528Y02914*
X00528Y02914*
X00528Y02913*
X00527Y02912*
X00527Y02912*
X00527Y02911*
X00527Y02911*
X00527Y0291*
X00528Y0291*
X00528Y02909*
X00528Y02909*
X00528Y02908*
X00528Y02908*
X00529Y02907*
X00529Y02907*
X00529Y02906*
X0053Y02906*
X0053Y02905*
X0053Y02905*
X00531Y02905*
X00531Y02904*
X00532Y02904*
X00532Y02904*
X00533Y02904*
X00533Y02904*
X00534Y02903*
X00534Y02903*
X00535Y02903*
X00536*
X00536Y02903*
X00537Y02903*
X00537Y02904*
X00538Y02904*
X00538Y02904*
X00539Y02904*
X00539Y02904*
X0054Y02905*
X0054Y02905*
X00541Y02905*
X00541Y02906*
X00541Y02906*
X00542Y02907*
X00542Y02907*
X00542Y02908*
X00543Y02908*
X00543Y02909*
X00543Y02909*
X00543Y0291*
X00543Y0291*
X00543Y02911*
X00543Y02911*
X00793Y03779D02*
D01*
X00793Y0378*
X00793Y0378*
X00793Y03781*
X00793Y03781*
X00793Y03782*
X00793Y03782*
X00792Y03783*
X00792Y03783*
X00792Y03784*
X00791Y03784*
X00791Y03785*
X00791Y03785*
X0079Y03785*
X0079Y03786*
X00789Y03786*
X00789Y03786*
X00788Y03786*
X00788Y03787*
X00787Y03787*
X00787Y03787*
X00786Y03787*
X00786Y03787*
X00785*
X00784Y03787*
X00784Y03787*
X00783Y03787*
X00783Y03787*
X00782Y03786*
X00782Y03786*
X00781Y03786*
X00781Y03786*
X0078Y03785*
X0078Y03785*
X0078Y03785*
X00779Y03784*
X00779Y03784*
X00779Y03783*
X00778Y03783*
X00778Y03782*
X00778Y03782*
X00778Y03781*
X00778Y03781*
X00777Y0378*
X00777Y0378*
X00777Y03779*
X00777Y03778*
X00777Y03778*
X00778Y03777*
X00778Y03777*
X00778Y03776*
X00778Y03776*
X00778Y03775*
X00779Y03775*
X00779Y03774*
X00779Y03774*
X0078Y03773*
X0078Y03773*
X0078Y03773*
X00781Y03772*
X00781Y03772*
X00782Y03772*
X00782Y03772*
X00783Y03771*
X00783Y03771*
X00784Y03771*
X00784Y03771*
X00785Y03771*
X00786*
X00786Y03771*
X00787Y03771*
X00787Y03771*
X00788Y03771*
X00788Y03772*
X00789Y03772*
X00789Y03772*
X0079Y03772*
X0079Y03773*
X00791Y03773*
X00791Y03773*
X00791Y03774*
X00792Y03774*
X00792Y03775*
X00792Y03775*
X00793Y03776*
X00793Y03776*
X00793Y03777*
X00793Y03777*
X00793Y03778*
X00793Y03778*
X00793Y03779*
X00543Y03679D02*
D01*
X00543Y0368*
X00543Y0368*
X00543Y03681*
X00543Y03681*
X00543Y03682*
X00543Y03682*
X00542Y03683*
X00542Y03683*
X00542Y03684*
X00541Y03684*
X00541Y03685*
X00541Y03685*
X0054Y03685*
X0054Y03686*
X00539Y03686*
X00539Y03686*
X00538Y03686*
X00538Y03687*
X00537Y03687*
X00537Y03687*
X00536Y03687*
X00536Y03687*
X00535*
X00534Y03687*
X00534Y03687*
X00533Y03687*
X00533Y03687*
X00532Y03686*
X00532Y03686*
X00531Y03686*
X00531Y03686*
X0053Y03685*
X0053Y03685*
X0053Y03685*
X00529Y03684*
X00529Y03684*
X00529Y03683*
X00528Y03683*
X00528Y03682*
X00528Y03682*
X00528Y03681*
X00528Y03681*
X00527Y0368*
X00527Y0368*
X00527Y03679*
X00527Y03678*
X00527Y03678*
X00528Y03677*
X00528Y03677*
X00528Y03676*
X00528Y03676*
X00528Y03675*
X00529Y03675*
X00529Y03674*
X00529Y03674*
X0053Y03673*
X0053Y03673*
X0053Y03673*
X00531Y03672*
X00531Y03672*
X00532Y03672*
X00532Y03672*
X00533Y03671*
X00533Y03671*
X00534Y03671*
X00534Y03671*
X00535Y03671*
X00536*
X00536Y03671*
X00537Y03671*
X00537Y03671*
X00538Y03671*
X00538Y03672*
X00539Y03672*
X00539Y03672*
X0054Y03672*
X0054Y03673*
X00541Y03673*
X00541Y03673*
X00541Y03674*
X00542Y03674*
X00542Y03675*
X00542Y03675*
X00543Y03676*
X00543Y03676*
X00543Y03677*
X00543Y03677*
X00543Y03678*
X00543Y03678*
X00543Y03679*
X00793Y04547D02*
D01*
X00793Y04547*
X00793Y04548*
X00793Y04548*
X00793Y04549*
X00793Y04549*
X00793Y0455*
X00792Y0455*
X00792Y04551*
X00792Y04551*
X00791Y04552*
X00791Y04552*
X00791Y04553*
X0079Y04553*
X0079Y04553*
X00789Y04554*
X00789Y04554*
X00788Y04554*
X00788Y04554*
X00787Y04555*
X00787Y04555*
X00786Y04555*
X00786Y04555*
X00785*
X00784Y04555*
X00784Y04555*
X00783Y04555*
X00783Y04554*
X00782Y04554*
X00782Y04554*
X00781Y04554*
X00781Y04553*
X0078Y04553*
X0078Y04553*
X0078Y04552*
X00779Y04552*
X00779Y04551*
X00779Y04551*
X00778Y0455*
X00778Y0455*
X00778Y04549*
X00778Y04549*
X00778Y04548*
X00777Y04548*
X00777Y04547*
X00777Y04547*
X00777Y04546*
X00777Y04546*
X00778Y04545*
X00778Y04545*
X00778Y04544*
X00778Y04543*
X00778Y04543*
X00779Y04543*
X00779Y04542*
X00779Y04542*
X0078Y04541*
X0078Y04541*
X0078Y0454*
X00781Y0454*
X00781Y0454*
X00782Y0454*
X00782Y04539*
X00783Y04539*
X00783Y04539*
X00784Y04539*
X00784Y04539*
X00785Y04539*
X00786*
X00786Y04539*
X00787Y04539*
X00787Y04539*
X00788Y04539*
X00788Y04539*
X00789Y0454*
X00789Y0454*
X0079Y0454*
X0079Y0454*
X00791Y04541*
X00791Y04541*
X00791Y04542*
X00792Y04542*
X00792Y04543*
X00792Y04543*
X00793Y04543*
X00793Y04544*
X00793Y04545*
X00793Y04545*
X00793Y04546*
X00793Y04546*
X00793Y04547*
X00543Y04447D02*
D01*
X00543Y04447*
X00543Y04448*
X00543Y04448*
X00543Y04449*
X00543Y04449*
X00543Y0445*
X00542Y0445*
X00542Y04451*
X00542Y04451*
X00541Y04452*
X00541Y04452*
X00541Y04453*
X0054Y04453*
X0054Y04453*
X00539Y04454*
X00539Y04454*
X00538Y04454*
X00538Y04454*
X00537Y04455*
X00537Y04455*
X00536Y04455*
X00536Y04455*
X00535*
X00534Y04455*
X00534Y04455*
X00533Y04455*
X00533Y04454*
X00532Y04454*
X00532Y04454*
X00531Y04454*
X00531Y04453*
X0053Y04453*
X0053Y04453*
X0053Y04452*
X00529Y04452*
X00529Y04451*
X00529Y04451*
X00528Y0445*
X00528Y0445*
X00528Y04449*
X00528Y04449*
X00528Y04448*
X00527Y04448*
X00527Y04447*
X00527Y04447*
X00527Y04446*
X00527Y04446*
X00528Y04445*
X00528Y04445*
X00528Y04444*
X00528Y04443*
X00528Y04443*
X00529Y04443*
X00529Y04442*
X00529Y04442*
X0053Y04441*
X0053Y04441*
X0053Y0444*
X00531Y0444*
X00531Y0444*
X00532Y0444*
X00532Y04439*
X00533Y04439*
X00533Y04439*
X00534Y04439*
X00534Y04439*
X00535Y04439*
X00536*
X00536Y04439*
X00537Y04439*
X00537Y04439*
X00538Y04439*
X00538Y04439*
X00539Y0444*
X00539Y0444*
X0054Y0444*
X0054Y0444*
X00541Y04441*
X00541Y04441*
X00541Y04442*
X00542Y04442*
X00542Y04443*
X00542Y04443*
X00543Y04443*
X00543Y04444*
X00543Y04445*
X00543Y04445*
X00543Y04446*
X00543Y04446*
X00543Y04447*
X00793Y02244D02*
D01*
X00793Y02244*
X00793Y02245*
X00793Y02245*
X00793Y02246*
X00793Y02246*
X00793Y02247*
X00792Y02247*
X00792Y02248*
X00792Y02248*
X00791Y02249*
X00791Y02249*
X00791Y0225*
X0079Y0225*
X0079Y0225*
X00789Y02251*
X00789Y02251*
X00788Y02251*
X00788Y02251*
X00787Y02251*
X00787Y02251*
X00786Y02252*
X00786Y02252*
X00785*
X00784Y02252*
X00784Y02251*
X00783Y02251*
X00783Y02251*
X00782Y02251*
X00782Y02251*
X00781Y02251*
X00781Y0225*
X0078Y0225*
X0078Y0225*
X0078Y02249*
X00779Y02249*
X00779Y02248*
X00779Y02248*
X00778Y02247*
X00778Y02247*
X00778Y02246*
X00778Y02246*
X00778Y02245*
X00777Y02245*
X00777Y02244*
X00777Y02244*
X00777Y02243*
X00777Y02242*
X00778Y02242*
X00778Y02241*
X00778Y02241*
X00778Y0224*
X00778Y0224*
X00779Y02239*
X00779Y02239*
X00779Y02238*
X0078Y02238*
X0078Y02238*
X0078Y02237*
X00781Y02237*
X00781Y02237*
X00782Y02236*
X00782Y02236*
X00783Y02236*
X00783Y02236*
X00784Y02236*
X00784Y02236*
X00785Y02236*
X00786*
X00786Y02236*
X00787Y02236*
X00787Y02236*
X00788Y02236*
X00788Y02236*
X00789Y02236*
X00789Y02237*
X0079Y02237*
X0079Y02237*
X00791Y02238*
X00791Y02238*
X00791Y02238*
X00792Y02239*
X00792Y02239*
X00792Y0224*
X00793Y0224*
X00793Y02241*
X00793Y02241*
X00793Y02242*
X00793Y02242*
X00793Y02243*
X00793Y02244*
X00543Y02144D02*
D01*
X00543Y02144*
X00543Y02145*
X00543Y02145*
X00543Y02146*
X00543Y02146*
X00543Y02147*
X00542Y02147*
X00542Y02148*
X00542Y02148*
X00541Y02149*
X00541Y02149*
X00541Y0215*
X0054Y0215*
X0054Y0215*
X00539Y02151*
X00539Y02151*
X00538Y02151*
X00538Y02151*
X00537Y02151*
X00537Y02151*
X00536Y02152*
X00536Y02152*
X00535*
X00534Y02152*
X00534Y02151*
X00533Y02151*
X00533Y02151*
X00532Y02151*
X00532Y02151*
X00531Y02151*
X00531Y0215*
X0053Y0215*
X0053Y0215*
X0053Y02149*
X00529Y02149*
X00529Y02148*
X00529Y02148*
X00528Y02147*
X00528Y02147*
X00528Y02146*
X00528Y02146*
X00528Y02145*
X00527Y02145*
X00527Y02144*
X00527Y02144*
X00527Y02143*
X00527Y02142*
X00528Y02142*
X00528Y02141*
X00528Y02141*
X00528Y0214*
X00528Y0214*
X00529Y02139*
X00529Y02139*
X00529Y02138*
X0053Y02138*
X0053Y02138*
X0053Y02137*
X00531Y02137*
X00531Y02137*
X00532Y02136*
X00532Y02136*
X00533Y02136*
X00533Y02136*
X00534Y02136*
X00534Y02136*
X00535Y02136*
X00536*
X00536Y02136*
X00537Y02136*
X00537Y02136*
X00538Y02136*
X00538Y02136*
X00539Y02136*
X00539Y02137*
X0054Y02137*
X0054Y02137*
X00541Y02138*
X00541Y02138*
X00541Y02138*
X00542Y02139*
X00542Y02139*
X00542Y0214*
X00543Y0214*
X00543Y02141*
X00543Y02141*
X00543Y02142*
X00543Y02142*
X00543Y02143*
X00543Y02144*
X01561Y03011D02*
D01*
X01561Y03012*
X01561Y03012*
X01561Y03013*
X01561Y03014*
X01561Y03014*
X0156Y03015*
X0156Y03015*
X0156Y03016*
X0156Y03016*
X01559Y03016*
X01559Y03017*
X01558Y03017*
X01558Y03018*
X01558Y03018*
X01557Y03018*
X01557Y03019*
X01556Y03019*
X01556Y03019*
X01555Y03019*
X01554Y03019*
X01554Y03019*
X01553Y03019*
X01553*
X01552Y03019*
X01552Y03019*
X01551Y03019*
X01551Y03019*
X0155Y03019*
X0155Y03019*
X01549Y03018*
X01549Y03018*
X01548Y03018*
X01548Y03017*
X01547Y03017*
X01547Y03016*
X01547Y03016*
X01546Y03016*
X01546Y03015*
X01546Y03015*
X01546Y03014*
X01545Y03014*
X01545Y03013*
X01545Y03012*
X01545Y03012*
X01545Y03011*
X01545Y03011*
X01545Y0301*
X01545Y0301*
X01545Y03009*
X01546Y03009*
X01546Y03008*
X01546Y03008*
X01546Y03007*
X01547Y03007*
X01547Y03006*
X01547Y03006*
X01548Y03005*
X01548Y03005*
X01549Y03005*
X01549Y03004*
X0155Y03004*
X0155Y03004*
X01551Y03004*
X01551Y03004*
X01552Y03003*
X01552Y03003*
X01553Y03003*
X01553*
X01554Y03003*
X01554Y03003*
X01555Y03004*
X01556Y03004*
X01556Y03004*
X01557Y03004*
X01557Y03004*
X01558Y03005*
X01558Y03005*
X01558Y03005*
X01559Y03006*
X01559Y03006*
X0156Y03007*
X0156Y03007*
X0156Y03008*
X0156Y03008*
X01561Y03009*
X01561Y03009*
X01561Y0301*
X01561Y0301*
X01561Y03011*
X01561Y03011*
X01311Y02911D02*
D01*
X01311Y02912*
X01311Y02912*
X01311Y02913*
X01311Y02914*
X01311Y02914*
X0131Y02915*
X0131Y02915*
X0131Y02916*
X0131Y02916*
X01309Y02916*
X01309Y02917*
X01308Y02917*
X01308Y02918*
X01308Y02918*
X01307Y02918*
X01307Y02919*
X01306Y02919*
X01306Y02919*
X01305Y02919*
X01304Y02919*
X01304Y02919*
X01303Y02919*
X01303*
X01302Y02919*
X01302Y02919*
X01301Y02919*
X01301Y02919*
X013Y02919*
X013Y02919*
X01299Y02918*
X01299Y02918*
X01298Y02918*
X01298Y02917*
X01297Y02917*
X01297Y02916*
X01297Y02916*
X01296Y02916*
X01296Y02915*
X01296Y02915*
X01296Y02914*
X01295Y02914*
X01295Y02913*
X01295Y02912*
X01295Y02912*
X01295Y02911*
X01295Y02911*
X01295Y0291*
X01295Y0291*
X01295Y02909*
X01296Y02909*
X01296Y02908*
X01296Y02908*
X01296Y02907*
X01297Y02907*
X01297Y02906*
X01297Y02906*
X01298Y02905*
X01298Y02905*
X01299Y02905*
X01299Y02904*
X013Y02904*
X013Y02904*
X01301Y02904*
X01301Y02904*
X01302Y02903*
X01302Y02903*
X01303Y02903*
X01303*
X01304Y02903*
X01304Y02903*
X01305Y02904*
X01306Y02904*
X01306Y02904*
X01307Y02904*
X01307Y02904*
X01308Y02905*
X01308Y02905*
X01308Y02905*
X01309Y02906*
X01309Y02906*
X0131Y02907*
X0131Y02907*
X0131Y02908*
X0131Y02908*
X01311Y02909*
X01311Y02909*
X01311Y0291*
X01311Y0291*
X01311Y02911*
X01311Y02911*
X04248Y04555D02*
D01*
X04248Y04555*
X04248Y04556*
X04247Y04556*
X04247Y04557*
X04247Y04557*
X04247Y04558*
X04247Y04558*
X04246Y04559*
X04246Y04559*
X04246Y0456*
X04245Y0456*
X04245Y04561*
X04245Y04561*
X04244Y04561*
X04244Y04562*
X04243Y04562*
X04243Y04562*
X04242Y04562*
X04242Y04562*
X04241Y04562*
X0424Y04563*
X0424Y04563*
X04239*
X04239Y04563*
X04238Y04562*
X04238Y04562*
X04237Y04562*
X04237Y04562*
X04236Y04562*
X04236Y04562*
X04235Y04561*
X04235Y04561*
X04234Y04561*
X04234Y0456*
X04234Y0456*
X04233Y04559*
X04233Y04559*
X04233Y04558*
X04232Y04558*
X04232Y04557*
X04232Y04557*
X04232Y04556*
X04232Y04556*
X04232Y04555*
X04232Y04555*
X04232Y04554*
X04232Y04554*
X04232Y04553*
X04232Y04552*
X04232Y04552*
X04232Y04551*
X04233Y04551*
X04233Y0455*
X04233Y0455*
X04234Y04549*
X04234Y04549*
X04234Y04549*
X04235Y04548*
X04235Y04548*
X04236Y04548*
X04236Y04547*
X04237Y04547*
X04237Y04547*
X04238Y04547*
X04238Y04547*
X04239Y04547*
X04239Y04547*
X0424*
X0424Y04547*
X04241Y04547*
X04242Y04547*
X04242Y04547*
X04243Y04547*
X04243Y04547*
X04244Y04548*
X04244Y04548*
X04245Y04548*
X04245Y04549*
X04245Y04549*
X04246Y04549*
X04246Y0455*
X04246Y0455*
X04247Y04551*
X04247Y04551*
X04247Y04552*
X04247Y04552*
X04247Y04553*
X04248Y04554*
X04248Y04554*
X04248Y04555*
X04148D02*
D01*
X04148Y04555*
X04148Y04556*
X04147Y04556*
X04147Y04557*
X04147Y04557*
X04147Y04558*
X04147Y04558*
X04146Y04559*
X04146Y04559*
X04146Y0456*
X04145Y0456*
X04145Y04561*
X04145Y04561*
X04144Y04561*
X04144Y04562*
X04143Y04562*
X04143Y04562*
X04142Y04562*
X04142Y04562*
X04141Y04562*
X0414Y04563*
X0414Y04563*
X04139*
X04139Y04563*
X04138Y04562*
X04138Y04562*
X04137Y04562*
X04137Y04562*
X04136Y04562*
X04136Y04562*
X04135Y04561*
X04135Y04561*
X04134Y04561*
X04134Y0456*
X04134Y0456*
X04133Y04559*
X04133Y04559*
X04133Y04558*
X04132Y04558*
X04132Y04557*
X04132Y04557*
X04132Y04556*
X04132Y04556*
X04132Y04555*
X04132Y04555*
X04132Y04554*
X04132Y04554*
X04132Y04553*
X04132Y04552*
X04132Y04552*
X04132Y04551*
X04133Y04551*
X04133Y0455*
X04133Y0455*
X04134Y04549*
X04134Y04549*
X04134Y04549*
X04135Y04548*
X04135Y04548*
X04136Y04548*
X04136Y04547*
X04137Y04547*
X04137Y04547*
X04138Y04547*
X04138Y04547*
X04139Y04547*
X04139Y04547*
X0414*
X0414Y04547*
X04141Y04547*
X04142Y04547*
X04142Y04547*
X04143Y04547*
X04143Y04547*
X04144Y04548*
X04144Y04548*
X04145Y04548*
X04145Y04549*
X04145Y04549*
X04146Y04549*
X04146Y0455*
X04146Y0455*
X04147Y04551*
X04147Y04551*
X04147Y04552*
X04147Y04552*
X04147Y04553*
X04148Y04554*
X04148Y04554*
X04148Y04555*
X02079Y02144D02*
D01*
X02079Y02144*
X02079Y02145*
X02079Y02145*
X02078Y02146*
X02078Y02146*
X02078Y02147*
X02078Y02147*
X02078Y02148*
X02077Y02148*
X02077Y02149*
X02077Y02149*
X02076Y0215*
X02076Y0215*
X02075Y0215*
X02075Y02151*
X02074Y02151*
X02074Y02151*
X02073Y02151*
X02073Y02151*
X02072Y02151*
X02072Y02152*
X02071Y02152*
X0207*
X0207Y02152*
X02069Y02151*
X02069Y02151*
X02068Y02151*
X02068Y02151*
X02067Y02151*
X02067Y02151*
X02066Y0215*
X02066Y0215*
X02065Y0215*
X02065Y02149*
X02065Y02149*
X02064Y02148*
X02064Y02148*
X02064Y02147*
X02063Y02147*
X02063Y02146*
X02063Y02146*
X02063Y02145*
X02063Y02145*
X02063Y02144*
X02063Y02144*
X02063Y02143*
X02063Y02142*
X02063Y02142*
X02063Y02141*
X02063Y02141*
X02063Y0214*
X02064Y0214*
X02064Y02139*
X02064Y02139*
X02065Y02138*
X02065Y02138*
X02065Y02138*
X02066Y02137*
X02066Y02137*
X02067Y02137*
X02067Y02136*
X02068Y02136*
X02068Y02136*
X02069Y02136*
X02069Y02136*
X0207Y02136*
X0207Y02136*
X02071*
X02072Y02136*
X02072Y02136*
X02073Y02136*
X02073Y02136*
X02074Y02136*
X02074Y02136*
X02075Y02137*
X02075Y02137*
X02076Y02137*
X02076Y02138*
X02077Y02138*
X02077Y02138*
X02077Y02139*
X02078Y02139*
X02078Y0214*
X02078Y0214*
X02078Y02141*
X02078Y02141*
X02079Y02142*
X02079Y02142*
X02079Y02143*
X02079Y02144*
X02329Y02244D02*
D01*
X02329Y02244*
X02329Y02245*
X02329Y02245*
X02328Y02246*
X02328Y02246*
X02328Y02247*
X02328Y02247*
X02328Y02248*
X02327Y02248*
X02327Y02249*
X02327Y02249*
X02326Y0225*
X02326Y0225*
X02325Y0225*
X02325Y02251*
X02324Y02251*
X02324Y02251*
X02323Y02251*
X02323Y02251*
X02322Y02251*
X02322Y02252*
X02321Y02252*
X0232*
X0232Y02252*
X02319Y02251*
X02319Y02251*
X02318Y02251*
X02318Y02251*
X02317Y02251*
X02317Y02251*
X02316Y0225*
X02316Y0225*
X02315Y0225*
X02315Y02249*
X02315Y02249*
X02314Y02248*
X02314Y02248*
X02314Y02247*
X02313Y02247*
X02313Y02246*
X02313Y02246*
X02313Y02245*
X02313Y02245*
X02313Y02244*
X02313Y02244*
X02313Y02243*
X02313Y02242*
X02313Y02242*
X02313Y02241*
X02313Y02241*
X02313Y0224*
X02314Y0224*
X02314Y02239*
X02314Y02239*
X02315Y02238*
X02315Y02238*
X02315Y02238*
X02316Y02237*
X02316Y02237*
X02317Y02237*
X02317Y02236*
X02318Y02236*
X02318Y02236*
X02319Y02236*
X02319Y02236*
X0232Y02236*
X0232Y02236*
X02321*
X02322Y02236*
X02322Y02236*
X02323Y02236*
X02323Y02236*
X02324Y02236*
X02324Y02236*
X02325Y02237*
X02325Y02237*
X02326Y02237*
X02326Y02238*
X02327Y02238*
X02327Y02238*
X02327Y02239*
X02328Y02239*
X02328Y0224*
X02328Y0224*
X02328Y02241*
X02328Y02241*
X02329Y02242*
X02329Y02242*
X02329Y02243*
X02329Y02244*
X02846Y04447D02*
D01*
X02846Y04447*
X02846Y04448*
X02846Y04448*
X02846Y04449*
X02846Y04449*
X02846Y0445*
X02846Y0445*
X02845Y04451*
X02845Y04451*
X02845Y04452*
X02844Y04452*
X02844Y04453*
X02843Y04453*
X02843Y04453*
X02842Y04454*
X02842Y04454*
X02841Y04454*
X02841Y04454*
X0284Y04455*
X0284Y04455*
X02839Y04455*
X02839Y04455*
X02838*
X02838Y04455*
X02837Y04455*
X02837Y04455*
X02836Y04454*
X02835Y04454*
X02835Y04454*
X02834Y04454*
X02834Y04453*
X02834Y04453*
X02833Y04453*
X02833Y04452*
X02832Y04452*
X02832Y04451*
X02832Y04451*
X02831Y0445*
X02831Y0445*
X02831Y04449*
X02831Y04449*
X02831Y04448*
X02831Y04448*
X0283Y04447*
X0283Y04447*
X0283Y04446*
X02831Y04446*
X02831Y04445*
X02831Y04445*
X02831Y04444*
X02831Y04443*
X02831Y04443*
X02832Y04443*
X02832Y04442*
X02832Y04442*
X02833Y04441*
X02833Y04441*
X02834Y0444*
X02834Y0444*
X02834Y0444*
X02835Y0444*
X02835Y04439*
X02836Y04439*
X02837Y04439*
X02837Y04439*
X02838Y04439*
X02838Y04439*
X02839*
X02839Y04439*
X0284Y04439*
X0284Y04439*
X02841Y04439*
X02841Y04439*
X02842Y0444*
X02842Y0444*
X02843Y0444*
X02843Y0444*
X02844Y04441*
X02844Y04441*
X02845Y04442*
X02845Y04442*
X02845Y04443*
X02846Y04443*
X02846Y04443*
X02846Y04444*
X02846Y04445*
X02846Y04445*
X02846Y04446*
X02846Y04446*
X02846Y04447*
X03096Y04547D02*
D01*
X03096Y04547*
X03096Y04548*
X03096Y04548*
X03096Y04549*
X03096Y04549*
X03096Y0455*
X03096Y0455*
X03095Y04551*
X03095Y04551*
X03095Y04552*
X03094Y04552*
X03094Y04553*
X03093Y04553*
X03093Y04553*
X03092Y04554*
X03092Y04554*
X03091Y04554*
X03091Y04554*
X0309Y04555*
X0309Y04555*
X03089Y04555*
X03089Y04555*
X03088*
X03088Y04555*
X03087Y04555*
X03087Y04555*
X03086Y04554*
X03085Y04554*
X03085Y04554*
X03084Y04554*
X03084Y04553*
X03084Y04553*
X03083Y04553*
X03083Y04552*
X03082Y04552*
X03082Y04551*
X03082Y04551*
X03081Y0455*
X03081Y0455*
X03081Y04549*
X03081Y04549*
X03081Y04548*
X03081Y04548*
X0308Y04547*
X0308Y04547*
X0308Y04546*
X03081Y04546*
X03081Y04545*
X03081Y04545*
X03081Y04544*
X03081Y04543*
X03081Y04543*
X03082Y04543*
X03082Y04542*
X03082Y04542*
X03083Y04541*
X03083Y04541*
X03084Y0454*
X03084Y0454*
X03084Y0454*
X03085Y0454*
X03085Y04539*
X03086Y04539*
X03087Y04539*
X03087Y04539*
X03088Y04539*
X03088Y04539*
X03089*
X03089Y04539*
X0309Y04539*
X0309Y04539*
X03091Y04539*
X03091Y04539*
X03092Y0454*
X03092Y0454*
X03093Y0454*
X03093Y0454*
X03094Y04541*
X03094Y04541*
X03095Y04542*
X03095Y04542*
X03095Y04543*
X03096Y04543*
X03096Y04543*
X03096Y04544*
X03096Y04545*
X03096Y04545*
X03096Y04546*
X03096Y04546*
X03096Y04547*
X02079Y04447D02*
D01*
X02079Y04447*
X02079Y04448*
X02079Y04448*
X02078Y04449*
X02078Y04449*
X02078Y0445*
X02078Y0445*
X02078Y04451*
X02077Y04451*
X02077Y04452*
X02077Y04452*
X02076Y04453*
X02076Y04453*
X02075Y04453*
X02075Y04454*
X02074Y04454*
X02074Y04454*
X02073Y04454*
X02073Y04455*
X02072Y04455*
X02072Y04455*
X02071Y04455*
X0207*
X0207Y04455*
X02069Y04455*
X02069Y04455*
X02068Y04454*
X02068Y04454*
X02067Y04454*
X02067Y04454*
X02066Y04453*
X02066Y04453*
X02065Y04453*
X02065Y04452*
X02065Y04452*
X02064Y04451*
X02064Y04451*
X02064Y0445*
X02063Y0445*
X02063Y04449*
X02063Y04449*
X02063Y04448*
X02063Y04448*
X02063Y04447*
X02063Y04447*
X02063Y04446*
X02063Y04446*
X02063Y04445*
X02063Y04445*
X02063Y04444*
X02063Y04443*
X02064Y04443*
X02064Y04443*
X02064Y04442*
X02065Y04442*
X02065Y04441*
X02065Y04441*
X02066Y0444*
X02066Y0444*
X02067Y0444*
X02067Y0444*
X02068Y04439*
X02068Y04439*
X02069Y04439*
X02069Y04439*
X0207Y04439*
X0207Y04439*
X02071*
X02072Y04439*
X02072Y04439*
X02073Y04439*
X02073Y04439*
X02074Y04439*
X02074Y0444*
X02075Y0444*
X02075Y0444*
X02076Y0444*
X02076Y04441*
X02077Y04441*
X02077Y04442*
X02077Y04442*
X02078Y04443*
X02078Y04443*
X02078Y04443*
X02078Y04444*
X02078Y04445*
X02079Y04445*
X02079Y04446*
X02079Y04446*
X02079Y04447*
X02329Y04547D02*
D01*
X02329Y04547*
X02329Y04548*
X02329Y04548*
X02328Y04549*
X02328Y04549*
X02328Y0455*
X02328Y0455*
X02328Y04551*
X02327Y04551*
X02327Y04552*
X02327Y04552*
X02326Y04553*
X02326Y04553*
X02325Y04553*
X02325Y04554*
X02324Y04554*
X02324Y04554*
X02323Y04554*
X02323Y04555*
X02322Y04555*
X02322Y04555*
X02321Y04555*
X0232*
X0232Y04555*
X02319Y04555*
X02319Y04555*
X02318Y04554*
X02318Y04554*
X02317Y04554*
X02317Y04554*
X02316Y04553*
X02316Y04553*
X02315Y04553*
X02315Y04552*
X02315Y04552*
X02314Y04551*
X02314Y04551*
X02314Y0455*
X02313Y0455*
X02313Y04549*
X02313Y04549*
X02313Y04548*
X02313Y04548*
X02313Y04547*
X02313Y04547*
X02313Y04546*
X02313Y04546*
X02313Y04545*
X02313Y04545*
X02313Y04544*
X02313Y04543*
X02314Y04543*
X02314Y04543*
X02314Y04542*
X02315Y04542*
X02315Y04541*
X02315Y04541*
X02316Y0454*
X02316Y0454*
X02317Y0454*
X02317Y0454*
X02318Y04539*
X02318Y04539*
X02319Y04539*
X02319Y04539*
X0232Y04539*
X0232Y04539*
X02321*
X02322Y04539*
X02322Y04539*
X02323Y04539*
X02323Y04539*
X02324Y04539*
X02324Y0454*
X02325Y0454*
X02325Y0454*
X02326Y0454*
X02326Y04541*
X02327Y04541*
X02327Y04542*
X02327Y04542*
X02328Y04543*
X02328Y04543*
X02328Y04543*
X02328Y04544*
X02328Y04545*
X02329Y04545*
X02329Y04546*
X02329Y04546*
X02329Y04547*
X01311Y04447D02*
D01*
X01311Y04447*
X01311Y04448*
X01311Y04448*
X01311Y04449*
X01311Y04449*
X0131Y0445*
X0131Y0445*
X0131Y04451*
X0131Y04451*
X01309Y04452*
X01309Y04452*
X01308Y04453*
X01308Y04453*
X01308Y04453*
X01307Y04454*
X01307Y04454*
X01306Y04454*
X01306Y04454*
X01305Y04455*
X01304Y04455*
X01304Y04455*
X01303Y04455*
X01303*
X01302Y04455*
X01302Y04455*
X01301Y04455*
X01301Y04454*
X013Y04454*
X013Y04454*
X01299Y04454*
X01299Y04453*
X01298Y04453*
X01298Y04453*
X01297Y04452*
X01297Y04452*
X01297Y04451*
X01296Y04451*
X01296Y0445*
X01296Y0445*
X01296Y04449*
X01295Y04449*
X01295Y04448*
X01295Y04448*
X01295Y04447*
X01295Y04447*
X01295Y04446*
X01295Y04446*
X01295Y04445*
X01295Y04445*
X01296Y04444*
X01296Y04443*
X01296Y04443*
X01296Y04443*
X01297Y04442*
X01297Y04442*
X01297Y04441*
X01298Y04441*
X01298Y0444*
X01299Y0444*
X01299Y0444*
X013Y0444*
X013Y04439*
X01301Y04439*
X01301Y04439*
X01302Y04439*
X01302Y04439*
X01303Y04439*
X01303*
X01304Y04439*
X01304Y04439*
X01305Y04439*
X01306Y04439*
X01306Y04439*
X01307Y0444*
X01307Y0444*
X01308Y0444*
X01308Y0444*
X01308Y04441*
X01309Y04441*
X01309Y04442*
X0131Y04442*
X0131Y04443*
X0131Y04443*
X0131Y04443*
X01311Y04444*
X01311Y04445*
X01311Y04445*
X01311Y04446*
X01311Y04446*
X01311Y04447*
X01561Y04547D02*
D01*
X01561Y04547*
X01561Y04548*
X01561Y04548*
X01561Y04549*
X01561Y04549*
X0156Y0455*
X0156Y0455*
X0156Y04551*
X0156Y04551*
X01559Y04552*
X01559Y04552*
X01558Y04553*
X01558Y04553*
X01558Y04553*
X01557Y04554*
X01557Y04554*
X01556Y04554*
X01556Y04554*
X01555Y04555*
X01554Y04555*
X01554Y04555*
X01553Y04555*
X01553*
X01552Y04555*
X01552Y04555*
X01551Y04555*
X01551Y04554*
X0155Y04554*
X0155Y04554*
X01549Y04554*
X01549Y04553*
X01548Y04553*
X01548Y04553*
X01547Y04552*
X01547Y04552*
X01547Y04551*
X01546Y04551*
X01546Y0455*
X01546Y0455*
X01546Y04549*
X01545Y04549*
X01545Y04548*
X01545Y04548*
X01545Y04547*
X01545Y04547*
X01545Y04546*
X01545Y04546*
X01545Y04545*
X01545Y04545*
X01546Y04544*
X01546Y04543*
X01546Y04543*
X01546Y04543*
X01547Y04542*
X01547Y04542*
X01547Y04541*
X01548Y04541*
X01548Y0454*
X01549Y0454*
X01549Y0454*
X0155Y0454*
X0155Y04539*
X01551Y04539*
X01551Y04539*
X01552Y04539*
X01552Y04539*
X01553Y04539*
X01553*
X01554Y04539*
X01554Y04539*
X01555Y04539*
X01556Y04539*
X01556Y04539*
X01557Y0454*
X01557Y0454*
X01558Y0454*
X01558Y0454*
X01558Y04541*
X01559Y04541*
X01559Y04542*
X0156Y04542*
X0156Y04543*
X0156Y04543*
X0156Y04543*
X01561Y04544*
X01561Y04545*
X01561Y04545*
X01561Y04546*
X01561Y04546*
X01561Y04547*
X02846Y03339D02*
D01*
X02846Y0334*
X02846Y03341*
X02846Y03341*
X02846Y03342*
X02846Y03342*
X02846Y03343*
X02846Y03343*
X02845Y03344*
X02845Y03344*
X02845Y03345*
X02844Y03345*
X02844Y03345*
X02843Y03346*
X02843Y03346*
X02842Y03346*
X02842Y03347*
X02841Y03347*
X02841Y03347*
X0284Y03347*
X0284Y03347*
X02839Y03347*
X02839Y03347*
X02838*
X02838Y03347*
X02837Y03347*
X02837Y03347*
X02836Y03347*
X02835Y03347*
X02835Y03347*
X02834Y03346*
X02834Y03346*
X02834Y03346*
X02833Y03345*
X02833Y03345*
X02832Y03345*
X02832Y03344*
X02832Y03344*
X02831Y03343*
X02831Y03343*
X02831Y03342*
X02831Y03342*
X02831Y03341*
X02831Y03341*
X0283Y0334*
X0283Y03339*
X0283Y03339*
X02831Y03338*
X02831Y03338*
X02831Y03337*
X02831Y03337*
X02831Y03336*
X02831Y03336*
X02832Y03335*
X02832Y03335*
X02832Y03334*
X02833Y03334*
X02833Y03334*
X02834Y03333*
X02834Y03333*
X02834Y03333*
X02835Y03332*
X02835Y03332*
X02836Y03332*
X02837Y03332*
X02837Y03332*
X02838Y03332*
X02838Y03331*
X02839*
X02839Y03332*
X0284Y03332*
X0284Y03332*
X02841Y03332*
X02841Y03332*
X02842Y03332*
X02842Y03333*
X02843Y03333*
X02843Y03333*
X02844Y03334*
X02844Y03334*
X02845Y03334*
X02845Y03335*
X02845Y03335*
X02846Y03336*
X02846Y03336*
X02846Y03337*
X02846Y03337*
X02846Y03338*
X02846Y03338*
X02846Y03339*
X02846Y03339*
X03096Y03439D02*
D01*
X03096Y0344*
X03096Y03441*
X03096Y03441*
X03096Y03442*
X03096Y03442*
X03096Y03443*
X03096Y03443*
X03095Y03444*
X03095Y03444*
X03095Y03445*
X03094Y03445*
X03094Y03445*
X03093Y03446*
X03093Y03446*
X03092Y03446*
X03092Y03447*
X03091Y03447*
X03091Y03447*
X0309Y03447*
X0309Y03447*
X03089Y03447*
X03089Y03447*
X03088*
X03088Y03447*
X03087Y03447*
X03087Y03447*
X03086Y03447*
X03085Y03447*
X03085Y03447*
X03084Y03446*
X03084Y03446*
X03084Y03446*
X03083Y03445*
X03083Y03445*
X03082Y03445*
X03082Y03444*
X03082Y03444*
X03081Y03443*
X03081Y03443*
X03081Y03442*
X03081Y03442*
X03081Y03441*
X03081Y03441*
X0308Y0344*
X0308Y03439*
X0308Y03439*
X03081Y03438*
X03081Y03438*
X03081Y03437*
X03081Y03437*
X03081Y03436*
X03081Y03436*
X03082Y03435*
X03082Y03435*
X03082Y03434*
X03083Y03434*
X03083Y03434*
X03084Y03433*
X03084Y03433*
X03084Y03433*
X03085Y03432*
X03085Y03432*
X03086Y03432*
X03087Y03432*
X03087Y03432*
X03088Y03432*
X03088Y03431*
X03089*
X03089Y03432*
X0309Y03432*
X0309Y03432*
X03091Y03432*
X03091Y03432*
X03092Y03432*
X03092Y03433*
X03093Y03433*
X03093Y03433*
X03094Y03434*
X03094Y03434*
X03095Y03434*
X03095Y03435*
X03095Y03435*
X03096Y03436*
X03096Y03436*
X03096Y03437*
X03096Y03437*
X03096Y03438*
X03096Y03438*
X03096Y03439*
X03096Y03439*
X02079Y03679D02*
D01*
X02079Y0368*
X02079Y0368*
X02079Y03681*
X02078Y03681*
X02078Y03682*
X02078Y03682*
X02078Y03683*
X02078Y03683*
X02077Y03684*
X02077Y03684*
X02077Y03685*
X02076Y03685*
X02076Y03685*
X02075Y03686*
X02075Y03686*
X02074Y03686*
X02074Y03686*
X02073Y03687*
X02073Y03687*
X02072Y03687*
X02072Y03687*
X02071Y03687*
X0207*
X0207Y03687*
X02069Y03687*
X02069Y03687*
X02068Y03687*
X02068Y03686*
X02067Y03686*
X02067Y03686*
X02066Y03686*
X02066Y03685*
X02065Y03685*
X02065Y03685*
X02065Y03684*
X02064Y03684*
X02064Y03683*
X02064Y03683*
X02063Y03682*
X02063Y03682*
X02063Y03681*
X02063Y03681*
X02063Y0368*
X02063Y0368*
X02063Y03679*
X02063Y03678*
X02063Y03678*
X02063Y03677*
X02063Y03677*
X02063Y03676*
X02063Y03676*
X02064Y03675*
X02064Y03675*
X02064Y03674*
X02065Y03674*
X02065Y03673*
X02065Y03673*
X02066Y03673*
X02066Y03672*
X02067Y03672*
X02067Y03672*
X02068Y03672*
X02068Y03671*
X02069Y03671*
X02069Y03671*
X0207Y03671*
X0207Y03671*
X02071*
X02072Y03671*
X02072Y03671*
X02073Y03671*
X02073Y03671*
X02074Y03672*
X02074Y03672*
X02075Y03672*
X02075Y03672*
X02076Y03673*
X02076Y03673*
X02077Y03673*
X02077Y03674*
X02077Y03674*
X02078Y03675*
X02078Y03675*
X02078Y03676*
X02078Y03676*
X02078Y03677*
X02079Y03677*
X02079Y03678*
X02079Y03678*
X02079Y03679*
X02329Y03779D02*
D01*
X02329Y0378*
X02329Y0378*
X02329Y03781*
X02328Y03781*
X02328Y03782*
X02328Y03782*
X02328Y03783*
X02328Y03783*
X02327Y03784*
X02327Y03784*
X02327Y03785*
X02326Y03785*
X02326Y03785*
X02325Y03786*
X02325Y03786*
X02324Y03786*
X02324Y03786*
X02323Y03787*
X02323Y03787*
X02322Y03787*
X02322Y03787*
X02321Y03787*
X0232*
X0232Y03787*
X02319Y03787*
X02319Y03787*
X02318Y03787*
X02318Y03786*
X02317Y03786*
X02317Y03786*
X02316Y03786*
X02316Y03785*
X02315Y03785*
X02315Y03785*
X02315Y03784*
X02314Y03784*
X02314Y03783*
X02314Y03783*
X02313Y03782*
X02313Y03782*
X02313Y03781*
X02313Y03781*
X02313Y0378*
X02313Y0378*
X02313Y03779*
X02313Y03778*
X02313Y03778*
X02313Y03777*
X02313Y03777*
X02313Y03776*
X02313Y03776*
X02314Y03775*
X02314Y03775*
X02314Y03774*
X02315Y03774*
X02315Y03773*
X02315Y03773*
X02316Y03773*
X02316Y03772*
X02317Y03772*
X02317Y03772*
X02318Y03772*
X02318Y03771*
X02319Y03771*
X02319Y03771*
X0232Y03771*
X0232Y03771*
X02321*
X02322Y03771*
X02322Y03771*
X02323Y03771*
X02323Y03771*
X02324Y03772*
X02324Y03772*
X02325Y03772*
X02325Y03772*
X02326Y03773*
X02326Y03773*
X02327Y03773*
X02327Y03774*
X02327Y03774*
X02328Y03775*
X02328Y03775*
X02328Y03776*
X02328Y03776*
X02328Y03777*
X02329Y03777*
X02329Y03778*
X02329Y03778*
X02329Y03779*
X02846Y0176D02*
D01*
X02846Y0176*
X02846Y01761*
X02846Y01761*
X02846Y01762*
X02846Y01762*
X02846Y01763*
X02846Y01763*
X02845Y01764*
X02845Y01764*
X02845Y01765*
X02844Y01765*
X02844Y01766*
X02843Y01766*
X02843Y01766*
X02842Y01767*
X02842Y01767*
X02841Y01767*
X02841Y01767*
X0284Y01767*
X0284Y01768*
X02839Y01768*
X02839Y01768*
X02838*
X02838Y01768*
X02837Y01768*
X02837Y01767*
X02836Y01767*
X02835Y01767*
X02835Y01767*
X02834Y01767*
X02834Y01766*
X02834Y01766*
X02833Y01766*
X02833Y01765*
X02832Y01765*
X02832Y01764*
X02832Y01764*
X02831Y01763*
X02831Y01763*
X02831Y01762*
X02831Y01762*
X02831Y01761*
X02831Y01761*
X0283Y0176*
X0283Y0176*
X0283Y01759*
X02831Y01759*
X02831Y01758*
X02831Y01758*
X02831Y01757*
X02831Y01756*
X02831Y01756*
X02832Y01755*
X02832Y01755*
X02832Y01755*
X02833Y01754*
X02833Y01754*
X02834Y01753*
X02834Y01753*
X02834Y01753*
X02835Y01753*
X02835Y01752*
X02836Y01752*
X02837Y01752*
X02837Y01752*
X02838Y01752*
X02838Y01752*
X02839*
X02839Y01752*
X0284Y01752*
X0284Y01752*
X02841Y01752*
X02841Y01752*
X02842Y01753*
X02842Y01753*
X02843Y01753*
X02843Y01753*
X02844Y01754*
X02844Y01754*
X02845Y01755*
X02845Y01755*
X02845Y01755*
X02846Y01756*
X02846Y01756*
X02846Y01757*
X02846Y01758*
X02846Y01758*
X02846Y01759*
X02846Y01759*
X02846Y0176*
X03096Y0186D02*
D01*
X03096Y0186*
X03096Y01861*
X03096Y01861*
X03096Y01862*
X03096Y01862*
X03096Y01863*
X03096Y01863*
X03095Y01864*
X03095Y01864*
X03095Y01865*
X03094Y01865*
X03094Y01866*
X03093Y01866*
X03093Y01866*
X03092Y01867*
X03092Y01867*
X03091Y01867*
X03091Y01867*
X0309Y01867*
X0309Y01868*
X03089Y01868*
X03089Y01868*
X03088*
X03088Y01868*
X03087Y01868*
X03087Y01867*
X03086Y01867*
X03085Y01867*
X03085Y01867*
X03084Y01867*
X03084Y01866*
X03084Y01866*
X03083Y01866*
X03083Y01865*
X03082Y01865*
X03082Y01864*
X03082Y01864*
X03081Y01863*
X03081Y01863*
X03081Y01862*
X03081Y01862*
X03081Y01861*
X03081Y01861*
X0308Y0186*
X0308Y0186*
X0308Y01859*
X03081Y01859*
X03081Y01858*
X03081Y01858*
X03081Y01857*
X03081Y01856*
X03081Y01856*
X03082Y01855*
X03082Y01855*
X03082Y01855*
X03083Y01854*
X03083Y01854*
X03084Y01853*
X03084Y01853*
X03084Y01853*
X03085Y01853*
X03085Y01852*
X03086Y01852*
X03087Y01852*
X03087Y01852*
X03088Y01852*
X03088Y01852*
X03089*
X03089Y01852*
X0309Y01852*
X0309Y01852*
X03091Y01852*
X03091Y01852*
X03092Y01853*
X03092Y01853*
X03093Y01853*
X03093Y01853*
X03094Y01854*
X03094Y01854*
X03095Y01855*
X03095Y01855*
X03095Y01855*
X03096Y01856*
X03096Y01856*
X03096Y01857*
X03096Y01858*
X03096Y01858*
X03096Y01859*
X03096Y01859*
X03096Y0186*
X00927Y01376D02*
D01*
X00927Y01376*
X00927Y01377*
X00927Y01378*
X00927Y01378*
X00927Y01379*
X00926Y01379*
X00926Y0138*
X00926Y0138*
X00926Y01381*
X00925Y01381*
X00925Y01381*
X00925Y01382*
X00924Y01382*
X00924Y01383*
X00923Y01383*
X00923Y01383*
X00922Y01383*
X00922Y01383*
X00921Y01384*
X00921Y01384*
X0092Y01384*
X00919Y01384*
X00919*
X00918Y01384*
X00918Y01384*
X00917Y01384*
X00917Y01383*
X00916Y01383*
X00916Y01383*
X00915Y01383*
X00915Y01383*
X00914Y01382*
X00914Y01382*
X00913Y01381*
X00913Y01381*
X00913Y01381*
X00912Y0138*
X00912Y0138*
X00912Y01379*
X00912Y01379*
X00911Y01378*
X00911Y01378*
X00911Y01377*
X00911Y01376*
X00911Y01376*
X00911Y01375*
X00911Y01375*
X00911Y01374*
X00911Y01374*
X00912Y01373*
X00912Y01373*
X00912Y01372*
X00912Y01372*
X00913Y01371*
X00913Y01371*
X00913Y0137*
X00914Y0137*
X00914Y0137*
X00915Y01369*
X00915Y01369*
X00916Y01369*
X00916Y01368*
X00917Y01368*
X00917Y01368*
X00918Y01368*
X00918Y01368*
X00919Y01368*
X00919*
X0092Y01368*
X00921Y01368*
X00921Y01368*
X00922Y01368*
X00922Y01368*
X00923Y01369*
X00923Y01369*
X00924Y01369*
X00924Y0137*
X00925Y0137*
X00925Y0137*
X00925Y01371*
X00926Y01371*
X00926Y01372*
X00926Y01372*
X00926Y01373*
X00927Y01373*
X00927Y01374*
X00927Y01374*
X00927Y01375*
X00927Y01375*
X00927Y01376*
X01177Y01476D02*
D01*
X01177Y01476*
X01177Y01477*
X01177Y01478*
X01177Y01478*
X01177Y01479*
X01176Y01479*
X01176Y0148*
X01176Y0148*
X01176Y01481*
X01175Y01481*
X01175Y01481*
X01175Y01482*
X01174Y01482*
X01174Y01483*
X01173Y01483*
X01173Y01483*
X01172Y01483*
X01172Y01483*
X01171Y01484*
X01171Y01484*
X0117Y01484*
X01169Y01484*
X01169*
X01168Y01484*
X01168Y01484*
X01167Y01484*
X01167Y01483*
X01166Y01483*
X01166Y01483*
X01165Y01483*
X01165Y01483*
X01164Y01482*
X01164Y01482*
X01163Y01481*
X01163Y01481*
X01163Y01481*
X01162Y0148*
X01162Y0148*
X01162Y01479*
X01162Y01479*
X01161Y01478*
X01161Y01478*
X01161Y01477*
X01161Y01476*
X01161Y01476*
X01161Y01475*
X01161Y01475*
X01161Y01474*
X01161Y01474*
X01162Y01473*
X01162Y01473*
X01162Y01472*
X01162Y01472*
X01163Y01471*
X01163Y01471*
X01163Y0147*
X01164Y0147*
X01164Y0147*
X01165Y01469*
X01165Y01469*
X01166Y01469*
X01166Y01468*
X01167Y01468*
X01167Y01468*
X01168Y01468*
X01168Y01468*
X01169Y01468*
X01169*
X0117Y01468*
X01171Y01468*
X01171Y01468*
X01172Y01468*
X01172Y01468*
X01173Y01469*
X01173Y01469*
X01174Y01469*
X01174Y0147*
X01175Y0147*
X01175Y0147*
X01175Y01471*
X01176Y01471*
X01176Y01472*
X01176Y01472*
X01176Y01473*
X01177Y01473*
X01177Y01474*
X01177Y01474*
X01177Y01475*
X01177Y01475*
X01177Y01476*
G54D49*
X04244Y04555D02*
D01*
X04244Y04555*
X04244Y04555*
X04244Y04555*
X04244Y04556*
X04243Y04556*
X04243Y04556*
X04243Y04556*
X04243Y04557*
X04243Y04557*
X04243Y04557*
X04243Y04557*
X04242Y04558*
X04242Y04558*
X04242Y04558*
X04242Y04558*
X04241Y04558*
X04241Y04558*
X04241Y04558*
X04241Y04558*
X0424Y04559*
X0424Y04559*
X0424Y04559*
X0424*
X04239Y04559*
X04239Y04559*
X04239Y04558*
X04238Y04558*
X04238Y04558*
X04238Y04558*
X04238Y04558*
X04237Y04558*
X04237Y04558*
X04237Y04558*
X04237Y04557*
X04237Y04557*
X04236Y04557*
X04236Y04557*
X04236Y04556*
X04236Y04556*
X04236Y04556*
X04236Y04556*
X04236Y04555*
X04236Y04555*
X04236Y04555*
X04236Y04555*
X04236Y04554*
X04236Y04554*
X04236Y04554*
X04236Y04554*
X04236Y04553*
X04236Y04553*
X04236Y04553*
X04236Y04552*
X04236Y04552*
X04237Y04552*
X04237Y04552*
X04237Y04552*
X04237Y04551*
X04237Y04551*
X04238Y04551*
X04238Y04551*
X04238Y04551*
X04238Y04551*
X04239Y04551*
X04239Y04551*
X04239Y04551*
X0424Y04551*
X0424*
X0424Y04551*
X0424Y04551*
X04241Y04551*
X04241Y04551*
X04241Y04551*
X04241Y04551*
X04242Y04551*
X04242Y04551*
X04242Y04551*
X04242Y04552*
X04243Y04552*
X04243Y04552*
X04243Y04552*
X04243Y04552*
X04243Y04553*
X04243Y04553*
X04243Y04553*
X04244Y04554*
X04244Y04554*
X04244Y04554*
X04244Y04554*
X04244Y04555*
X04144D02*
D01*
X04144Y04555*
X04144Y04555*
X04144Y04555*
X04144Y04556*
X04143Y04556*
X04143Y04556*
X04143Y04556*
X04143Y04557*
X04143Y04557*
X04143Y04557*
X04143Y04557*
X04142Y04558*
X04142Y04558*
X04142Y04558*
X04142Y04558*
X04141Y04558*
X04141Y04558*
X04141Y04558*
X04141Y04558*
X0414Y04559*
X0414Y04559*
X0414Y04559*
X0414*
X04139Y04559*
X04139Y04559*
X04139Y04558*
X04138Y04558*
X04138Y04558*
X04138Y04558*
X04138Y04558*
X04137Y04558*
X04137Y04558*
X04137Y04558*
X04137Y04557*
X04137Y04557*
X04136Y04557*
X04136Y04557*
X04136Y04556*
X04136Y04556*
X04136Y04556*
X04136Y04556*
X04136Y04555*
X04136Y04555*
X04136Y04555*
X04136Y04555*
X04136Y04554*
X04136Y04554*
X04136Y04554*
X04136Y04554*
X04136Y04553*
X04136Y04553*
X04136Y04553*
X04136Y04552*
X04136Y04552*
X04137Y04552*
X04137Y04552*
X04137Y04552*
X04137Y04551*
X04137Y04551*
X04138Y04551*
X04138Y04551*
X04138Y04551*
X04138Y04551*
X04139Y04551*
X04139Y04551*
X04139Y04551*
X0414Y04551*
X0414*
X0414Y04551*
X0414Y04551*
X04141Y04551*
X04141Y04551*
X04141Y04551*
X04141Y04551*
X04142Y04551*
X04142Y04551*
X04142Y04551*
X04142Y04552*
X04143Y04552*
X04143Y04552*
X04143Y04552*
X04143Y04552*
X04143Y04553*
X04143Y04553*
X04143Y04553*
X04144Y04554*
X04144Y04554*
X04144Y04554*
X04144Y04554*
X04144Y04555*
M02*