%FSTAX23Y23*%
%MOIN*%
%SFA1B1*%

%IPPOS*%
%ADD47C,0.002000*%
%LNpcb1-1*%
%LPD*%
G54D47*
X0472Y00984D02*
X04799D01*
X04759Y00944D02*
Y01023D01*
X00358Y0494D02*
X00437D01*
X00397Y04901D02*
Y0498D01*
X04724Y04944D02*
X04803D01*
X04763Y04905D02*
Y04984D01*
X02515Y04781D02*
X0255D01*
X02533Y04764D02*
Y04799D01*
X02415Y04781D02*
X0245D01*
X02433Y04764D02*
Y04799D01*
X02315Y04781D02*
X0235D01*
X02333Y04764D02*
Y04799D01*
X0162Y03579D02*
X01687D01*
X01653Y03546D02*
Y03613D01*
X0122Y03579D02*
X01287D01*
X01253Y03546D02*
Y03613D01*
X01375Y03579D02*
X01532D01*
X01453Y03501D02*
Y03658D01*
X01524Y03779D02*
X01583D01*
X01553Y0375D02*
Y03809D01*
X01274Y03679D02*
X01333D01*
X01303Y0365D02*
Y03709D01*
X02387Y02811D02*
X02454D01*
X02421Y02778D02*
Y02845D01*
X01987Y02811D02*
X02054D01*
X02021Y02778D02*
Y02845D01*
X02142Y02811D02*
X02299D01*
X02221Y02733D02*
Y0289D01*
X02291Y03011D02*
X0235D01*
X02321Y02982D02*
Y03041D01*
X02041Y02911D02*
X021D01*
X02071Y02882D02*
Y02941D01*
X02387Y01276D02*
X02454D01*
X02421Y01242D02*
Y01309D01*
X01987Y01276D02*
X02054D01*
X02021Y01242D02*
Y01309D01*
X02142Y01276D02*
X02299D01*
X02221Y01197D02*
Y01354D01*
X02291Y01476D02*
X0235D01*
X02321Y01446D02*
Y01505D01*
X02041Y01376D02*
X021D01*
X02071Y01346D02*
Y01405D01*
X0162Y02044D02*
X01687D01*
X01653Y0201D02*
Y02077D01*
X0122Y02044D02*
X01287D01*
X01253Y0201D02*
Y02077D01*
X01375Y02044D02*
X01532D01*
X01453Y01965D02*
Y02122D01*
X01524Y02244D02*
X01583D01*
X01553Y02214D02*
Y02273D01*
X01274Y02144D02*
X01333D01*
X01303Y02114D02*
Y02173D01*
X00852Y02811D02*
X00919D01*
X00885Y02778D02*
Y02845D01*
X00452Y02811D02*
X00519D01*
X00485Y02778D02*
Y02845D01*
X00607Y02811D02*
X00764D01*
X00685Y02733D02*
Y0289D01*
X00756Y03011D02*
X00815D01*
X00785Y02982D02*
Y03041D01*
X00506Y02911D02*
X00565D01*
X00535Y02882D02*
Y02941D01*
X00852Y03579D02*
X00919D01*
X00885Y03546D02*
Y03613D01*
X00452Y03579D02*
X00519D01*
X00485Y03546D02*
Y03613D01*
X00607Y03579D02*
X00764D01*
X00685Y03501D02*
Y03658D01*
X00756Y03779D02*
X00815D01*
X00785Y0375D02*
Y03809D01*
X00506Y03679D02*
X00565D01*
X00535Y0365D02*
Y03709D01*
X00852Y04347D02*
X00919D01*
X00885Y04313D02*
Y0438D01*
X00452Y04347D02*
X00519D01*
X00485Y04313D02*
Y0438D01*
X00607Y04347D02*
X00764D01*
X00685Y04268D02*
Y04425D01*
X00756Y04547D02*
X00815D01*
X00785Y04517D02*
Y04576D01*
X00506Y04447D02*
X00565D01*
X00535Y04417D02*
Y04476D01*
X00852Y02044D02*
X00919D01*
X00885Y0201D02*
Y02077D01*
X00452Y02044D02*
X00519D01*
X00485Y0201D02*
Y02077D01*
X00607Y02044D02*
X00764D01*
X00685Y01965D02*
Y02122D01*
X00756Y02244D02*
X00815D01*
X00785Y02214D02*
Y02273D01*
X00506Y02144D02*
X00565D01*
X00535Y02114D02*
Y02173D01*
X02204Y04866D02*
X02237D01*
X0222Y04849D02*
Y04882D01*
X01904Y04866D02*
X01937D01*
X0192Y04849D02*
Y04882D01*
X01657Y04767D02*
X01696D01*
X01677Y04748D02*
Y04787D01*
X01657Y04867D02*
X01696D01*
X01677Y04848D02*
Y04887D01*
X0162Y02811D02*
X01687D01*
X01653Y02778D02*
Y02845D01*
X0122Y02811D02*
X01287D01*
X01253Y02778D02*
Y02845D01*
X01375Y02811D02*
X01532D01*
X01453Y02733D02*
Y0289D01*
X01524Y03011D02*
X01583D01*
X01553Y02982D02*
Y03041D01*
X01274Y02911D02*
X01333D01*
X01303Y02882D02*
Y02941D01*
X00358Y00992D02*
X00437D01*
X00397Y00952D02*
Y01031D01*
X04102Y02696D02*
X04173D01*
X04137Y02661D02*
Y02732D01*
X04102Y02854D02*
X04173D01*
X04137Y02818D02*
Y02889D01*
X04102Y03011D02*
X04173D01*
X04137Y02976D02*
Y03047D01*
X03943Y03011D02*
X04014D01*
X03978Y02976D02*
Y03047D01*
X03943Y02854D02*
X04014D01*
X03978Y02818D02*
Y02889D01*
X03943Y02696D02*
X04014D01*
X03978Y02661D02*
Y02732D01*
X03943Y02224D02*
X04014D01*
X03978Y02188D02*
Y02259D01*
X0385Y03169D02*
X03897D01*
X03873Y03145D02*
Y03192D01*
X0385Y02066D02*
X03897D01*
X03873Y02043D02*
Y0209D01*
X04219Y02066D02*
X04266D01*
X04242Y02043D02*
Y0209D01*
X03943Y02381D02*
X04014D01*
X03978Y02346D02*
Y02416D01*
X04102Y02381D02*
X04173D01*
X04137Y02346D02*
Y02416D01*
X04102Y02224D02*
X04173D01*
X04137Y02188D02*
Y02259D01*
X04219Y03169D02*
X04266D01*
X04242Y03145D02*
Y03192D01*
X04221Y04555D02*
X04258D01*
X0424Y04536D02*
Y04573D01*
X04121Y04555D02*
X04158D01*
X0414Y04536D02*
Y04573D01*
X04719Y01759D02*
X04752D01*
X04736Y01743D02*
Y01776D01*
X04719Y01459D02*
X04752D01*
X04736Y01443D02*
Y01476D01*
X04566Y02564D02*
X04606D01*
X04586Y02544D02*
Y02584D01*
X04566Y02464D02*
X04606D01*
X04586Y02444D02*
Y02484D01*
X04566Y02364D02*
X04606D01*
X04586Y02344D02*
Y02384D01*
X04566Y02264D02*
X04606D01*
X04586Y02244D02*
Y02284D01*
X04566Y02164D02*
X04606D01*
X04586Y02144D02*
Y02184D01*
X04566Y02064D02*
X04606D01*
X04586Y02044D02*
Y02084D01*
X04566Y01964D02*
X04606D01*
X04586Y01944D02*
Y01984D01*
X04566Y01864D02*
X04606D01*
X04586Y01844D02*
Y01884D01*
X04566Y01764D02*
X04606D01*
X04586Y01744D02*
Y01784D01*
X04566Y01664D02*
X04606D01*
X04586Y01644D02*
Y01684D01*
X04566Y01564D02*
X04606D01*
X04586Y01544D02*
Y01584D01*
X04566Y01464D02*
X04606D01*
X04586Y01444D02*
Y01484D01*
X04566Y01364D02*
X04606D01*
X04586Y01344D02*
Y01384D01*
X04566Y01264D02*
X04606D01*
X04586Y01244D02*
Y01284D01*
X04566Y01164D02*
X04606D01*
X04586Y01144D02*
Y01184D01*
X03566Y02564D02*
X03606D01*
X03586Y02544D02*
Y02584D01*
X03566Y02464D02*
X03606D01*
X03586Y02444D02*
Y02484D01*
X03566Y02364D02*
X03606D01*
X03586Y02344D02*
Y02384D01*
X03566Y02264D02*
X03606D01*
X03586Y02244D02*
Y02284D01*
X03566Y02164D02*
X03606D01*
X03586Y02144D02*
Y02184D01*
X03566Y02064D02*
X03606D01*
X03586Y02044D02*
Y02084D01*
X03566Y01964D02*
X03606D01*
X03586Y01944D02*
Y01984D01*
X03566Y01864D02*
X03606D01*
X03586Y01844D02*
Y01884D01*
X03566Y01764D02*
X03606D01*
X03586Y01744D02*
Y01784D01*
X03566Y01664D02*
X03606D01*
X03586Y01644D02*
Y01684D01*
X03566Y01564D02*
X03606D01*
X03586Y01544D02*
Y01584D01*
X03566Y01464D02*
X03606D01*
X03586Y01444D02*
Y01484D01*
X03566Y01364D02*
X03606D01*
X03586Y01344D02*
Y01384D01*
X03566Y01264D02*
X03606D01*
X03586Y01244D02*
Y01284D01*
X03566Y01164D02*
X03606D01*
X03586Y01144D02*
Y01184D01*
X02572Y01147D02*
X02608D01*
X0259Y01129D02*
Y01165D01*
X02572Y01427D02*
X02608D01*
X0259Y01409D02*
Y01444D01*
X0258Y01852D02*
X02616D01*
X02598Y01834D02*
Y0187D01*
X0258Y02131D02*
X02616D01*
X02598Y02114D02*
Y02149D01*
X02041Y02144D02*
X021D01*
X02071Y02114D02*
Y02173D01*
X02291Y02244D02*
X0235D01*
X02321Y02214D02*
Y02273D01*
X02142Y02044D02*
X02299D01*
X02221Y01965D02*
Y02122D01*
X01987Y02044D02*
X02054D01*
X02021Y0201D02*
Y02077D01*
X02387Y02044D02*
X02454D01*
X02421Y0201D02*
Y02077D01*
X03344Y01568D02*
X03379D01*
X03362Y01551D02*
Y01586D01*
X03344Y01848D02*
X03379D01*
X03362Y0183D02*
Y01866D01*
X03344Y03096D02*
X03379D01*
X03362Y03078D02*
Y03114D01*
X03344Y03375D02*
X03379D01*
X03362Y03358D02*
Y03393D01*
X03348Y04261D02*
X03383D01*
X03366Y04244D02*
Y04279D01*
X03348Y04541D02*
X03383D01*
X03366Y04523D02*
Y04559D01*
X02592Y04293D02*
X02627D01*
X0261Y04275D02*
Y04311D01*
X02592Y04572D02*
X02627D01*
X0261Y04555D02*
Y0459D01*
X01809Y04269D02*
X01844D01*
X01826Y04251D02*
Y04287D01*
X01809Y04549D02*
X01844D01*
X01826Y04531D02*
Y04566D01*
X01064Y04269D02*
X011D01*
X01082Y04251D02*
Y04287D01*
X01064Y04549D02*
X011D01*
X01082Y04531D02*
Y04566D01*
X0258Y03411D02*
X02616D01*
X02598Y03393D02*
Y03429D01*
X0258Y0369D02*
X02616D01*
X02598Y03673D02*
Y03708D01*
X01809Y03423D02*
X01844D01*
X01826Y03405D02*
Y0344D01*
X01809Y03702D02*
X01844D01*
X01826Y03685D02*
Y0372D01*
X01061Y03411D02*
X01096D01*
X01078Y03393D02*
Y03429D01*
X01061Y0369D02*
X01096D01*
X01078Y03673D02*
Y03708D01*
X01045Y02714D02*
X0108D01*
X01062Y02696D02*
Y02732D01*
X01045Y02994D02*
X0108D01*
X01062Y02976D02*
Y03011D01*
X01809Y02706D02*
X01844D01*
X01826Y02688D02*
Y02724D01*
X01809Y02986D02*
X01844D01*
X01826Y02968D02*
Y03003D01*
X02588Y02722D02*
X02624D01*
X02606Y02704D02*
Y0274D01*
X02588Y03001D02*
X02624D01*
X02606Y02984D02*
Y03019D01*
X01427Y01163D02*
X01462D01*
X01444Y01145D02*
Y01181D01*
X01427Y01442D02*
X01462D01*
X01444Y01425D02*
Y0146D01*
X01809Y01883D02*
X01844D01*
X01826Y01866D02*
Y01901D01*
X01809Y02163D02*
X01844D01*
X01826Y02145D02*
Y02181D01*
X01045Y01852D02*
X0108D01*
X01062Y01834D02*
Y0187D01*
X01045Y02131D02*
X0108D01*
X01062Y02114D02*
Y02149D01*
X03379Y01318D02*
X03415D01*
X03397Y013D02*
Y01335D01*
X03379Y01218D02*
X03415D01*
X03397Y012D02*
Y01235D01*
X03379Y01118D02*
X03415D01*
X03397Y011D02*
Y01135D01*
X03379Y01018D02*
X03415D01*
X03397Y01D02*
Y01035D01*
X03899Y04117D02*
X03935D01*
X03917Y04099D02*
Y04135D01*
X03899Y04017D02*
X03935D01*
X03917Y03999D02*
Y04035D01*
X03899Y03917D02*
X03935D01*
X03917Y03899D02*
Y03935D01*
X03899Y03817D02*
X03935D01*
X03917Y03799D02*
Y03835D01*
X03899Y03717D02*
X03935D01*
X03917Y03699D02*
Y03735D01*
X03896Y01866D02*
X0393D01*
X03913Y01849D02*
Y01883D01*
X03896Y01566D02*
X0393D01*
X03913Y01549D02*
Y01583D01*
X02809Y04447D02*
X02868D01*
X02838Y04417D02*
Y04476D01*
X03059Y04547D02*
X03118D01*
X03088Y04517D02*
Y04576D01*
X0291Y04347D02*
X03067D01*
X02988Y04268D02*
Y04425D01*
X02755Y04347D02*
X02822D01*
X02788Y04313D02*
Y0438D01*
X03155Y04347D02*
X03222D01*
X03188Y04313D02*
Y0438D01*
X02041Y04447D02*
X021D01*
X02071Y04417D02*
Y04476D01*
X02291Y04547D02*
X0235D01*
X02321Y04517D02*
Y04576D01*
X02142Y04347D02*
X02299D01*
X02221Y04268D02*
Y04425D01*
X01987Y04347D02*
X02054D01*
X02021Y04313D02*
Y0438D01*
X02387Y04347D02*
X02454D01*
X02421Y04313D02*
Y0438D01*
X01274Y04447D02*
X01333D01*
X01303Y04417D02*
Y04476D01*
X01524Y04547D02*
X01583D01*
X01553Y04517D02*
Y04576D01*
X01375Y04347D02*
X01532D01*
X01453Y04268D02*
Y04425D01*
X0122Y04347D02*
X01287D01*
X01253Y04313D02*
Y0438D01*
X0162Y04347D02*
X01687D01*
X01653Y04313D02*
Y0438D01*
X03896Y01409D02*
X0393D01*
X03913Y01393D02*
Y01426D01*
X03896Y01109D02*
X0393D01*
X03913Y01093D02*
Y01126D01*
X02809Y03339D02*
X02868D01*
X02838Y0331D02*
Y03369D01*
X03059Y03439D02*
X03118D01*
X03088Y0341D02*
Y03469D01*
X0291Y03239D02*
X03067D01*
X02988Y03161D02*
Y03318D01*
X02755Y03239D02*
X02822D01*
X02788Y03206D02*
Y03273D01*
X03155Y03239D02*
X03222D01*
X03188Y03206D02*
Y03273D01*
X02041Y03679D02*
X021D01*
X02071Y0365D02*
Y03709D01*
X02291Y03779D02*
X0235D01*
X02321Y0375D02*
Y03809D01*
X02142Y03579D02*
X02299D01*
X02221Y03501D02*
Y03658D01*
X01987Y03579D02*
X02054D01*
X02021Y03546D02*
Y03613D01*
X02387Y03579D02*
X02454D01*
X02421Y03546D02*
Y03613D01*
X02809Y0176D02*
X02868D01*
X02838Y0173D02*
Y01789D01*
X03059Y0186D02*
X03118D01*
X03088Y0183D02*
Y01889D01*
X0291Y0166D02*
X03067D01*
X02988Y01581D02*
Y01738D01*
X02755Y0166D02*
X02822D01*
X02788Y01626D02*
Y01693D01*
X03155Y0166D02*
X03222D01*
X03188Y01626D02*
Y01693D01*
X0089Y01376D02*
X00949D01*
X00919Y01346D02*
Y01405D01*
X0114Y01476D02*
X01199D01*
X01169Y01446D02*
Y01505D01*
X00991Y01276D02*
X01148D01*
X01069Y01197D02*
Y01354D01*
X00836Y01276D02*
X00903D01*
X00869Y01242D02*
Y01309D01*
X01236Y01276D02*
X01303D01*
X01269Y01242D02*
Y01309D01*
X04588Y0475D02*
X04616D01*
X04602Y04736D02*
Y04764D01*
X04273Y02473D02*
X04301D01*
X04287Y02459D02*
Y02487D01*
X03663Y03409D02*
X03691D01*
X03677Y03395D02*
Y03423D01*
M02*