%FSTAX23Y23*%
%MOIN*%
%SFA1B1*%

%IPPOS*%
%ADD15C,0.010000*%
%ADD22C,0.078740*%
%ADD25C,0.057087*%
%ADD26R,0.057087X0.057087*%
%ADD29C,0.019685*%
%ADD30C,0.051181*%
%ADD31C,0.060000*%
%ADD32C,0.059055*%
%ADD33R,0.059055X0.059055*%
%ADD34R,0.078740X0.078740*%
%ADD35C,0.055118*%
%ADD36R,0.094488X0.098425*%
%ADD37O,0.062992X0.094488*%
%ADD38R,0.059055X0.059055*%
%ADD39C,0.050000*%
%LNpcb1-1*%
%LPD*%
G36*
X01644Y04939D02*
X01628Y0493D01*
X01614Y04916*
X01603Y04898*
X01598Y04878*
Y04857*
X01603Y04837*
X01614Y04819*
X01625Y04807*
X0162Y048*
X01613Y04784*
X01611Y04767*
X01613Y0475*
X0162Y04734*
X0163Y04721*
X01644Y0471*
X01651Y04707*
X01701Y04658*
X01714Y04647*
X0173Y04641*
X01747Y04639*
X02447*
X02464Y04641*
X0248Y04647*
X02494Y04658*
X02552Y04716*
X03886*
X0409Y04511*
X04104Y04501*
X0412Y04494*
X04137Y04492*
X04154Y04494*
X04169Y04501*
X04181Y0451*
X04183Y04511*
X04188Y0451*
X04198Y045*
X04213Y04491*
X04215Y04491*
X04216Y0449*
X04232Y04483*
X04249Y04481*
X04399*
X04416Y04483*
X04432Y0449*
X04445Y045*
X04622Y04677*
X04627Y04675*
Y02637*
X04623Y02634*
X04617Y02638*
X04596Y02643*
X04576*
X04556Y02638*
X04539Y02628*
X04534Y02629*
Y03681*
X04531Y03698*
X04525Y03713*
X04514Y03727*
X04178Y04063*
X04165Y04074*
X04149Y0408*
X04132Y04082*
X03981*
X03979Y04087*
X03981Y0409*
X03986Y04108*
Y04126*
X03981Y04143*
X03972Y04159*
X03959Y04172*
X03943Y04181*
X03926Y04186*
X03908*
X0389Y04181*
X03875Y04172*
X03862Y04159*
X03853Y04143*
X03848Y04126*
Y04108*
X03853Y0409*
X03862Y04075*
X03869Y04067*
X03862Y04059*
X03853Y04043*
X03848Y04026*
Y04008*
X03853Y0399*
X03862Y03975*
X03869Y03967*
X03862Y03959*
X03853Y03943*
X03848Y03926*
Y03908*
X03853Y0389*
X03862Y03875*
X03869Y03867*
X03862Y03859*
X03853Y03843*
X03848Y03826*
Y03808*
X03853Y0379*
X03862Y03775*
X03875Y03762*
X03876Y03761*
X03877Y03756*
Y03722*
X03917*
X03956*
Y03756*
X03958Y03761*
X03959Y03762*
X03969Y03772*
X04312Y03429*
Y03214*
X04307Y03213*
X04304Y0322*
X04293Y03235*
X04278Y03246*
X04261Y03254*
X04242Y03256*
X04224Y03254*
X04206Y03246*
X04192Y03235*
X0418Y0322*
X04173Y03203*
X04171Y03185*
Y03153*
X04173Y03135*
X0418Y03117*
X04192Y03103*
X04206Y03091*
X04224Y03084*
X04242Y03082*
X04261Y03084*
X04278Y03091*
X04293Y03103*
X04304Y03117*
X04307Y03124*
X04312Y03123*
Y02537*
X04308Y02534*
X04304Y02536*
X04287Y02538*
X04127*
X04126Y02543*
X04132Y02546*
X04146Y02556*
X04184Y02594*
X04194Y02607*
X04194Y02608*
X04224*
Y02765*
Y02942*
X0415*
X0415Y02947*
X04154Y02948*
X04164Y02952*
X04195*
Y0298*
X04201Y02994*
X04203Y03011*
X04201Y03028*
X04195Y03043*
Y03071*
X04164*
X04154Y03075*
X04137Y03077*
X03978*
X03961Y03075*
X03951Y03071*
X03921*
Y03043*
X03915Y03028*
X03913Y03011*
X03915Y02994*
X03921Y0298*
Y02952*
X03951*
X03961Y02948*
X03966Y02947*
X03966Y02942*
X03892*
Y02765*
Y02608*
X03915*
X03916Y02603*
X03763Y0245*
X03758Y02452*
Y02659*
X03756Y02676*
X03749Y02691*
X03739Y02705*
X03723Y02721*
X03709Y02731*
X03694Y02738*
X03677Y0274*
X03318*
X03301Y02738*
X03285Y02731*
X03271Y02721*
X03053Y02503*
X00705*
X00688Y02501*
X00672Y02494*
X00658Y02484*
X00489Y02315*
X00479Y02301*
X00472Y02285*
X0047Y02268*
Y02222*
X00457*
Y02111*
X00441Y02102*
X00427Y02088*
X00417Y02072*
X00412Y02053*
Y02034*
X00417Y02015*
X00427Y01999*
X00441Y01985*
X00457Y01976*
X00476Y01971*
X00495*
X00513Y01976*
X0053Y01985*
X00544Y01999*
X00553Y02015*
X00558Y02034*
Y02053*
X00556Y02061*
X00559Y02065*
X00565*
X00569Y02061*
X00567Y02055*
Y02032*
X00572Y02009*
X00581Y01988*
X00594Y01968*
X0061Y01952*
X00629Y01939*
X00651Y0193*
X00674Y01926*
X00697*
X0072Y0193*
X00741Y01939*
X0076Y01952*
X00777Y01968*
X0079Y01988*
X00799Y02009*
X00803Y02032*
Y02055*
X00799Y02078*
X0079Y02099*
X00777Y02119*
X0076Y02135*
X00741Y02148*
X0072Y02157*
X00697Y02161*
X00674*
X00651Y02157*
X00629Y02148*
X00618Y02141*
X00614Y02143*
Y02222*
X00601*
Y02241*
X00732Y02372*
X01432*
X01434Y02367*
X01289Y02222*
X01224*
Y02111*
X01208Y02102*
X01195Y02088*
X01185Y02072*
X0118Y02053*
Y02034*
X01185Y02015*
X01195Y01999*
X01208Y01985*
X01225Y01976*
X01243Y01971*
X01263*
X01281Y01976*
X01298Y01985*
X01311Y01999*
X01321Y02015*
X01326Y02034*
Y02053*
X01324Y02061*
X01327Y02065*
X01333*
X01336Y02061*
X01335Y02055*
Y02032*
X0134Y02009*
X01349Y01988*
X01361Y01968*
X01378Y01952*
X01397Y01939*
X01419Y0193*
X01441Y01926*
X01465*
X01487Y0193*
X01509Y01939*
X01528Y01952*
X01545Y01968*
X01558Y01988*
X01566Y02009*
X01571Y02032*
Y02055*
X01566Y02078*
X01558Y02099*
X01545Y02119*
X01528Y02135*
X01509Y02148*
X01487Y02157*
X01465Y02161*
X01441*
X01419Y02157*
X01414Y02155*
X01411Y02159*
X01473Y02221*
X01478Y0222*
X0148Y02213*
X0149Y02195*
X01505Y02181*
X01523Y0217*
X01543Y02165*
X01563*
X01583Y0217*
X01597Y02178*
X01718*
X01765Y02132*
X01771Y02121*
X01784Y02108*
X018Y02099*
X01817Y02094*
X01835*
X01853Y02099*
X01869Y02108*
X01881Y02121*
X0189Y02136*
X01895Y02154*
Y02172*
X0189Y02189*
X01881Y02205*
X01869Y02218*
X01857Y02225*
X01817Y02264*
X01819Y02269*
X02242*
X02245Y02265*
X02242Y02254*
Y02233*
X02247Y02213*
X02258Y02195*
X02272Y02181*
X0229Y0217*
X02306Y02166*
X02373Y02099*
X02362Y02088*
X02353Y02072*
X02348Y02053*
Y02034*
X02353Y02015*
X02362Y01999*
X02376Y01985*
X02393Y01976*
X02411Y01971*
X0243*
X02449Y01976*
X02466Y01985*
X02479Y01999*
X02489Y02015*
X02494Y02034*
Y02053*
X02491Y02062*
X02494Y02066*
X02576*
X02589Y02062*
X02607*
X02625Y02067*
X0264Y02076*
X02653Y02089*
X02662Y02105*
X02667Y02122*
Y0214*
X02662Y02158*
X02653Y02174*
X0264Y02187*
X02625Y02196*
X02607Y022*
X02589*
X02576Y02197*
X0246*
X02398Y02259*
X02397Y02265*
X024Y02269*
X02893*
X03044Y02118*
X03058Y02108*
X03074Y02101*
X03091Y02099*
X0351*
X03512Y02094*
X03507Y02075*
Y02054*
X03513Y02034*
X03523Y02016*
X03525Y02014*
X03523Y02013*
X03513Y01995*
X03507Y01975*
Y01954*
X03513Y01934*
X03523Y01916*
X03525Y01914*
X03523Y01913*
X03513Y01895*
X03507Y01875*
Y01854*
X03513Y01834*
X03523Y01816*
X03525Y01814*
X03523Y01813*
X03513Y01795*
X03507Y01775*
Y01754*
X03513Y01734*
X03523Y01716*
X03525Y01714*
X03523Y01713*
X03513Y01695*
X03507Y01675*
Y01654*
X03512Y01635*
X0351Y0163*
X03493*
X03488Y01632*
X03472Y01634*
X03431*
Y01637*
X03293*
Y01634*
X03261*
X03258Y01638*
X03261Y0165*
Y01669*
X03256Y01688*
X03247Y01704*
X03233Y01718*
X03217Y01728*
X03198Y01733*
X03179*
X0316Y01728*
X03144Y01718*
X0313Y01704*
X03121Y01688*
X03116Y01669*
Y0165*
X03119Y01638*
X03116Y01634*
X03111*
X03108Y01634*
X03104Y01637*
X03106Y01648*
Y01671*
X03102Y01694*
X03093Y01716*
X0308Y01735*
X03064Y01751*
X03044Y01764*
X03023Y01773*
X03Y01778*
X02977*
X02954Y01773*
X02933Y01764*
X02922Y01757*
X02917Y01759*
Y01838*
X0276*
Y01727*
X02744Y01718*
X0273Y01704*
X02721Y01688*
X02716Y01669*
Y0165*
X02721Y01632*
X02727Y0162*
X02725Y01614*
X02724Y01614*
X02663Y01674*
Y01783*
X02667*
Y01921*
X02529*
Y01876*
X02482Y01829*
X01973*
X01895Y01907*
Y01952*
X01757*
Y01907*
X01687Y01837*
X0117*
X01131Y01876*
Y01921*
X00994*
Y01783*
X01039*
X01097Y01725*
X0111Y01714*
X01126Y01708*
X01143Y01706*
X01714*
X01731Y01708*
X01747Y01714*
X0176Y01725*
X01826Y01791*
X019Y01717*
X01914Y01707*
X01929Y017*
X01946Y01698*
X02509*
X02526Y017*
X02528Y01701*
X02532Y01698*
Y01647*
X02535Y0163*
X02541Y01614*
X02552Y01601*
X02653Y01499*
X02667Y01489*
X02683Y01482*
X027Y0148*
X03088*
X03105Y01482*
X0312Y01489*
X03134Y01499*
X03138Y01503*
X03293*
Y015*
X03431*
Y01503*
X03454*
X03459Y01501*
X03476Y01499*
X0351*
X03512Y01494*
X03508Y01476*
X03506Y01474*
X03502Y01472*
X03488Y01474*
X02851*
X02834Y01472*
X02819Y01465*
X02805Y01455*
X02566Y01216*
X02521*
Y01213*
X02467*
X02466Y01217*
X02466Y01218*
X02479Y01231*
X02489Y01248*
X02494Y01266*
Y01285*
X02489Y01304*
X02479Y01321*
X02466Y01334*
X02449Y01344*
X0243Y01349*
X02411*
X02393Y01344*
X02376Y01334*
X02362Y01321*
X02353Y01304*
X02348Y01285*
Y01266*
X02353Y01248*
X02362Y01231*
X02376Y01218*
X02376Y01217*
X02375Y01213*
X02326*
X02323Y01217*
X02325Y0122*
X02334Y01241*
X02339Y01264*
Y01287*
X02334Y0131*
X02325Y01332*
X02312Y01351*
X02296Y01367*
X02277Y0138*
X02255Y01389*
X02232Y01394*
X02209*
X02186Y01389*
X02165Y0138*
X02154Y01373*
X0215Y01375*
Y01455*
X01992*
Y01343*
X01976Y01334*
X01962Y01321*
X01953Y01304*
X01948Y01285*
Y01266*
X01953Y01248*
X01962Y01231*
X01976Y01218*
X01976Y01217*
X01975Y01213*
X01849*
X01513Y01226*
Y01232*
X01375*
Y01094*
X01513*
X01514Y01095*
X01845Y01082*
X01846Y01082*
X01847Y01082*
X02521*
Y01078*
X02659*
Y01123*
X02879Y01343*
X03329*
X03332Y01339*
X03328Y01327*
Y01309*
X03333Y01291*
X03342Y01275*
X0335Y01268*
X03342Y0126*
X03333Y01244*
X03328Y01227*
Y01209*
X03333Y01191*
X03342Y01175*
X03355Y01162*
X0337Y01154*
X03371Y01153*
X03372Y01148*
X03364Y0114*
X03358Y01125*
Y01123*
X03397*
Y01113*
X03358*
Y0111*
X03364Y01095*
X03375Y01084*
X03375Y01084*
Y01079*
X03364Y01074*
X03351Y01064*
X0334Y0105*
X03334Y01035*
X03332Y01018*
X03334Y01001*
X03336Y00996*
X03333Y00992*
X00476*
Y01002*
X00471Y01022*
X0046Y0104*
X00445Y01055*
X00428Y01065*
X00408Y0107*
X00397*
Y04862*
X00408*
X00428Y04867*
X00445Y04877*
X0046Y04892*
X00471Y0491*
X00476Y0493*
Y04944*
X01643*
X01644Y04939*
G37*
%LNpcb1-2*%
%LPC*%
G36*
X02619Y04641D02*
X02601D01*
X02583Y04637*
X02567Y04627*
X02555Y04615*
X02553Y04612*
X02365*
X02351Y0462*
X02331Y04625*
X0231*
X0229Y0462*
X02272Y0461*
X02258Y04595*
X02247Y04577*
X02242Y04557*
Y04536*
X02247Y04516*
X02258Y04498*
X02272Y04484*
X0229Y04473*
X0231Y04468*
X02331*
X02351Y04473*
X02365Y04481*
X02584*
X02601Y04483*
X02617Y0449*
X0263Y045*
X02641Y04511*
X02652Y04517*
X02665Y0453*
X02674Y04546*
X02679Y04563*
Y04581*
X02674Y04599*
X02665Y04615*
X02652Y04627*
X02636Y04637*
X02619Y04641*
G37*
G36*
X01563Y04625D02*
X01543D01*
X01523Y0462*
X01505Y0461*
X0149Y04595*
X0148Y04577*
X01474Y04557*
Y04536*
X0148Y04516*
X0149Y04498*
X01505Y04484*
X01523Y04473*
X01543Y04468*
X01563*
X01583Y04473*
X01597Y04481*
X01784*
X01799Y04483*
X01805*
X01817Y0448*
X01835*
X01853Y04485*
X01869Y04494*
X01881Y04506*
X0189Y04522*
X01895Y0454*
Y04558*
X0189Y04575*
X01881Y04591*
X01869Y04604*
X01853Y04613*
X01835Y04618*
X01817*
X01805Y04614*
X01786*
X01771Y04612*
X01597*
X01583Y0462*
X01563Y04625*
G37*
G36*
X00796D02*
X00775D01*
X00755Y0462*
X00737Y0461*
X00722Y04595*
X00712Y04577*
X00707Y04557*
Y04536*
X00712Y04516*
X00722Y04498*
X00737Y04484*
X00755Y04473*
X00775Y04468*
X00796*
X00816Y04473*
X00829Y04481*
X0104*
X01055Y04483*
X01061*
X01073Y0448*
X01091*
X01109Y04485*
X01124Y04494*
X01137Y04506*
X01146Y04522*
X01151Y0454*
Y04558*
X01146Y04575*
X01137Y04591*
X01124Y04604*
X01109Y04613*
X01091Y04618*
X01073*
X01061Y04614*
X01042*
X01027Y04612*
X00829*
X00816Y0462*
X00796Y04625*
G37*
G36*
X03099D02*
X03078D01*
X03058Y0462*
X0304Y0461*
X03025Y04595*
X03015Y04577*
X0301Y04557*
Y04536*
X03015Y04516*
X03025Y04498*
X0304Y04484*
X03058Y04473*
X03078Y04468*
X03099*
X03119Y04473*
X03132Y04481*
X03296*
X03305Y04478*
X03322Y04475*
X03344*
X03357Y04472*
X03375*
X03392Y04477*
X03408Y04486*
X03421Y04499*
X0343Y04514*
X03435Y04532*
Y0455*
X0343Y04567*
X03421Y04583*
X03408Y04596*
X03392Y04605*
X03375Y0461*
X03357*
X03344Y04606*
X03342*
X03333Y0461*
X03316Y04612*
X03132*
X03119Y0462*
X03099Y04625*
G37*
G36*
X03198Y0442D02*
X03179D01*
X0316Y04415*
X03144Y04405*
X0313Y04391*
X03121Y04375*
X03116Y04356*
Y04337*
X03121Y04319*
X0313Y04302*
X03144Y04288*
X0316Y04279*
X03179Y04274*
X03198*
X03217Y04279*
X03233Y04288*
X03247Y04302*
X03256Y04319*
X03261Y04337*
Y04356*
X03256Y04375*
X03247Y04391*
X03233Y04405*
X03217Y04415*
X03198Y0442*
G37*
G36*
X0243D02*
X02411D01*
X02393Y04415*
X02376Y04405*
X02362Y04391*
X02353Y04375*
X02348Y04356*
Y04337*
X02353Y04319*
X02362Y04302*
X02376Y04288*
X02393Y04279*
X02411Y04274*
X0243*
X02449Y04279*
X02466Y04288*
X02479Y04302*
X02489Y04319*
X02494Y04337*
Y04356*
X02489Y04375*
X02479Y04391*
X02466Y04405*
X02449Y04415*
X0243Y0442*
G37*
G36*
X01663D02*
X01643D01*
X01625Y04415*
X01608Y04405*
X01595Y04391*
X01585Y04375*
X0158Y04356*
Y04337*
X01585Y04319*
X01595Y04302*
X01608Y04288*
X01625Y04279*
X01643Y04274*
X01663*
X01681Y04279*
X01698Y04288*
X01711Y04302*
X01721Y04319*
X01726Y04337*
Y04356*
X01721Y04375*
X01711Y04391*
X01698Y04405*
X01681Y04415*
X01663Y0442*
G37*
G36*
X00895D02*
X00876D01*
X00857Y04415*
X00841Y04405*
X00827Y04391*
X00817Y04375*
X00812Y04356*
Y04337*
X00817Y04319*
X00827Y04302*
X00841Y04288*
X00857Y04279*
X00876Y04274*
X00895*
X00913Y04279*
X0093Y04288*
X00944Y04302*
X00953Y04319*
X00958Y04337*
Y04356*
X00953Y04375*
X00944Y04391*
X0093Y04405*
X00913Y04415*
X00895Y0442*
G37*
G36*
X0215Y04525D02*
X01992D01*
Y04414*
X01976Y04405*
X01962Y04391*
X01953Y04375*
X01948Y04356*
Y04337*
X01953Y04319*
X01962Y04302*
X01976Y04288*
X01993Y04279*
X02011Y04274*
X0203*
X02049Y04279*
X02066Y04288*
X02079Y04302*
X02089Y04319*
X02094Y04337*
Y04356*
X02092Y04364*
X02095Y04368*
X02101*
X02104Y04364*
X02103Y04358*
Y04335*
X02107Y04312*
X02116Y04291*
X02129Y04272*
X02146Y04255*
X02165Y04242*
X02182Y04235*
X02181Y0423*
X01958*
X01895Y04293*
Y04338*
X01757*
Y04293*
X01695Y0423*
X01493*
X01492Y04235*
X01509Y04242*
X01528Y04255*
X01545Y04272*
X01558Y04291*
X01566Y04312*
X01571Y04335*
Y04358*
X01566Y04381*
X01558Y04403*
X01545Y04422*
X01528Y04438*
X01509Y04451*
X01487Y0446*
X01465Y04465*
X01441*
X01419Y0446*
X01397Y04451*
X01386Y04444*
X01382Y04446*
Y04525*
X01224*
Y04414*
X01208Y04405*
X01195Y04391*
X01185Y04375*
X0118Y04356*
Y04337*
X01185Y04319*
X01195Y04302*
X01208Y04288*
X01225Y04279*
X01243Y04274*
X01263*
X01281Y04279*
X01298Y04288*
X01311Y04302*
X01321Y04319*
X01326Y04337*
Y04356*
X01324Y04364*
X01327Y04368*
X01333*
X01336Y04364*
X01335Y04358*
Y04335*
X0134Y04312*
X01349Y04291*
X01361Y04272*
X01378Y04255*
X01397Y04242*
X01414Y04235*
X01413Y0423*
X01214*
X01151Y04293*
Y04338*
X01013*
Y042*
X01058*
X0114Y04119*
X01154Y04108*
X0117Y04102*
X01187Y04099*
X01722*
X01739Y04102*
X01755Y04108*
X01768Y04119*
X01826Y04177*
X01884Y04119*
X01898Y04108*
X01914Y04102*
X01931Y04099*
X02482*
X02499Y04102*
X02515Y04108*
X02528Y04119*
X0261Y042*
X02707Y04103*
X02721Y04092*
X02736Y04086*
X02753Y04084*
X03253*
X0327Y04086*
X03286Y04092*
X033Y04103*
X03389Y04192*
X03435*
Y0433*
X03297*
Y04285*
X03226Y04215*
X02781*
X02679Y04317*
Y04362*
X02541*
Y04317*
X02455Y0423*
X02261*
X0226Y04235*
X02277Y04242*
X02296Y04255*
X02312Y04272*
X02325Y04291*
X02334Y04312*
X02339Y04335*
Y04358*
X02334Y04381*
X02325Y04403*
X02312Y04422*
X02296Y04438*
X02277Y04451*
X02255Y0446*
X02232Y04465*
X02209*
X02186Y0446*
X02165Y04451*
X02154Y04444*
X0215Y04446*
Y04525*
G37*
G36*
X02917D02*
X0276D01*
Y04414*
X02744Y04405*
X0273Y04391*
X02721Y04375*
X02716Y04356*
Y04337*
X02721Y04319*
X0273Y04302*
X02744Y04288*
X0276Y04279*
X02779Y04274*
X02798*
X02817Y04279*
X02833Y04288*
X02847Y04302*
X02856Y04319*
X02861Y04337*
Y04356*
X02859Y04364*
X02862Y04368*
X02869*
X02872Y04364*
X02871Y04358*
Y04335*
X02875Y04312*
X02884Y04291*
X02897Y04272*
X02913Y04255*
X02933Y04242*
X02954Y04233*
X02977Y04229*
X03*
X03023Y04233*
X03044Y04242*
X03064Y04255*
X0308Y04272*
X03093Y04291*
X03102Y04312*
X03106Y04335*
Y04358*
X03102Y04381*
X03093Y04403*
X0308Y04422*
X03064Y04438*
X03044Y04451*
X03023Y0446*
X03Y04465*
X02977*
X02954Y0446*
X02933Y04451*
X02922Y04444*
X02917Y04446*
Y04525*
G37*
G36*
X00614D02*
X00457D01*
Y04414*
X00441Y04405*
X00427Y04391*
X00417Y04375*
X00412Y04356*
Y04337*
X00417Y04319*
X00427Y04302*
X00441Y04288*
X00457Y04279*
X00476Y04274*
X00495*
X00513Y04279*
X0053Y04288*
X00544Y04302*
X00553Y04319*
X00558Y04337*
Y04356*
X00556Y04364*
X00559Y04368*
X00565*
X00569Y04364*
X00567Y04358*
Y04335*
X00572Y04312*
X00581Y04291*
X00594Y04272*
X0061Y04255*
X00629Y04242*
X00651Y04233*
X00674Y04229*
X00697*
X0072Y04233*
X00741Y04242*
X0076Y04255*
X00777Y04272*
X0079Y04291*
X00799Y04312*
X00803Y04335*
Y04358*
X00799Y04381*
X0079Y04403*
X00777Y04422*
X0076Y04438*
X00741Y04451*
X0072Y0446*
X00697Y04465*
X00674*
X00651Y0446*
X00629Y04451*
X00618Y04444*
X00614Y04446*
Y04525*
G37*
G36*
X03956Y03712D02*
X03922D01*
Y03677*
X03956*
Y03712*
G37*
G36*
X03912D02*
X03877D01*
Y03677*
X03912*
Y03712*
G37*
G36*
X01563Y03858D02*
X01543D01*
X01523Y03852*
X01505Y03842*
X0149Y03827*
X0148Y03809*
X01474Y03789*
Y03769*
X0148Y03749*
X0149Y03731*
X01505Y03716*
X01523Y03706*
X01538Y03702*
X01583Y03656*
X01597Y03646*
X01607Y03642*
X01607Y03636*
X01595Y03624*
X01585Y03607*
X0158Y03589*
Y03569*
X01585Y03551*
X01595Y03534*
X01608Y03521*
X01625Y03511*
X01643Y03506*
X01663*
X01681Y03511*
X01698Y03521*
X01711Y03534*
X01721Y03551*
X01726Y03569*
Y03589*
X01721Y03607*
X01711Y03624*
X01703Y03632*
X01705Y03637*
X01805*
X01817Y03633*
X01835*
X01853Y03638*
X01869Y03647*
X01881Y0366*
X0189Y03676*
X01895Y03693*
Y03711*
X0189Y03729*
X01881Y03745*
X01869Y03757*
X01853Y03766*
X01835Y03771*
X01817*
X01805Y03768*
X01657*
X0163Y03794*
X01626Y03809*
X01616Y03827*
X01601Y03842*
X01583Y03852*
X01563Y03858*
G37*
G36*
X00796D02*
X00775D01*
X00755Y03852*
X00737Y03842*
X00722Y03827*
X00712Y03809*
X00707Y03789*
Y03769*
X00712Y03749*
X00722Y03731*
X00737Y03716*
X00755Y03706*
X0077Y03702*
X00828Y03644*
X00836Y03638*
X00836Y03633*
X00827Y03624*
X00817Y03607*
X00812Y03589*
Y03569*
X00817Y03551*
X00827Y03534*
X00841Y03521*
X00857Y03511*
X00876Y03506*
X00895*
X00913Y03511*
X0093Y03521*
X00944Y03534*
X00953Y03551*
X00958Y03569*
Y03589*
X00953Y03607*
X00946Y0362*
X00949Y03625*
X01057*
X01069Y03622*
X01087*
X01105Y03626*
X01121Y03635*
X01133Y03648*
X01142Y03664*
X01147Y03681*
Y037*
X01142Y03717*
X01133Y03733*
X01121Y03746*
X01105Y03755*
X01087Y03759*
X01069*
X01057Y03756*
X00901*
X00863Y03794*
X00859Y03809*
X00848Y03827*
X00834Y03842*
X00816Y03852*
X00796Y03858*
G37*
G36*
X01382Y03758D02*
X01224D01*
Y03647*
X01208Y03637*
X01195Y03624*
X01185Y03607*
X0118Y03589*
Y03569*
X01185Y03551*
X01195Y03534*
X01208Y03521*
X01225Y03511*
X01243Y03506*
X01263*
X01281Y03511*
X01298Y03521*
X01311Y03534*
X01321Y03551*
X01326Y03569*
Y03589*
X01324Y03596*
X01327Y036*
X01333*
X01336Y03596*
X01335Y03591*
Y03567*
X0134Y03545*
X01349Y03523*
X01361Y03504*
X01378Y03487*
X01397Y03475*
X01419Y03466*
X01441Y03461*
X01465*
X01487Y03466*
X01509Y03475*
X01528Y03487*
X01545Y03504*
X01558Y03523*
X01566Y03545*
X01571Y03567*
Y03591*
X01566Y03613*
X01558Y03635*
X01545Y03654*
X01528Y03671*
X01509Y03683*
X01487Y03692*
X01465Y03697*
X01441*
X01419Y03692*
X01397Y03683*
X01386Y03676*
X01382Y03678*
Y03758*
G37*
G36*
X00614D02*
X00457D01*
Y03647*
X00441Y03637*
X00427Y03624*
X00417Y03607*
X00412Y03589*
Y03569*
X00417Y03551*
X00427Y03534*
X00441Y03521*
X00457Y03511*
X00476Y03506*
X00495*
X00513Y03511*
X0053Y03521*
X00544Y03534*
X00553Y03551*
X00558Y03569*
Y03589*
X00556Y03596*
X00559Y036*
X00565*
X00569Y03596*
X00567Y03591*
Y03567*
X00572Y03545*
X00581Y03523*
X00594Y03504*
X0061Y03487*
X00629Y03475*
X00651Y03466*
X00674Y03461*
X00697*
X0072Y03466*
X00741Y03475*
X0076Y03487*
X00777Y03504*
X0079Y03523*
X00799Y03545*
X00803Y03567*
Y03591*
X00799Y03613*
X0079Y03635*
X00777Y03654*
X0076Y03671*
X00741Y03683*
X0072Y03692*
X00697Y03697*
X00674*
X00651Y03692*
X00629Y03683*
X00618Y03676*
X00614Y03678*
Y03758*
G37*
G36*
X01895Y03492D02*
X01757D01*
Y03446*
X01726Y03415*
X01166*
X01147Y03435*
Y0348*
X01009*
Y03342*
X01054*
X01093Y03304*
X01107Y03293*
X01122Y03287*
X01139Y03284*
X01753*
X0177Y03287*
X01786Y03293*
X018Y03304*
X01826Y0333*
X01853Y03304*
X01866Y03293*
X01882Y03287*
X01899Y03284*
X02532*
Y03125*
X02535Y03108*
X02541Y03092*
X02552Y03078*
X02558Y03072*
X02556Y03067*
X02492*
X0249Y03068*
X02474Y03075*
X02458Y03077*
X02365*
X02351Y03085*
X02331Y0309*
X0231*
X0229Y03085*
X02272Y03074*
X02258Y0306*
X02247Y03042*
X02242Y03022*
Y03001*
X02247Y02981*
X02258Y02963*
X02272Y02948*
X0229Y02938*
X0231Y02933*
X02331*
X02351Y02938*
X02365Y02946*
X02433*
X02435Y02945*
X0245Y02938*
X02467Y02936*
X02584*
X02597Y02933*
X02615*
X02632Y02937*
X02648Y02946*
X02661Y02959*
X0267Y02975*
X02675Y02992*
Y03011*
X02671Y03025*
X02674Y0303*
X03293*
Y03027*
X03431*
Y03165*
X03293*
Y03161*
X03084*
X03081Y03166*
X03093Y03184*
X03102Y03205*
X03106Y03228*
Y03251*
X03102Y03274*
X03093Y03295*
X0308Y03315*
X03064Y03331*
X03044Y03344*
X03023Y03353*
X03Y03357*
X02977*
X02954Y03353*
X02933Y03344*
X02922Y03337*
X02917Y03339*
Y03418*
X0276*
Y03307*
X02744Y03298*
X0273Y03284*
X02721Y03268*
X02716Y03249*
Y0323*
X02721Y03211*
X0273Y03195*
X02744Y03181*
X0276Y03172*
X02779Y03167*
X02798*
X02817Y03172*
X02833Y03181*
X02847Y03195*
X02856Y03211*
X02861Y0323*
Y03249*
X02859Y03257*
X02862Y03261*
X02869*
X02872Y03257*
X02871Y03251*
Y03228*
X02875Y03205*
X02884Y03184*
X02895Y03166*
X02893Y03161*
X02663*
Y03342*
X02667*
Y0348*
X02529*
Y03435*
X0251Y03415*
X01926*
X01895Y03446*
Y03492*
G37*
G36*
X03213Y03939D02*
X02265D01*
X02248Y03937*
X02232Y0393*
X02219Y0392*
X02057Y03758*
X01992*
Y03647*
X01976Y03637*
X01962Y03624*
X01953Y03607*
X01948Y03589*
Y03569*
X01953Y03551*
X01962Y03534*
X01976Y03521*
X01993Y03511*
X02011Y03506*
X0203*
X02049Y03511*
X02066Y03521*
X02079Y03534*
X02089Y03551*
X02094Y03569*
Y03589*
X02092Y03596*
X02095Y036*
X02101*
X02104Y03596*
X02103Y03591*
Y03567*
X02107Y03545*
X02116Y03523*
X02129Y03504*
X02146Y03487*
X02165Y03475*
X02186Y03466*
X02209Y03461*
X02232*
X02255Y03466*
X02277Y03475*
X02296Y03487*
X02312Y03504*
X02325Y03523*
X02334Y03545*
X02339Y03567*
Y03591*
X02334Y03613*
X02325Y03635*
X02312Y03654*
X02296Y03671*
X02277Y03683*
X02255Y03692*
X02232Y03697*
X02209*
X02186Y03692*
X02182Y0369*
X02179Y03695*
X02241Y03756*
X02246Y03755*
X02247Y03749*
X02258Y03731*
X02272Y03716*
X0229Y03706*
X02306Y03702*
X02363Y03644*
X02371Y03638*
X02372Y03633*
X02362Y03624*
X02353Y03607*
X02348Y03589*
Y03569*
X02353Y03551*
X02362Y03534*
X02376Y03521*
X02393Y03511*
X02411Y03506*
X0243*
X02449Y03511*
X02466Y03521*
X02479Y03534*
X02489Y03551*
X02494Y03569*
Y03589*
X02489Y03607*
X02481Y0362*
X02484Y03625*
X02576*
X02589Y03622*
X02607*
X02625Y03626*
X0264Y03635*
X02653Y03648*
X02662Y03664*
X02667Y03681*
Y037*
X02662Y03717*
X02653Y03733*
X0264Y03746*
X02625Y03755*
X02607Y03759*
X02589*
X02576Y03756*
X02436*
X02398Y03794*
X02396Y03804*
X02399Y03808*
X03185*
X0363Y03363*
X03644Y03353*
X0366Y03346*
X03677Y03344*
X03694Y03346*
X03709Y03353*
X03723Y03363*
X03733Y03377*
X0374Y03392*
X03742Y03409*
X0374Y03426*
X03733Y03442*
X03723Y03456*
X03259Y0392*
X03245Y0393*
X03229Y03937*
X03213Y03939*
G37*
G36*
X03099Y03518D02*
X03078D01*
X03058Y03513*
X0304Y03502*
X03025Y03488*
X03015Y0347*
X0301Y0345*
Y03429*
X03015Y03409*
X03025Y03391*
X0304Y03376*
X03058Y03366*
X03073Y03362*
X03106Y03329*
X0312Y03319*
X03135Y03312*
X03152Y0331*
X03155*
X03156Y03305*
X03144Y03298*
X0313Y03284*
X03121Y03268*
X03116Y03249*
Y0323*
X03121Y03211*
X0313Y03195*
X03144Y03181*
X0316Y03172*
X03179Y03167*
X03198*
X03217Y03172*
X03233Y03181*
X03247Y03195*
X03256Y03211*
X03261Y0323*
Y03249*
X03256Y03268*
X03247Y03284*
X03233Y03298*
X03221Y03305*
X03222Y0331*
X0334*
X03353Y03307*
X03371*
X03388Y03311*
X03404Y0332*
X03417Y03333*
X03426Y03349*
X03431Y03366*
Y03385*
X03426Y03402*
X03417Y03418*
X03404Y03431*
X03388Y0344*
X03371Y03444*
X03353*
X0334Y03441*
X0318*
X03166Y03455*
X03162Y0347*
X03151Y03488*
X03137Y03502*
X03119Y03513*
X03099Y03518*
G37*
G36*
X03873Y03256D02*
X03855Y03254D01*
X03838Y03246*
X03823Y03235*
X03812Y0322*
X03804Y03203*
X03802Y03185*
Y03153*
X03804Y03135*
X03812Y03117*
X03823Y03103*
X03838Y03091*
X03855Y03084*
X03873Y03082*
X03892Y03084*
X03909Y03091*
X03924Y03103*
X03935Y03117*
X03942Y03135*
X03945Y03153*
Y03185*
X03942Y03203*
X03935Y0322*
X03924Y03235*
X03909Y03246*
X03892Y03254*
X03873Y03256*
G37*
G36*
X00796Y0309D02*
X00775D01*
X00755Y03085*
X00737Y03074*
X00722Y0306*
X00712Y03042*
X00707Y03022*
Y03001*
X00712Y02981*
X00722Y02963*
X00737Y02948*
X00755Y02938*
X00775Y02933*
X00796*
X00816Y02938*
X00829Y02946*
X01013*
X0102Y02938*
X01036Y02929*
X01053Y02925*
X01072*
X01089Y02929*
X01105Y02938*
X01118Y02951*
X01127Y02967*
X01131Y02985*
Y03003*
X01127Y0302*
X01118Y03036*
X01105Y03049*
X01093Y03055*
X0108Y03068*
X01067Y03079*
X01051Y03085*
X01034Y03087*
X01017Y03085*
X01001Y03079*
X00999Y03077*
X00829*
X00816Y03085*
X00796Y0309*
G37*
G36*
X01563D02*
X01543D01*
X01523Y03085*
X01505Y03074*
X0149Y0306*
X0148Y03042*
X01474Y03022*
Y03001*
X0148Y02981*
X0149Y02963*
X01505Y02948*
X01523Y02938*
X01543Y02933*
X01563*
X01583Y02938*
X01597Y02946*
X0177*
X01771Y02943*
X01784Y02931*
X018Y02922*
X01817Y02917*
X01835*
X01853Y02922*
X01869Y02931*
X01881Y02943*
X0189Y02959*
X01895Y02977*
Y02995*
X0189Y03012*
X01881Y03028*
X01869Y03041*
X01857Y03047*
X01847Y03058*
X01833Y03068*
X01818Y03075*
X01801Y03077*
X01597*
X01583Y03085*
X01563Y0309*
G37*
G36*
X00895Y02884D02*
X00876D01*
X00857Y02879*
X00841Y0287*
X00827Y02856*
X00817Y02839*
X00812Y02821*
Y02802*
X00817Y02783*
X00827Y02767*
X00841Y02753*
X00857Y02743*
X00876Y02738*
X00895*
X00913Y02743*
X0093Y02753*
X00944Y02767*
X00953Y02783*
X00958Y02802*
Y02821*
X00953Y02839*
X00944Y02856*
X0093Y0287*
X00913Y02879*
X00895Y02884*
G37*
G36*
X0215Y0299D02*
X01992D01*
Y02879*
X01976Y0287*
X01962Y02856*
X01953Y02839*
X01948Y02821*
Y02802*
X01953Y02783*
X01962Y02767*
X01976Y02753*
X01993Y02743*
X02011Y02738*
X0203*
X02049Y02743*
X02066Y02753*
X02079Y02767*
X02089Y02783*
X02094Y02802*
Y02821*
X02092Y02829*
X02095Y02833*
X02101*
X02104Y02829*
X02103Y02823*
Y028*
X02107Y02777*
X02116Y02755*
X02129Y02736*
X02146Y0272*
X02158Y02712*
X02156Y02707*
X01918*
X01895Y0273*
Y02775*
X01757*
Y02772*
X01719*
X01717Y02776*
X01721Y02783*
X01726Y02802*
Y02821*
X01721Y02839*
X01711Y02856*
X01698Y0287*
X01681Y02879*
X01663Y02884*
X01643*
X01625Y02879*
X01608Y0287*
X01595Y02856*
X01585Y02839*
X0158Y02821*
Y02802*
X01585Y02783*
X01595Y02767*
X01601Y0276*
X01601Y02755*
X01598Y02753*
X01545Y02699*
X01502*
X01501Y02704*
X01509Y02707*
X01528Y0272*
X01545Y02736*
X01558Y02755*
X01566Y02777*
X01571Y028*
Y02823*
X01566Y02846*
X01558Y02867*
X01545Y02886*
X01528Y02903*
X01509Y02916*
X01487Y02925*
X01465Y02929*
X01441*
X01419Y02925*
X01397Y02916*
X01386Y02908*
X01382Y02911*
Y0299*
X01224*
Y02879*
X01208Y0287*
X01195Y02856*
X01185Y02839*
X0118Y02821*
Y02802*
X01185Y02785*
X01182Y0278*
X01131*
Y02783*
X00994*
Y02645*
X01131*
Y02649*
X01222*
X01283Y02587*
X01297Y02577*
X01313Y0257*
X0133Y02568*
X01572*
X01589Y0257*
X01604Y02577*
X01618Y02587*
X01672Y02641*
X01757*
Y02637*
X01803*
X01845Y02595*
X01858Y02584*
X01874Y02578*
X01891Y02576*
X02345*
X02362Y02578*
X02378Y02584*
X02392Y02595*
X02453Y02656*
X02537*
Y02653*
X02675*
Y02791*
X02537*
Y02787*
X02494*
X02491Y02791*
X02494Y02802*
Y02821*
X02489Y02839*
X02479Y02856*
X02466Y0287*
X02449Y02879*
X0243Y02884*
X02411*
X02393Y02879*
X02376Y0287*
X02362Y02856*
X02353Y02839*
X02348Y02821*
Y02802*
X02353Y02783*
X02362Y02767*
X0237Y02759*
X02318Y02707*
X02285*
X02284Y02712*
X02296Y0272*
X02312Y02736*
X02325Y02755*
X02334Y02777*
X02339Y028*
Y02823*
X02334Y02846*
X02325Y02867*
X02312Y02886*
X02296Y02903*
X02277Y02916*
X02255Y02925*
X02232Y02929*
X02209*
X02186Y02925*
X02165Y02916*
X02154Y02908*
X0215Y02911*
Y0299*
G37*
G36*
X00614D02*
X00457D01*
Y02879*
X00441Y0287*
X00427Y02856*
X00417Y02839*
X00412Y02821*
Y02802*
X00417Y02783*
X00427Y02767*
X00441Y02753*
X00457Y02743*
X00476Y02738*
X00495*
X00513Y02743*
X0053Y02753*
X00544Y02767*
X00553Y02783*
X00558Y02802*
Y02821*
X00556Y02829*
X00559Y02833*
X00565*
X00569Y02829*
X00567Y02823*
Y028*
X00572Y02777*
X00581Y02755*
X00594Y02736*
X0061Y0272*
X00629Y02707*
X00651Y02698*
X00674Y02693*
X00697*
X0072Y02698*
X00741Y02707*
X0076Y0272*
X00777Y02736*
X0079Y02755*
X00799Y02777*
X00803Y028*
Y02823*
X00799Y02846*
X0079Y02867*
X00777Y02886*
X0076Y02903*
X00741Y02916*
X0072Y02925*
X00697Y02929*
X00674*
X00651Y02925*
X00629Y02916*
X00618Y02908*
X00614Y02911*
Y0299*
G37*
G36*
X00796Y02322D02*
X00775D01*
X00755Y02317*
X00737Y02307*
X00722Y02292*
X00712Y02274*
X00707Y02254*
Y02233*
X00712Y02213*
X00722Y02195*
X00737Y02181*
X00755Y0217*
X0077Y02166*
X00837Y02099*
X00827Y02088*
X00817Y02072*
X00812Y02053*
Y02034*
X00817Y02015*
X00827Y01999*
X00841Y01985*
X00857Y01976*
X00876Y01971*
X00895*
X00913Y01976*
X0093Y01985*
X00944Y01999*
X00953Y02015*
X00958Y02034*
Y02053*
X00956Y02062*
X00959Y02066*
X01041*
X01053Y02062*
X01072*
X01089Y02067*
X01105Y02076*
X01118Y02089*
X01127Y02105*
X01131Y02122*
Y0214*
X01127Y02158*
X01118Y02174*
X01105Y02187*
X01089Y02196*
X01072Y022*
X01053*
X01041Y02197*
X00925*
X00863Y02259*
X00859Y02274*
X00848Y02292*
X00834Y02307*
X00816Y02317*
X00796Y02322*
G37*
G36*
X01663Y02116D02*
X01643D01*
X01625Y02112*
X01608Y02102*
X01595Y02088*
X01585Y02072*
X0158Y02053*
Y02034*
X01585Y02015*
X01595Y01999*
X01608Y01985*
X01625Y01976*
X01643Y01971*
X01663*
X01681Y01976*
X01698Y01985*
X01711Y01999*
X01721Y02015*
X01726Y02034*
Y02053*
X01721Y02072*
X01711Y02088*
X01698Y02102*
X01681Y02112*
X01663Y02116*
G37*
G36*
X0215Y02222D02*
X01992D01*
Y02111*
X01976Y02102*
X01962Y02088*
X01953Y02072*
X01948Y02053*
Y02034*
X01953Y02015*
X01962Y01999*
X01976Y01985*
X01993Y01976*
X02011Y01971*
X0203*
X02049Y01976*
X02066Y01985*
X02079Y01999*
X02089Y02015*
X02094Y02034*
Y02053*
X02092Y02061*
X02095Y02065*
X02101*
X02104Y02061*
X02103Y02055*
Y02032*
X02107Y02009*
X02116Y01988*
X02129Y01968*
X02146Y01952*
X02165Y01939*
X02186Y0193*
X02209Y01926*
X02232*
X02255Y0193*
X02277Y01939*
X02296Y01952*
X02312Y01968*
X02325Y01988*
X02334Y02009*
X02339Y02032*
Y02055*
X02334Y02078*
X02325Y02099*
X02312Y02119*
X02296Y02135*
X02277Y02148*
X02255Y02157*
X02232Y02161*
X02209*
X02186Y02157*
X02165Y02148*
X02154Y02141*
X0215Y02143*
Y02222*
G37*
G36*
X03099Y01938D02*
X03078D01*
X03058Y01933*
X0304Y01923*
X03025Y01908*
X03015Y0189*
X0301Y0187*
Y01849*
X03015Y01829*
X03025Y01811*
X0304Y01797*
X03058Y01786*
X03078Y01781*
X03099*
X03119Y01786*
X03132Y01794*
X03318*
X03319Y01793*
X03335Y01784*
X03353Y01779*
X03371*
X03388Y01784*
X03404Y01793*
X03417Y01806*
X03426Y01821*
X03431Y01839*
Y01857*
X03426Y01875*
X03417Y0189*
X03404Y01903*
X03393Y0191*
X03383Y01919*
X03369Y0193*
X03354Y01936*
X03337Y01938*
X0332Y01936*
X03304Y0193*
X03298Y01925*
X03132*
X03119Y01933*
X03099Y01938*
G37*
G36*
X0118Y01555D02*
X01159D01*
X01139Y01549*
X01121Y01539*
X01106Y01524*
X01096Y01506*
X0109Y01486*
Y01466*
X01096Y01445*
X01106Y01428*
X01121Y01413*
X01139Y01403*
X01154Y01398*
X01156Y01396*
X0117Y01386*
X01186Y01379*
X01203Y01377*
X01423*
X01435Y01374*
X01453*
X01471Y01378*
X01487Y01387*
X015Y014*
X01509Y01416*
X01513Y01433*
Y01451*
X01509Y01469*
X015Y01485*
X01487Y01498*
X01471Y01507*
X01453Y01511*
X01435*
X01423Y01508*
X01242*
X01232Y01524*
X01218Y01539*
X012Y01549*
X0118Y01555*
G37*
G36*
X02331D02*
X0231D01*
X0229Y01549*
X02272Y01539*
X02258Y01524*
X02247Y01506*
X02242Y01486*
Y01466*
X02247Y01445*
X02258Y01428*
X02272Y01413*
X0229Y01403*
X02306Y01398*
X02324Y0138*
X02337Y0137*
X02353Y01363*
X0237Y01361*
X02568*
X02581Y01358*
X02599*
X02617Y01362*
X02632Y01372*
X02645Y01384*
X02654Y014*
X02659Y01418*
Y01436*
X02654Y01453*
X02645Y01469*
X02632Y01482*
X02617Y01491*
X02599Y01496*
X02581*
X02568Y01492*
X02398*
X02394Y01506*
X02384Y01524*
X02369Y01539*
X02351Y01549*
X02331Y01555*
G37*
G36*
X01279Y01349D02*
X0126D01*
X01241Y01344*
X01224Y01334*
X01211Y01321*
X01201Y01304*
X01196Y01285*
Y01266*
X01201Y01248*
X01211Y01231*
X01224Y01218*
X01241Y01208*
X0126Y01203*
X01279*
X01297Y01208*
X01314Y01218*
X01327Y01231*
X01337Y01248*
X01342Y01266*
Y01285*
X01337Y01304*
X01327Y01321*
X01314Y01334*
X01297Y01344*
X01279Y01349*
G37*
G36*
X00998Y01455D02*
X0084D01*
Y01343*
X00824Y01334*
X00811Y01321*
X00801Y01304*
X00796Y01285*
Y01266*
X00801Y01248*
X00811Y01231*
X00824Y01218*
X00841Y01208*
X0086Y01203*
X00879*
X00897Y01208*
X00914Y01218*
X00927Y01231*
X00937Y01248*
X00942Y01266*
Y01285*
X0094Y01293*
X00943Y01297*
X00949*
X00952Y01293*
X00951Y01287*
Y01264*
X00956Y01241*
X00965Y0122*
X00978Y01201*
X00994Y01184*
X01013Y01171*
X01035Y01163*
X01058Y01158*
X01081*
X01104Y01163*
X01125Y01171*
X01144Y01184*
X01161Y01201*
X01174Y0122*
X01183Y01241*
X01187Y01264*
Y01287*
X01183Y0131*
X01174Y01332*
X01161Y01351*
X01144Y01367*
X01125Y0138*
X01104Y01389*
X01081Y01394*
X01058*
X01035Y01389*
X01013Y0138*
X01002Y01373*
X00998Y01375*
Y01455*
G37*
%LNpcb1-3*%
%LPD*%
G54D15*
X00291Y00885D02*
D01*
G54D22*
X01553Y03779D03*
X02321Y03011D03*
Y01476D03*
X01553Y02244D03*
X00785Y03011D03*
Y03779D03*
Y04547D03*
Y02244D03*
X01677Y04767D03*
Y04867D03*
X01553Y03011D03*
X04586Y02564D03*
Y02464D03*
Y02364D03*
Y02264D03*
Y02164D03*
Y02064D03*
Y01964D03*
Y01864D03*
Y01764D03*
Y01664D03*
Y01564D03*
Y01464D03*
Y01364D03*
Y01264D03*
Y01164D03*
X03586Y02564D03*
Y02464D03*
Y02364D03*
Y02264D03*
Y02164D03*
Y02064D03*
Y01964D03*
Y01864D03*
Y01764D03*
Y01664D03*
Y01564D03*
Y01464D03*
Y01364D03*
Y01264D03*
X02321Y02244D03*
X03088Y04547D03*
X02321D03*
X01553D03*
X03088Y03439D03*
X02321Y03779D03*
X03088Y0186D03*
X01169Y01476D03*
G54D25*
X0424Y04555D03*
G54D26*
X0414Y04555D03*
G54D29*
X00291Y05043D02*
X04862D01*
X00291Y00885D02*
Y05043D01*
Y00885D02*
X04862D01*
Y05043*
G54D30*
X02221Y04864D02*
Y04865D01*
X02222Y04866D02*
X02293D01*
X02325Y04898D02*
X04585D01*
X04692Y04791*
X02221Y04865D02*
X02222Y04866D01*
X02293D02*
X02325Y04898D01*
X04692Y01907D02*
Y04791D01*
X04249Y04547D02*
X04399D01*
X04602Y0475*
X04241Y04552D02*
X04242Y04553D01*
X03913Y04781D02*
X04137Y04558D01*
X02533Y04781D02*
X03913D01*
X01747Y04704D02*
X02447D01*
X02529Y04785*
X01684Y04767D02*
X01747Y04704D01*
X01677Y04767D02*
X01684D01*
X01683Y04872D02*
X01705D01*
X01708Y0487D02*
X01903D01*
X01677Y04859D02*
X01679Y04862D01*
X01705Y04872D02*
X01708Y0487D01*
X04242Y04553D02*
X04249Y04547D01*
X0465Y01864D02*
X04692Y01907D01*
X03555Y01047D02*
X03638D01*
X03487Y01115D02*
Y01228D01*
Y01115D02*
X03555Y01047D01*
X03638D02*
X03791Y012D01*
X0376Y00956D02*
X03913Y01109D01*
X03459Y00956D02*
X0376D01*
X03397Y01018D02*
X03459Y00956D01*
X04468Y02238D02*
Y03681D01*
X04132Y04017D02*
X04468Y03681D01*
Y02238D02*
X04542Y02164D01*
X04377Y02182D02*
Y03456D01*
X03978Y02383D02*
X04068Y02473D01*
X04287*
X04377Y02182D02*
X04495Y02064D01*
X03917Y03917D02*
X04377Y03456D01*
X03978Y02381D02*
Y02383D01*
X03917Y04017D02*
X04132D01*
X01899Y0335D02*
X02537D01*
X02598Y03411*
X01826Y03423D02*
X01899Y0335D01*
X01078Y03411D02*
X01139Y0335D01*
X01753D02*
X01826Y03423D01*
X01139Y0335D02*
X01753D01*
X03253Y04149D02*
X03366Y04261D01*
X02753Y04149D02*
X03253D01*
X0261Y04293D02*
X02753Y04149D01*
X02482Y04165D02*
X0261Y04293D01*
X01931Y04165D02*
X02482D01*
X01826Y04269D02*
X01931Y04165D01*
X01082Y04269D02*
X01187Y04165D01*
X01722D02*
X01826Y04269D01*
X01187Y04165D02*
X01722D01*
X01891Y02641D02*
X02345D01*
X02426Y02722*
X01826Y02706D02*
X01891Y02641D01*
X01645Y02706D02*
X01826D01*
X01249Y02714D02*
X0133Y02633D01*
X01572D02*
X01645Y02706D01*
X0133Y02633D02*
X01572D01*
X01826Y01883D02*
X01946Y01763D01*
X02509D02*
X02598Y01852D01*
X01946Y01763D02*
X02509D01*
X01062Y01852D02*
X01143Y01771D01*
X01714*
X01826Y01883*
X03324Y0186D02*
X03337Y01873D01*
X01024Y03011D02*
X01034Y03022D01*
X03586Y02064D02*
X03657D01*
X03693Y021*
Y02659*
X03677Y02675D02*
X03693Y02659D01*
X03318Y02675D02*
X03677D01*
X03081Y02438D02*
X03318Y02675D01*
X00705Y02438D02*
X03081D01*
X00535Y02268D02*
X00705Y02438D01*
X00535Y02144D02*
Y02268D01*
X02071Y03679D02*
X02265Y03874D01*
X03213*
X03677Y03409*
X04356Y01264D02*
X04586D01*
X0433Y0129D02*
X04356Y01264D01*
X03666Y0129D02*
X0433D01*
X0364Y01264D02*
X03666Y0129D01*
X03586Y01264D02*
X0364D01*
X03532Y01364D02*
X03586D01*
X03488Y01409D02*
X03532Y01364D01*
X02851Y01409D02*
X03488D01*
X0259Y01147D02*
X02851Y01409D01*
X01847Y01147D02*
X0259D01*
X01444Y01163D02*
X01847Y01147D01*
X00785Y04547D02*
X0104D01*
X01042Y04549*
X01082*
X01553Y04547D02*
X01784D01*
X01786Y04549*
X01826*
X02321Y04547D02*
X02584D01*
X0261Y04572*
X03088Y04547D02*
X03316D01*
X03322Y04541*
X03366*
X0163Y03702D02*
X01826D01*
X01553Y03779D02*
X0163Y03702D01*
X02409Y0369D02*
X02598D01*
X02321Y03779D02*
X02409Y0369D01*
X03152Y03375D02*
X03362D01*
X03088Y03439D02*
X03152Y03375D01*
X00874Y0369D02*
X01078D01*
X00785Y03779D02*
X00874Y0369D01*
X01553Y03011D02*
X01801D01*
X01826Y02986*
X03337Y01873D02*
X03362Y01848D01*
X03088Y0186D02*
X03324D01*
X01203Y01442D02*
X01444D01*
X01169Y01476D02*
X01203Y01442D01*
X0237Y01427D02*
X0259D01*
X02321Y01476D02*
X0237Y01427D01*
X01034Y03022D02*
X01062Y02994D01*
X00785Y03011D02*
X01024D01*
X03091Y02164D02*
X03586D01*
X02921Y02335D02*
X03091Y02164D01*
X01494Y02335D02*
X02921D01*
X01303Y02144D02*
X01494Y02335D01*
X04039Y01164D02*
X04586D01*
X04003Y012D02*
X04039Y01164D01*
X03791Y012D02*
X04003D01*
X03397Y01318D02*
X03487Y01228D01*
X04495Y02064D02*
X04586D01*
X04542Y02164D02*
X04586D01*
X04439Y01564D02*
X04586D01*
X0435Y01475D02*
X04439Y01564D01*
X03831Y01475D02*
X0435D01*
X03806Y015D02*
X03831Y01475D01*
X03806Y015D02*
Y024D01*
X04008Y02602*
X041*
X04137Y0264*
Y02696*
X04586Y01864D02*
X0465D01*
X00898Y02131D02*
X01062D01*
X00785Y02244D02*
X00898Y02131D01*
X02433Y02131D02*
X02598D01*
X02321Y02244D02*
X02433Y02131D01*
X04206Y01764D02*
X04586D01*
X04008Y01566D02*
X04206Y01764D01*
X03913Y01566D02*
X04008D01*
X02598Y03125D02*
Y03411D01*
Y03125D02*
X02626Y03096D01*
X03362*
X02598Y01647D02*
Y01852D01*
Y01647D02*
X027Y01546D01*
X03088*
X03111Y01568*
X03362*
X01553Y02244D02*
X01746D01*
X01826Y02163*
X02426Y02722D02*
X02606D01*
X01062Y02714D02*
X01249D01*
X04662Y01459D02*
X04736D01*
X04658Y01464D02*
X04662Y01459D01*
X04586Y01464D02*
X04658D01*
X03978Y03011D02*
X04137D01*
X04136Y02381D02*
X04137D01*
X03979Y02224D02*
X04136Y02381D01*
X03978Y02224D02*
X03979D01*
X03476Y01564D02*
X03586D01*
X03472Y01568D02*
X03476Y01564D01*
X03362Y01568D02*
X03472D01*
X02467Y03001D02*
X02606D01*
X02458Y03011D02*
X02467Y03001D01*
X02321Y03011D02*
X02458D01*
G54D31*
X04759Y00984D03*
X00397Y0494D03*
X04763Y04944D03*
X00397Y00992D03*
G54D32*
X02533Y04781D03*
X02433D03*
X0259Y01427D03*
X02598Y02131D03*
X03362Y01848D03*
Y03375D03*
X03366Y04541D03*
X0261Y04572D03*
X01826Y04549D03*
X01082D03*
X02598Y0369D03*
X01826Y03702D03*
X01078Y0369D03*
X01062Y02994D03*
X01826Y02986D03*
X02606Y03001D03*
X01444Y01442D03*
X01826Y02163D03*
X01062Y02131D03*
X03397Y01318D03*
Y01218D03*
Y01118D03*
X03917Y04117D03*
Y04017D03*
Y03917D03*
Y03817D03*
G54D33*
X02333Y04781D03*
G54D34*
X01303Y03679D03*
X02071Y02911D03*
Y01376D03*
X01303Y02144D03*
X00535Y02911D03*
Y03679D03*
Y04447D03*
Y02144D03*
X01303Y02911D03*
X03586Y01164D03*
X02071Y02144D03*
X02838Y04447D03*
X02071D03*
X01303D03*
X02838Y03339D03*
X02071Y03679D03*
X02838Y0176D03*
X00919Y01376D03*
G54D35*
X0222Y04866D03*
X0192D03*
X04736Y01759D03*
Y01459D03*
X03913Y01866D03*
Y01566D03*
Y01409D03*
Y01109D03*
G54D36*
X04137Y02696D03*
Y02854D03*
Y03011D03*
X03978D03*
Y02854D03*
Y02696D03*
Y02224D03*
Y02381D03*
X04137D03*
Y02224D03*
G54D37*
X03873Y03169D03*
Y02066D03*
X04242D03*
Y03169D03*
G54D38*
X0259Y01147D03*
X02598Y01852D03*
X03362Y01568D03*
Y03096D03*
X03366Y04261D03*
X0261Y04293D03*
X01826Y04269D03*
X01082D03*
X02598Y03411D03*
X01826Y03423D03*
X01078Y03411D03*
X01062Y02714D03*
X01826Y02706D03*
X02606Y02722D03*
X01444Y01163D03*
X01826Y01883D03*
X01062Y01852D03*
X03397Y01018D03*
X03917Y03717D03*
G54D39*
X04602Y0475D03*
X04287Y02473D03*
X03677Y03409D03*
M02*