%FSTAX23Y23*%
%MOIN*%
%SFA1B1*%

%IPPOS*%
%ADD10C,0.009843*%
%ADD11C,0.005905*%
%ADD12C,0.007874*%
%ADD13C,0.017874*%
%ADD14C,0.021811*%
%ADD15C,0.010000*%
%LNpcb1-1*%
%LPD*%
G54D10*
X01125Y03679D02*
D01*
X01125Y03679*
X01125Y0368*
X01125Y0368*
X01125Y0368*
X01125Y03681*
X01125Y03681*
X01125Y03681*
X01125Y03682*
X01124Y03682*
X01124Y03682*
X01124Y03682*
X01124Y03683*
X01123Y03683*
X01123Y03683*
X01123Y03683*
X01123Y03683*
X01122Y03684*
X01122Y03684*
X01122Y03684*
X01121Y03684*
X01121Y03684*
X01121Y03684*
X0112*
X0112Y03684*
X0112Y03684*
X01119Y03684*
X01119Y03684*
X01119Y03684*
X01118Y03683*
X01118Y03683*
X01118Y03683*
X01117Y03683*
X01117Y03683*
X01117Y03682*
X01117Y03682*
X01116Y03682*
X01116Y03682*
X01116Y03681*
X01116Y03681*
X01116Y03681*
X01116Y0368*
X01116Y0368*
X01115Y0368*
X01115Y03679*
X01115Y03679*
X01115Y03679*
X01115Y03678*
X01116Y03678*
X01116Y03678*
X01116Y03677*
X01116Y03677*
X01116Y03677*
X01116Y03676*
X01116Y03676*
X01117Y03676*
X01117Y03676*
X01117Y03675*
X01117Y03675*
X01118Y03675*
X01118Y03675*
X01118Y03675*
X01119Y03674*
X01119Y03674*
X01119Y03674*
X0112Y03674*
X0112Y03674*
X0112Y03674*
X01121*
X01121Y03674*
X01121Y03674*
X01122Y03674*
X01122Y03674*
X01122Y03674*
X01123Y03675*
X01123Y03675*
X01123Y03675*
X01123Y03675*
X01124Y03675*
X01124Y03676*
X01124Y03676*
X01124Y03676*
X01125Y03676*
X01125Y03677*
X01125Y03677*
X01125Y03677*
X01125Y03678*
X01125Y03678*
X01125Y03678*
X01125Y03679*
X01125Y03679*
X01893Y02911D02*
D01*
X01893Y02912*
X01893Y02912*
X01893Y02912*
X01893Y02913*
X01893Y02913*
X01893Y02913*
X01892Y02914*
X01892Y02914*
X01892Y02914*
X01892Y02914*
X01892Y02915*
X01891Y02915*
X01891Y02915*
X01891Y02915*
X01891Y02916*
X0189Y02916*
X0189Y02916*
X0189Y02916*
X01889Y02916*
X01889Y02916*
X01889Y02916*
X01888Y02916*
X01888*
X01888Y02916*
X01887Y02916*
X01887Y02916*
X01887Y02916*
X01886Y02916*
X01886Y02916*
X01886Y02916*
X01885Y02915*
X01885Y02915*
X01885Y02915*
X01885Y02915*
X01884Y02914*
X01884Y02914*
X01884Y02914*
X01884Y02914*
X01884Y02913*
X01883Y02913*
X01883Y02913*
X01883Y02912*
X01883Y02912*
X01883Y02912*
X01883Y02911*
X01883Y02911*
X01883Y02911*
X01883Y0291*
X01883Y0291*
X01883Y0291*
X01884Y02909*
X01884Y02909*
X01884Y02909*
X01884Y02908*
X01884Y02908*
X01885Y02908*
X01885Y02908*
X01885Y02907*
X01885Y02907*
X01886Y02907*
X01886Y02907*
X01886Y02907*
X01887Y02907*
X01887Y02907*
X01887Y02906*
X01888Y02906*
X01888Y02906*
X01888*
X01889Y02906*
X01889Y02906*
X01889Y02907*
X0189Y02907*
X0189Y02907*
X0189Y02907*
X01891Y02907*
X01891Y02907*
X01891Y02907*
X01891Y02908*
X01892Y02908*
X01892Y02908*
X01892Y02908*
X01892Y02909*
X01892Y02909*
X01893Y02909*
X01893Y0291*
X01893Y0291*
X01893Y0291*
X01893Y02911*
X01893Y02911*
X01893Y02911*
Y01376D02*
D01*
X01893Y01376*
X01893Y01377*
X01893Y01377*
X01893Y01377*
X01893Y01378*
X01893Y01378*
X01892Y01378*
X01892Y01378*
X01892Y01379*
X01892Y01379*
X01892Y01379*
X01891Y0138*
X01891Y0138*
X01891Y0138*
X01891Y0138*
X0189Y0138*
X0189Y0138*
X0189Y01381*
X01889Y01381*
X01889Y01381*
X01889Y01381*
X01888Y01381*
X01888*
X01888Y01381*
X01887Y01381*
X01887Y01381*
X01887Y01381*
X01886Y0138*
X01886Y0138*
X01886Y0138*
X01885Y0138*
X01885Y0138*
X01885Y0138*
X01885Y01379*
X01884Y01379*
X01884Y01379*
X01884Y01378*
X01884Y01378*
X01884Y01378*
X01883Y01378*
X01883Y01377*
X01883Y01377*
X01883Y01377*
X01883Y01376*
X01883Y01376*
X01883Y01376*
X01883Y01375*
X01883Y01375*
X01883Y01375*
X01883Y01374*
X01884Y01374*
X01884Y01374*
X01884Y01373*
X01884Y01373*
X01884Y01373*
X01885Y01372*
X01885Y01372*
X01885Y01372*
X01885Y01372*
X01886Y01372*
X01886Y01371*
X01886Y01371*
X01887Y01371*
X01887Y01371*
X01887Y01371*
X01888Y01371*
X01888Y01371*
X01888*
X01889Y01371*
X01889Y01371*
X01889Y01371*
X0189Y01371*
X0189Y01371*
X0189Y01371*
X01891Y01372*
X01891Y01372*
X01891Y01372*
X01891Y01372*
X01892Y01372*
X01892Y01373*
X01892Y01373*
X01892Y01373*
X01892Y01374*
X01893Y01374*
X01893Y01374*
X01893Y01375*
X01893Y01375*
X01893Y01375*
X01893Y01376*
X01893Y01376*
X01125Y02144D02*
D01*
X01125Y02144*
X01125Y02144*
X01125Y02145*
X01125Y02145*
X01125Y02145*
X01125Y02146*
X01125Y02146*
X01125Y02146*
X01124Y02146*
X01124Y02147*
X01124Y02147*
X01124Y02147*
X01123Y02147*
X01123Y02148*
X01123Y02148*
X01123Y02148*
X01122Y02148*
X01122Y02148*
X01122Y02148*
X01121Y02148*
X01121Y02148*
X01121Y02149*
X0112*
X0112Y02148*
X0112Y02148*
X01119Y02148*
X01119Y02148*
X01119Y02148*
X01118Y02148*
X01118Y02148*
X01118Y02148*
X01117Y02147*
X01117Y02147*
X01117Y02147*
X01117Y02147*
X01116Y02146*
X01116Y02146*
X01116Y02146*
X01116Y02146*
X01116Y02145*
X01116Y02145*
X01116Y02145*
X01115Y02144*
X01115Y02144*
X01115Y02144*
X01115Y02143*
X01115Y02143*
X01116Y02143*
X01116Y02142*
X01116Y02142*
X01116Y02142*
X01116Y02141*
X01116Y02141*
X01116Y02141*
X01117Y0214*
X01117Y0214*
X01117Y0214*
X01117Y0214*
X01118Y0214*
X01118Y02139*
X01118Y02139*
X01119Y02139*
X01119Y02139*
X01119Y02139*
X0112Y02139*
X0112Y02139*
X0112Y02139*
X01121*
X01121Y02139*
X01121Y02139*
X01122Y02139*
X01122Y02139*
X01122Y02139*
X01123Y02139*
X01123Y02139*
X01123Y0214*
X01123Y0214*
X01124Y0214*
X01124Y0214*
X01124Y0214*
X01124Y02141*
X01125Y02141*
X01125Y02141*
X01125Y02142*
X01125Y02142*
X01125Y02142*
X01125Y02143*
X01125Y02143*
X01125Y02143*
X01125Y02144*
X00358Y02911D02*
D01*
X00358Y02912*
X00358Y02912*
X00357Y02912*
X00357Y02913*
X00357Y02913*
X00357Y02913*
X00357Y02914*
X00357Y02914*
X00357Y02914*
X00356Y02914*
X00356Y02915*
X00356Y02915*
X00356Y02915*
X00355Y02915*
X00355Y02916*
X00355Y02916*
X00354Y02916*
X00354Y02916*
X00354Y02916*
X00354Y02916*
X00353Y02916*
X00353Y02916*
X00352*
X00352Y02916*
X00352Y02916*
X00351Y02916*
X00351Y02916*
X00351Y02916*
X0035Y02916*
X0035Y02916*
X0035Y02915*
X0035Y02915*
X00349Y02915*
X00349Y02915*
X00349Y02914*
X00349Y02914*
X00348Y02914*
X00348Y02914*
X00348Y02913*
X00348Y02913*
X00348Y02913*
X00348Y02912*
X00348Y02912*
X00348Y02912*
X00348Y02911*
X00348Y02911*
X00348Y02911*
X00348Y0291*
X00348Y0291*
X00348Y0291*
X00348Y02909*
X00348Y02909*
X00348Y02909*
X00349Y02908*
X00349Y02908*
X00349Y02908*
X00349Y02908*
X0035Y02907*
X0035Y02907*
X0035Y02907*
X0035Y02907*
X00351Y02907*
X00351Y02907*
X00351Y02907*
X00352Y02906*
X00352Y02906*
X00352Y02906*
X00353*
X00353Y02906*
X00354Y02906*
X00354Y02907*
X00354Y02907*
X00354Y02907*
X00355Y02907*
X00355Y02907*
X00355Y02907*
X00356Y02907*
X00356Y02908*
X00356Y02908*
X00356Y02908*
X00357Y02908*
X00357Y02909*
X00357Y02909*
X00357Y02909*
X00357Y0291*
X00357Y0291*
X00357Y0291*
X00358Y02911*
X00358Y02911*
X00358Y02911*
Y03679D02*
D01*
X00358Y03679*
X00358Y0368*
X00357Y0368*
X00357Y0368*
X00357Y03681*
X00357Y03681*
X00357Y03681*
X00357Y03682*
X00357Y03682*
X00356Y03682*
X00356Y03682*
X00356Y03683*
X00356Y03683*
X00355Y03683*
X00355Y03683*
X00355Y03683*
X00354Y03684*
X00354Y03684*
X00354Y03684*
X00354Y03684*
X00353Y03684*
X00353Y03684*
X00352*
X00352Y03684*
X00352Y03684*
X00351Y03684*
X00351Y03684*
X00351Y03684*
X0035Y03683*
X0035Y03683*
X0035Y03683*
X0035Y03683*
X00349Y03683*
X00349Y03682*
X00349Y03682*
X00349Y03682*
X00348Y03682*
X00348Y03681*
X00348Y03681*
X00348Y03681*
X00348Y0368*
X00348Y0368*
X00348Y0368*
X00348Y03679*
X00348Y03679*
X00348Y03679*
X00348Y03678*
X00348Y03678*
X00348Y03678*
X00348Y03677*
X00348Y03677*
X00348Y03677*
X00348Y03676*
X00349Y03676*
X00349Y03676*
X00349Y03676*
X00349Y03675*
X0035Y03675*
X0035Y03675*
X0035Y03675*
X0035Y03675*
X00351Y03674*
X00351Y03674*
X00351Y03674*
X00352Y03674*
X00352Y03674*
X00352Y03674*
X00353*
X00353Y03674*
X00354Y03674*
X00354Y03674*
X00354Y03674*
X00354Y03674*
X00355Y03675*
X00355Y03675*
X00355Y03675*
X00356Y03675*
X00356Y03675*
X00356Y03676*
X00356Y03676*
X00357Y03676*
X00357Y03676*
X00357Y03677*
X00357Y03677*
X00357Y03677*
X00357Y03678*
X00357Y03678*
X00358Y03678*
X00358Y03679*
X00358Y03679*
Y04447D02*
D01*
X00358Y04447*
X00358Y04447*
X00357Y04448*
X00357Y04448*
X00357Y04448*
X00357Y04449*
X00357Y04449*
X00357Y04449*
X00357Y0445*
X00356Y0445*
X00356Y0445*
X00356Y0445*
X00356Y04451*
X00355Y04451*
X00355Y04451*
X00355Y04451*
X00354Y04451*
X00354Y04451*
X00354Y04452*
X00354Y04452*
X00353Y04452*
X00353Y04452*
X00352*
X00352Y04452*
X00352Y04452*
X00351Y04452*
X00351Y04451*
X00351Y04451*
X0035Y04451*
X0035Y04451*
X0035Y04451*
X0035Y04451*
X00349Y0445*
X00349Y0445*
X00349Y0445*
X00349Y0445*
X00348Y04449*
X00348Y04449*
X00348Y04449*
X00348Y04448*
X00348Y04448*
X00348Y04448*
X00348Y04447*
X00348Y04447*
X00348Y04447*
X00348Y04446*
X00348Y04446*
X00348Y04446*
X00348Y04445*
X00348Y04445*
X00348Y04445*
X00348Y04444*
X00348Y04444*
X00349Y04444*
X00349Y04444*
X00349Y04443*
X00349Y04443*
X0035Y04443*
X0035Y04443*
X0035Y04442*
X0035Y04442*
X00351Y04442*
X00351Y04442*
X00351Y04442*
X00352Y04442*
X00352Y04442*
X00352Y04442*
X00353*
X00353Y04442*
X00354Y04442*
X00354Y04442*
X00354Y04442*
X00354Y04442*
X00355Y04442*
X00355Y04442*
X00355Y04443*
X00356Y04443*
X00356Y04443*
X00356Y04443*
X00356Y04444*
X00357Y04444*
X00357Y04444*
X00357Y04444*
X00357Y04445*
X00357Y04445*
X00357Y04445*
X00357Y04446*
X00358Y04446*
X00358Y04446*
X00358Y04447*
Y02144D02*
D01*
X00358Y02144*
X00358Y02144*
X00357Y02145*
X00357Y02145*
X00357Y02145*
X00357Y02146*
X00357Y02146*
X00357Y02146*
X00357Y02146*
X00356Y02147*
X00356Y02147*
X00356Y02147*
X00356Y02147*
X00355Y02148*
X00355Y02148*
X00355Y02148*
X00354Y02148*
X00354Y02148*
X00354Y02148*
X00354Y02148*
X00353Y02148*
X00353Y02149*
X00352*
X00352Y02148*
X00352Y02148*
X00351Y02148*
X00351Y02148*
X00351Y02148*
X0035Y02148*
X0035Y02148*
X0035Y02148*
X0035Y02147*
X00349Y02147*
X00349Y02147*
X00349Y02147*
X00349Y02146*
X00348Y02146*
X00348Y02146*
X00348Y02146*
X00348Y02145*
X00348Y02145*
X00348Y02145*
X00348Y02144*
X00348Y02144*
X00348Y02144*
X00348Y02143*
X00348Y02143*
X00348Y02143*
X00348Y02142*
X00348Y02142*
X00348Y02142*
X00348Y02141*
X00348Y02141*
X00349Y02141*
X00349Y0214*
X00349Y0214*
X00349Y0214*
X0035Y0214*
X0035Y0214*
X0035Y02139*
X0035Y02139*
X00351Y02139*
X00351Y02139*
X00351Y02139*
X00352Y02139*
X00352Y02139*
X00352Y02139*
X00353*
X00353Y02139*
X00354Y02139*
X00354Y02139*
X00354Y02139*
X00354Y02139*
X00355Y02139*
X00355Y02139*
X00355Y0214*
X00356Y0214*
X00356Y0214*
X00356Y0214*
X00356Y0214*
X00357Y02141*
X00357Y02141*
X00357Y02141*
X00357Y02142*
X00357Y02142*
X00357Y02142*
X00357Y02143*
X00358Y02143*
X00358Y02143*
X00358Y02144*
X01125Y02911D02*
D01*
X01125Y02912*
X01125Y02912*
X01125Y02912*
X01125Y02913*
X01125Y02913*
X01125Y02913*
X01125Y02914*
X01125Y02914*
X01124Y02914*
X01124Y02914*
X01124Y02915*
X01124Y02915*
X01123Y02915*
X01123Y02915*
X01123Y02916*
X01123Y02916*
X01122Y02916*
X01122Y02916*
X01122Y02916*
X01121Y02916*
X01121Y02916*
X01121Y02916*
X0112*
X0112Y02916*
X0112Y02916*
X01119Y02916*
X01119Y02916*
X01119Y02916*
X01118Y02916*
X01118Y02916*
X01118Y02915*
X01117Y02915*
X01117Y02915*
X01117Y02915*
X01117Y02914*
X01116Y02914*
X01116Y02914*
X01116Y02914*
X01116Y02913*
X01116Y02913*
X01116Y02913*
X01116Y02912*
X01115Y02912*
X01115Y02912*
X01115Y02911*
X01115Y02911*
X01115Y02911*
X01116Y0291*
X01116Y0291*
X01116Y0291*
X01116Y02909*
X01116Y02909*
X01116Y02909*
X01116Y02908*
X01117Y02908*
X01117Y02908*
X01117Y02908*
X01117Y02907*
X01118Y02907*
X01118Y02907*
X01118Y02907*
X01119Y02907*
X01119Y02907*
X01119Y02907*
X0112Y02906*
X0112Y02906*
X0112Y02906*
X01121*
X01121Y02906*
X01121Y02906*
X01122Y02907*
X01122Y02907*
X01122Y02907*
X01123Y02907*
X01123Y02907*
X01123Y02907*
X01123Y02907*
X01124Y02908*
X01124Y02908*
X01124Y02908*
X01124Y02908*
X01125Y02909*
X01125Y02909*
X01125Y02909*
X01125Y0291*
X01125Y0291*
X01125Y0291*
X01125Y02911*
X01125Y02911*
X01125Y02911*
X01893Y02144D02*
D01*
X01893Y02144*
X01893Y02144*
X01893Y02145*
X01893Y02145*
X01893Y02145*
X01893Y02146*
X01892Y02146*
X01892Y02146*
X01892Y02146*
X01892Y02147*
X01892Y02147*
X01891Y02147*
X01891Y02147*
X01891Y02148*
X01891Y02148*
X0189Y02148*
X0189Y02148*
X0189Y02148*
X01889Y02148*
X01889Y02148*
X01889Y02148*
X01888Y02149*
X01888*
X01888Y02148*
X01887Y02148*
X01887Y02148*
X01887Y02148*
X01886Y02148*
X01886Y02148*
X01886Y02148*
X01885Y02148*
X01885Y02147*
X01885Y02147*
X01885Y02147*
X01884Y02147*
X01884Y02146*
X01884Y02146*
X01884Y02146*
X01884Y02146*
X01883Y02145*
X01883Y02145*
X01883Y02145*
X01883Y02144*
X01883Y02144*
X01883Y02144*
X01883Y02143*
X01883Y02143*
X01883Y02143*
X01883Y02142*
X01883Y02142*
X01884Y02142*
X01884Y02141*
X01884Y02141*
X01884Y02141*
X01884Y0214*
X01885Y0214*
X01885Y0214*
X01885Y0214*
X01885Y0214*
X01886Y02139*
X01886Y02139*
X01886Y02139*
X01887Y02139*
X01887Y02139*
X01887Y02139*
X01888Y02139*
X01888Y02139*
X01888*
X01889Y02139*
X01889Y02139*
X01889Y02139*
X0189Y02139*
X0189Y02139*
X0189Y02139*
X01891Y02139*
X01891Y0214*
X01891Y0214*
X01891Y0214*
X01892Y0214*
X01892Y0214*
X01892Y02141*
X01892Y02141*
X01892Y02141*
X01893Y02142*
X01893Y02142*
X01893Y02142*
X01893Y02143*
X01893Y02143*
X01893Y02143*
X01893Y02144*
X02661Y04447D02*
D01*
X02661Y04447*
X02661Y04447*
X02661Y04448*
X02661Y04448*
X0266Y04448*
X0266Y04449*
X0266Y04449*
X0266Y04449*
X0266Y0445*
X0266Y0445*
X02659Y0445*
X02659Y0445*
X02659Y04451*
X02659Y04451*
X02658Y04451*
X02658Y04451*
X02658Y04451*
X02657Y04451*
X02657Y04452*
X02657Y04452*
X02656Y04452*
X02656Y04452*
X02656*
X02655Y04452*
X02655Y04452*
X02655Y04452*
X02654Y04451*
X02654Y04451*
X02654Y04451*
X02653Y04451*
X02653Y04451*
X02653Y04451*
X02653Y0445*
X02652Y0445*
X02652Y0445*
X02652Y0445*
X02652Y04449*
X02651Y04449*
X02651Y04449*
X02651Y04448*
X02651Y04448*
X02651Y04448*
X02651Y04447*
X02651Y04447*
X02651Y04447*
X02651Y04446*
X02651Y04446*
X02651Y04446*
X02651Y04445*
X02651Y04445*
X02651Y04445*
X02651Y04444*
X02652Y04444*
X02652Y04444*
X02652Y04444*
X02652Y04443*
X02653Y04443*
X02653Y04443*
X02653Y04443*
X02653Y04442*
X02654Y04442*
X02654Y04442*
X02654Y04442*
X02655Y04442*
X02655Y04442*
X02655Y04442*
X02656Y04442*
X02656*
X02656Y04442*
X02657Y04442*
X02657Y04442*
X02657Y04442*
X02658Y04442*
X02658Y04442*
X02658Y04442*
X02659Y04443*
X02659Y04443*
X02659Y04443*
X02659Y04443*
X0266Y04444*
X0266Y04444*
X0266Y04444*
X0266Y04444*
X0266Y04445*
X0266Y04445*
X02661Y04445*
X02661Y04446*
X02661Y04446*
X02661Y04446*
X02661Y04447*
X01893D02*
D01*
X01893Y04447*
X01893Y04447*
X01893Y04448*
X01893Y04448*
X01893Y04448*
X01893Y04449*
X01892Y04449*
X01892Y04449*
X01892Y0445*
X01892Y0445*
X01892Y0445*
X01891Y0445*
X01891Y04451*
X01891Y04451*
X01891Y04451*
X0189Y04451*
X0189Y04451*
X0189Y04451*
X01889Y04452*
X01889Y04452*
X01889Y04452*
X01888Y04452*
X01888*
X01888Y04452*
X01887Y04452*
X01887Y04452*
X01887Y04451*
X01886Y04451*
X01886Y04451*
X01886Y04451*
X01885Y04451*
X01885Y04451*
X01885Y0445*
X01885Y0445*
X01884Y0445*
X01884Y0445*
X01884Y04449*
X01884Y04449*
X01884Y04449*
X01883Y04448*
X01883Y04448*
X01883Y04448*
X01883Y04447*
X01883Y04447*
X01883Y04447*
X01883Y04446*
X01883Y04446*
X01883Y04446*
X01883Y04445*
X01883Y04445*
X01884Y04445*
X01884Y04444*
X01884Y04444*
X01884Y04444*
X01884Y04444*
X01885Y04443*
X01885Y04443*
X01885Y04443*
X01885Y04443*
X01886Y04442*
X01886Y04442*
X01886Y04442*
X01887Y04442*
X01887Y04442*
X01887Y04442*
X01888Y04442*
X01888Y04442*
X01888*
X01889Y04442*
X01889Y04442*
X01889Y04442*
X0189Y04442*
X0189Y04442*
X0189Y04442*
X01891Y04442*
X01891Y04443*
X01891Y04443*
X01891Y04443*
X01892Y04443*
X01892Y04444*
X01892Y04444*
X01892Y04444*
X01892Y04444*
X01893Y04445*
X01893Y04445*
X01893Y04445*
X01893Y04446*
X01893Y04446*
X01893Y04446*
X01893Y04447*
X01125D02*
D01*
X01125Y04447*
X01125Y04447*
X01125Y04448*
X01125Y04448*
X01125Y04448*
X01125Y04449*
X01125Y04449*
X01125Y04449*
X01124Y0445*
X01124Y0445*
X01124Y0445*
X01124Y0445*
X01123Y04451*
X01123Y04451*
X01123Y04451*
X01123Y04451*
X01122Y04451*
X01122Y04451*
X01122Y04452*
X01121Y04452*
X01121Y04452*
X01121Y04452*
X0112*
X0112Y04452*
X0112Y04452*
X01119Y04452*
X01119Y04451*
X01119Y04451*
X01118Y04451*
X01118Y04451*
X01118Y04451*
X01117Y04451*
X01117Y0445*
X01117Y0445*
X01117Y0445*
X01116Y0445*
X01116Y04449*
X01116Y04449*
X01116Y04449*
X01116Y04448*
X01116Y04448*
X01116Y04448*
X01115Y04447*
X01115Y04447*
X01115Y04447*
X01115Y04446*
X01115Y04446*
X01116Y04446*
X01116Y04445*
X01116Y04445*
X01116Y04445*
X01116Y04444*
X01116Y04444*
X01116Y04444*
X01117Y04444*
X01117Y04443*
X01117Y04443*
X01117Y04443*
X01118Y04443*
X01118Y04442*
X01118Y04442*
X01119Y04442*
X01119Y04442*
X01119Y04442*
X0112Y04442*
X0112Y04442*
X0112Y04442*
X01121*
X01121Y04442*
X01121Y04442*
X01122Y04442*
X01122Y04442*
X01122Y04442*
X01123Y04442*
X01123Y04442*
X01123Y04443*
X01123Y04443*
X01124Y04443*
X01124Y04443*
X01124Y04444*
X01124Y04444*
X01125Y04444*
X01125Y04444*
X01125Y04445*
X01125Y04445*
X01125Y04445*
X01125Y04446*
X01125Y04446*
X01125Y04446*
X01125Y04447*
X02661Y03339D02*
D01*
X02661Y0334*
X02661Y0334*
X02661Y0334*
X02661Y03341*
X0266Y03341*
X0266Y03341*
X0266Y03342*
X0266Y03342*
X0266Y03342*
X0266Y03343*
X02659Y03343*
X02659Y03343*
X02659Y03343*
X02659Y03344*
X02658Y03344*
X02658Y03344*
X02658Y03344*
X02657Y03344*
X02657Y03344*
X02657Y03344*
X02656Y03344*
X02656Y03344*
X02656*
X02655Y03344*
X02655Y03344*
X02655Y03344*
X02654Y03344*
X02654Y03344*
X02654Y03344*
X02653Y03344*
X02653Y03344*
X02653Y03343*
X02653Y03343*
X02652Y03343*
X02652Y03343*
X02652Y03342*
X02652Y03342*
X02651Y03342*
X02651Y03341*
X02651Y03341*
X02651Y03341*
X02651Y0334*
X02651Y0334*
X02651Y0334*
X02651Y03339*
X02651Y03339*
X02651Y03339*
X02651Y03338*
X02651Y03338*
X02651Y03338*
X02651Y03337*
X02651Y03337*
X02652Y03337*
X02652Y03337*
X02652Y03336*
X02652Y03336*
X02653Y03336*
X02653Y03336*
X02653Y03335*
X02653Y03335*
X02654Y03335*
X02654Y03335*
X02654Y03335*
X02655Y03335*
X02655Y03335*
X02655Y03335*
X02656Y03335*
X02656*
X02656Y03335*
X02657Y03335*
X02657Y03335*
X02657Y03335*
X02658Y03335*
X02658Y03335*
X02658Y03335*
X02659Y03335*
X02659Y03336*
X02659Y03336*
X02659Y03336*
X0266Y03336*
X0266Y03337*
X0266Y03337*
X0266Y03337*
X0266Y03337*
X0266Y03338*
X02661Y03338*
X02661Y03338*
X02661Y03339*
X02661Y03339*
X02661Y03339*
X01893Y03679D02*
D01*
X01893Y03679*
X01893Y0368*
X01893Y0368*
X01893Y0368*
X01893Y03681*
X01893Y03681*
X01892Y03681*
X01892Y03682*
X01892Y03682*
X01892Y03682*
X01892Y03682*
X01891Y03683*
X01891Y03683*
X01891Y03683*
X01891Y03683*
X0189Y03683*
X0189Y03684*
X0189Y03684*
X01889Y03684*
X01889Y03684*
X01889Y03684*
X01888Y03684*
X01888*
X01888Y03684*
X01887Y03684*
X01887Y03684*
X01887Y03684*
X01886Y03684*
X01886Y03683*
X01886Y03683*
X01885Y03683*
X01885Y03683*
X01885Y03683*
X01885Y03682*
X01884Y03682*
X01884Y03682*
X01884Y03682*
X01884Y03681*
X01884Y03681*
X01883Y03681*
X01883Y0368*
X01883Y0368*
X01883Y0368*
X01883Y03679*
X01883Y03679*
X01883Y03679*
X01883Y03678*
X01883Y03678*
X01883Y03678*
X01883Y03677*
X01884Y03677*
X01884Y03677*
X01884Y03676*
X01884Y03676*
X01884Y03676*
X01885Y03676*
X01885Y03675*
X01885Y03675*
X01885Y03675*
X01886Y03675*
X01886Y03675*
X01886Y03674*
X01887Y03674*
X01887Y03674*
X01887Y03674*
X01888Y03674*
X01888Y03674*
X01888*
X01889Y03674*
X01889Y03674*
X01889Y03674*
X0189Y03674*
X0189Y03674*
X0189Y03675*
X01891Y03675*
X01891Y03675*
X01891Y03675*
X01891Y03675*
X01892Y03676*
X01892Y03676*
X01892Y03676*
X01892Y03676*
X01892Y03677*
X01893Y03677*
X01893Y03677*
X01893Y03678*
X01893Y03678*
X01893Y03678*
X01893Y03679*
X01893Y03679*
X02661Y0176D02*
D01*
X02661Y0176*
X02661Y0176*
X02661Y01761*
X02661Y01761*
X0266Y01761*
X0266Y01762*
X0266Y01762*
X0266Y01762*
X0266Y01763*
X0266Y01763*
X02659Y01763*
X02659Y01763*
X02659Y01764*
X02659Y01764*
X02658Y01764*
X02658Y01764*
X02658Y01764*
X02657Y01764*
X02657Y01765*
X02657Y01765*
X02656Y01765*
X02656Y01765*
X02656*
X02655Y01765*
X02655Y01765*
X02655Y01765*
X02654Y01764*
X02654Y01764*
X02654Y01764*
X02653Y01764*
X02653Y01764*
X02653Y01764*
X02653Y01763*
X02652Y01763*
X02652Y01763*
X02652Y01763*
X02652Y01762*
X02651Y01762*
X02651Y01762*
X02651Y01761*
X02651Y01761*
X02651Y01761*
X02651Y0176*
X02651Y0176*
X02651Y0176*
X02651Y01759*
X02651Y01759*
X02651Y01759*
X02651Y01758*
X02651Y01758*
X02651Y01758*
X02651Y01757*
X02652Y01757*
X02652Y01757*
X02652Y01757*
X02652Y01756*
X02653Y01756*
X02653Y01756*
X02653Y01756*
X02653Y01755*
X02654Y01755*
X02654Y01755*
X02654Y01755*
X02655Y01755*
X02655Y01755*
X02655Y01755*
X02656Y01755*
X02656*
X02656Y01755*
X02657Y01755*
X02657Y01755*
X02657Y01755*
X02658Y01755*
X02658Y01755*
X02658Y01755*
X02659Y01756*
X02659Y01756*
X02659Y01756*
X02659Y01756*
X0266Y01757*
X0266Y01757*
X0266Y01757*
X0266Y01757*
X0266Y01758*
X0266Y01758*
X02661Y01758*
X02661Y01759*
X02661Y01759*
X02661Y01759*
X02661Y0176*
X00741Y01376D02*
D01*
X00741Y01376*
X00741Y01377*
X00741Y01377*
X00741Y01377*
X00741Y01378*
X00741Y01378*
X00741Y01378*
X00741Y01378*
X0074Y01379*
X0074Y01379*
X0074Y01379*
X0074Y0138*
X0074Y0138*
X00739Y0138*
X00739Y0138*
X00739Y0138*
X00738Y0138*
X00738Y01381*
X00738Y01381*
X00737Y01381*
X00737Y01381*
X00737Y01381*
X00736*
X00736Y01381*
X00736Y01381*
X00735Y01381*
X00735Y01381*
X00735Y0138*
X00734Y0138*
X00734Y0138*
X00734Y0138*
X00733Y0138*
X00733Y0138*
X00733Y01379*
X00733Y01379*
X00733Y01379*
X00732Y01378*
X00732Y01378*
X00732Y01378*
X00732Y01378*
X00732Y01377*
X00732Y01377*
X00732Y01377*
X00732Y01376*
X00732Y01376*
X00732Y01376*
X00732Y01375*
X00732Y01375*
X00732Y01375*
X00732Y01374*
X00732Y01374*
X00732Y01374*
X00732Y01373*
X00733Y01373*
X00733Y01373*
X00733Y01372*
X00733Y01372*
X00733Y01372*
X00734Y01372*
X00734Y01372*
X00734Y01371*
X00735Y01371*
X00735Y01371*
X00735Y01371*
X00736Y01371*
X00736Y01371*
X00736Y01371*
X00737*
X00737Y01371*
X00737Y01371*
X00738Y01371*
X00738Y01371*
X00738Y01371*
X00739Y01371*
X00739Y01372*
X00739Y01372*
X0074Y01372*
X0074Y01372*
X0074Y01372*
X0074Y01373*
X0074Y01373*
X00741Y01373*
X00741Y01374*
X00741Y01374*
X00741Y01374*
X00741Y01375*
X00741Y01375*
X00741Y01375*
X00741Y01376*
X00741Y01376*
G54D11*
X01803Y04817D02*
D01*
X01802Y04826*
X01801Y04835*
X018Y04843*
X01798Y04852*
X01795Y0486*
X01792Y04868*
X01788Y04876*
X01784Y04884*
X01779Y04891*
X01773Y04898*
X01767Y04905*
X01761Y04911*
X01754Y04916*
X01747Y04922*
X0174Y04926*
X01732Y0493*
X01724Y04934*
X01716Y04937*
X01707Y04939*
X01699Y04941*
X0169Y04943*
X01681Y04943*
X01672*
X01663Y04943*
X01655Y04941*
X01646Y04939*
X01638Y04937*
X01629Y04934*
X01621Y0493*
X01614Y04926*
X01606Y04922*
X01599Y04916*
X01592Y04911*
X01586Y04905*
X0158Y04898*
X01575Y04891*
X0157Y04884*
X01565Y04876*
X01562Y04868*
X01558Y0486*
X01556Y04852*
X01553Y04843*
X01552Y04835*
X01551Y04826*
X01551Y04817*
X01551Y04808*
X01552Y048*
X01553Y04791*
X01556Y04782*
X01558Y04774*
X01562Y04766*
X01565Y04758*
X0157Y0475*
X01575Y04743*
X0158Y04736*
X01586Y0473*
X01592Y04724*
X01599Y04718*
X01606Y04713*
X01614Y04708*
X01621Y04704*
X01629Y047*
X01638Y04697*
X01646Y04695*
X01655Y04693*
X01663Y04692*
X01672Y04691*
X01681*
X0169Y04692*
X01699Y04693*
X01707Y04695*
X01716Y04697*
X01724Y047*
X01732Y04704*
X0174Y04708*
X01747Y04713*
X01754Y04718*
X01761Y04724*
X01767Y0473*
X01773Y04736*
X01779Y04743*
X01784Y0475*
X01788Y04758*
X01792Y04766*
X01795Y04774*
X01798Y04782*
X018Y04791*
X01801Y048*
X01802Y04808*
X01803Y04817*
X0431Y04555D02*
D01*
X04309Y04563*
X04309Y04571*
X04307Y0458*
X04305Y04588*
X04302Y04596*
X04299Y04603*
X04296Y04611*
X04291Y04618*
X04287Y04625*
X04282Y04632*
X04276Y04638*
X0427Y04644*
X04264Y04649*
X04257Y04654*
X0425Y04659*
X04242Y04663*
X04235Y04666*
X04227Y04669*
X04219Y04671*
X04211Y04673*
X04202Y04674*
X04194Y04675*
X04185*
X04177Y04674*
X04169Y04673*
X04161Y04671*
X04153Y04669*
X04145Y04666*
X04137Y04663*
X0413Y04659*
X04123Y04654*
X04116Y04649*
X04109Y04644*
X04103Y04638*
X04098Y04632*
X04093Y04625*
X04088Y04618*
X04084Y04611*
X0408Y04603*
X04077Y04596*
X04074Y04588*
X04072Y0458*
X04071Y04571*
X0407Y04563*
X0407Y04555*
X0407Y04546*
X04071Y04538*
X04072Y0453*
X04074Y04522*
X04077Y04514*
X0408Y04506*
X04084Y04498*
X04088Y04491*
X04093Y04484*
X04098Y04477*
X04103Y04471*
X04109Y04465*
X04116Y0446*
X04123Y04455*
X0413Y04451*
X04137Y04447*
X04145Y04443*
X04153Y0444*
X04161Y04438*
X04169Y04436*
X04177Y04435*
X04185Y04435*
X04194*
X04202Y04435*
X04211Y04436*
X04219Y04438*
X04227Y0444*
X04235Y04443*
X04242Y04447*
X0425Y04451*
X04257Y04455*
X04264Y0446*
X0427Y04465*
X04276Y04471*
X04282Y04477*
X04287Y04484*
X04291Y04491*
X04296Y04498*
X04299Y04506*
X04302Y04514*
X04305Y04522*
X04307Y0453*
X04309Y04538*
X04309Y04546*
X0431Y04555*
G54D12*
X02283Y04731D02*
Y04831D01*
X02583*
Y04731D02*
Y04831D01*
X02283Y04731D02*
X02583D01*
X01146Y03272D02*
Y03886D01*
Y03272D02*
X0176D01*
Y03886*
X01146D02*
X0176D01*
X01914Y02504D02*
Y03118D01*
Y02504D02*
X02528D01*
Y03118*
X01914D02*
X02528D01*
X01914Y00969D02*
Y01583D01*
Y00969D02*
X02528D01*
Y01583*
X01914D02*
X02528D01*
X01146Y01737D02*
Y02351D01*
Y01737D02*
X0176D01*
Y02351*
X01146D02*
X0176D01*
X00378Y02504D02*
Y03118D01*
Y02504D02*
X00992D01*
Y03118*
X00378D02*
X00992D01*
X00378Y03272D02*
Y03886D01*
Y03272D02*
X00992D01*
Y03886*
X00378D02*
X00992D01*
X00378Y0404D02*
Y04654D01*
Y0404D02*
X00992D01*
Y04654*
X00378D02*
X00992D01*
X00378Y01737D02*
Y02351D01*
Y01737D02*
X00992D01*
Y02351*
X00378D02*
X00992D01*
X01961Y04866D02*
X0197D01*
X0217D02*
X02179D01*
X0197D02*
Y04896D01*
X0217*
Y04836D02*
Y04896D01*
X0197Y04836D02*
X0217D01*
X0197D02*
Y04866D01*
X01614Y0471D02*
X0174D01*
X01146Y02504D02*
Y03118D01*
Y02504D02*
X0176D01*
Y03118*
X01146D02*
X0176D01*
X03873Y03169D02*
X04242D01*
Y02066D02*
Y03169D01*
X03873Y02066D02*
X04242D01*
X03873D02*
Y03169D01*
X04092Y04492D02*
Y04618D01*
X04706Y01709D02*
X04736D01*
X04706Y01509D02*
Y01709D01*
Y01509D02*
X04766D01*
Y01709*
X04736D02*
X04766D01*
X04736Y015D02*
Y01509D01*
Y01709D02*
Y01718D01*
X01914Y02351D02*
X02528D01*
Y01737D02*
Y02351D01*
X01914Y01737D02*
X02528D01*
X01914D02*
Y02351D01*
X03867Y03667D02*
X03967D01*
X03867D02*
Y04167D01*
X03967Y03667D02*
Y04167D01*
X03867D02*
X03967D01*
X03883Y01816D02*
X03913D01*
X03883Y01616D02*
Y01816D01*
Y01616D02*
X03943D01*
Y01816*
X03913D02*
X03943D01*
X03913Y01607D02*
Y01616D01*
Y01816D02*
Y01825D01*
X02681Y04654D02*
X03296D01*
Y0404D02*
Y04654D01*
X02681Y0404D02*
X03296D01*
X02681D02*
Y04654D01*
X01914D02*
X02528D01*
Y0404D02*
Y04654D01*
X01914Y0404D02*
X02528D01*
X01914D02*
Y04654D01*
X01146D02*
X0176D01*
Y0404D02*
Y04654D01*
X01146Y0404D02*
X0176D01*
X01146D02*
Y04654D01*
X03883Y01359D02*
X03913D01*
X03883Y01159D02*
Y01359D01*
Y01159D02*
X03943D01*
Y01359*
X03913D02*
X03943D01*
X03913Y0115D02*
Y01159D01*
Y01359D02*
Y01368D01*
X02681Y03547D02*
X03296D01*
Y02932D02*
Y03547D01*
X02681Y02932D02*
X03296D01*
X02681D02*
Y03547D01*
X01914Y03886D02*
X02528D01*
Y03272D02*
Y03886D01*
X01914Y03272D02*
X02528D01*
X01914D02*
Y03886D01*
X02681Y01967D02*
X03296D01*
Y01353D02*
Y01967D01*
X02681Y01353D02*
X03296D01*
X02681D02*
Y01967D01*
X00762Y01583D02*
X01376D01*
Y00969D02*
Y01583D01*
X00762Y00969D02*
X01376D01*
X00762D02*
Y01583D01*
G54D13*
X04466Y02895D02*
X04534D01*
Y02929*
X04523Y02941*
X04477*
X04466Y02929*
Y02895*
X04534Y02997D02*
Y02974D01*
X04523Y02963*
X045*
X04489Y02974*
Y02997*
X045Y03008*
X04511*
Y02963*
X04534Y03031D02*
Y03065D01*
X04523Y03076*
X04511Y03065*
Y03042*
X045Y03031*
X04489Y03042*
Y03076*
X04534Y03099D02*
Y03122D01*
Y0311*
X04489*
Y03099*
X04556Y03178D02*
Y03189D01*
X04545Y03201*
X04489*
Y03167*
X045Y03155*
X04523*
X04534Y03167*
Y03201*
Y03223D02*
X04489D01*
Y03257*
X045Y03269*
X04534*
Y03325D02*
Y03302D01*
X04523Y03291*
X045*
X04489Y03302*
Y03325*
X045Y03336*
X04511*
Y03291*
X04466Y03404D02*
X04534D01*
Y0337*
X04523Y03359*
X045*
X04489Y0337*
Y03404*
X04466Y03495D02*
X04534D01*
Y03529*
X04523Y0354*
X04511*
X045*
X04489Y03529*
Y03495*
Y03563D02*
X04523D01*
X04534Y03574*
Y03608*
X04545*
X04556Y03596*
Y03585*
X04534Y03608D02*
X04489D01*
X04534Y03698D02*
X04466D01*
X04489Y03721*
X04466Y03743*
X04534*
Y03766D02*
X04523D01*
Y03777*
X04534*
Y03766*
Y03823D02*
X04489D01*
X04466Y03845*
X04489Y03868*
X04534*
X045*
Y03823*
X04534Y0389D02*
X04523D01*
Y03902*
X04534*
Y0389*
Y03947D02*
X04466D01*
X04534Y03992*
X04466*
X04489Y04015D02*
X04523D01*
X04534Y04026*
Y0406*
X04489*
X04534Y04083D02*
Y04117D01*
X04523Y04128*
X04511Y04117*
Y04094*
X045Y04083*
X04489Y04094*
Y04128*
Y04151D02*
X04534D01*
X04511*
X045Y04162*
X04489Y04173*
Y04185*
Y0423D02*
Y04252D01*
X045Y04264*
X04534*
Y0423*
X04523Y04218*
X04511Y0423*
Y04264*
X04477Y04298D02*
X04489D01*
Y04286*
Y04309*
Y04298*
X04523*
X04534Y04309*
X04466Y04343D02*
X04534D01*
X045*
X04489Y04354*
Y04377*
X045Y04388*
X04534*
Y04479D02*
X04489D01*
X04466Y04501*
X04489Y04524*
X04534*
X045*
Y04479*
X04534Y04546D02*
X04489D01*
Y04558*
X045Y04569*
X04534*
X045*
X04489Y0458*
X045Y04592*
X04534*
X04489Y04626D02*
Y04648D01*
X045Y04659*
X04534*
Y04626*
X04523Y04614*
X04511Y04626*
Y04659*
X04534Y04682D02*
X04489D01*
Y04716*
X045Y04727*
X04534*
X04489Y04761D02*
Y04784D01*
X045Y04795*
X04534*
Y04761*
X04523Y0475*
X04511Y04761*
Y04795*
G54D14*
X04272Y03498D02*
X04391D01*
X04351*
X04272Y03577*
X04331Y03518*
X04391Y03577*
Y03676D02*
Y03637D01*
X04371Y03617*
X04331*
X04311Y03637*
Y03676*
X04331Y03696*
X04351*
Y03617*
X04311Y03736D02*
X04371D01*
X04391Y03756*
Y03815*
X04411*
X0443Y03795*
Y03775*
X04391Y03815D02*
X04311D01*
X04391Y03855D02*
X04272D01*
X04311Y03894*
X04272Y03934*
X04391*
X04311Y03994D02*
Y04033D01*
X04331Y04053*
X04391*
Y03994*
X04371Y03974*
X04351Y03994*
Y04053*
X04292Y04113D02*
X04311D01*
Y04093*
Y04132*
Y04113*
X04371*
X04391Y04132*
Y04251D02*
Y04212D01*
X04371Y04192*
X04331*
X04311Y04212*
Y04251*
X04331Y04271*
X04351*
Y04192*
G54D15*
X02289Y04866D02*
Y04925D01*
X02318*
X02328Y04915*
Y04895*
X02318Y04885*
X02289*
X02348Y04915D02*
X02358Y04925D01*
X02378*
X02388Y04915*
Y04905*
X02378Y04895*
X02368*
X02378*
X02388Y04885*
Y04875*
X02378Y04866*
X02358*
X02348Y04875*
X0116Y03971D02*
X0115Y03981D01*
X0113*
X01121Y03971*
Y03961*
X0113Y03951*
X0115*
X0116Y03941*
Y03931*
X0115Y03922*
X0113*
X01121Y03931*
X0118Y03981D02*
Y03922D01*
X012Y03941*
X0122Y03922*
Y03981*
X0128D02*
X0126Y03971D01*
X0124Y03951*
Y03931*
X0125Y03922*
X0127*
X0128Y03931*
Y03941*
X0127Y03951*
X0124*
X01928Y03203D02*
X01918Y03213D01*
X01898*
X01889Y03203*
Y03193*
X01898Y03183*
X01918*
X01928Y03173*
Y03163*
X01918Y03154*
X01898*
X01889Y03163*
X01948Y03213D02*
Y03154D01*
X01968Y03173*
X01988Y03154*
Y03213*
X02008Y03154D02*
X02028D01*
X02018*
Y03213*
X02008Y03203*
X02058Y03154D02*
X02078D01*
X02068*
Y03213*
X02058Y03203*
X04712Y01821D02*
Y0188D01*
X04741*
X04751Y0187*
Y0185*
X04741Y0184*
X04712*
X04731D02*
X04751Y01821D01*
X04801D02*
Y0188D01*
X04771Y0185*
X04811*
X04072Y04772D02*
Y04713D01*
X04101*
X04111Y04722*
Y04762*
X04101Y04772*
X04072*
X04131Y04713D02*
X04151D01*
X04141*
Y04772*
X04131Y04762*
X04181Y04722D02*
X04191Y04713D01*
X04211*
X04221Y04722*
Y04762*
X04211Y04772*
X04191*
X04181Y04762*
Y04752*
X04191Y04742*
X04221*
X00392Y03203D02*
X00382Y03213D01*
X00362*
X00353Y03203*
Y03193*
X00362Y03183*
X00382*
X00392Y03173*
Y03163*
X00382Y03154*
X00362*
X00353Y03163*
X00412Y03213D02*
Y03154D01*
X00432Y03173*
X00452Y03154*
Y03213*
X00472Y03163D02*
X00482Y03154D01*
X00502*
X00512Y03163*
Y03203*
X00502Y03213*
X00482*
X00472Y03203*
Y03193*
X00482Y03183*
X00512*
X01928Y01667D02*
X01918Y01677D01*
X01898*
X01889Y01667*
Y01657*
X01898Y01647*
X01918*
X01928Y01637*
Y01627*
X01918Y01618*
X01898*
X01889Y01627*
X01948Y01677D02*
Y01618D01*
X01968Y01637*
X01988Y01618*
Y01677*
X02008Y01618D02*
X02028D01*
X02018*
Y01677*
X02008Y01667*
X02058Y01677D02*
X02098D01*
Y01667*
X02058Y01627*
Y01618*
X00776Y01667D02*
X00766Y01677D01*
X00746*
X00737Y01667*
Y01657*
X00746Y01647*
X00766*
X00776Y01637*
Y01627*
X00766Y01618*
X00746*
X00737Y01627*
X00796Y01677D02*
Y01618D01*
X00816Y01637*
X00836Y01618*
Y01677*
X00856Y01618D02*
X00876D01*
X00866*
Y01677*
X00856Y01667*
X00946Y01677D02*
X00926Y01667D01*
X00906Y01647*
Y01627*
X00916Y01618*
X00936*
X00946Y01627*
Y01637*
X00936Y01647*
X00906*
X00392Y02435D02*
X00382Y02445D01*
X00362*
X00353Y02435*
Y02425*
X00362Y02415*
X00382*
X00392Y02405*
Y02395*
X00382Y02386*
X00362*
X00353Y02395*
X00412Y02445D02*
Y02386D01*
X00432Y02405*
X00452Y02386*
Y02445*
X00472Y02386D02*
X00492D01*
X00482*
Y02445*
X00472Y02435*
X00562Y02386D02*
X00522D01*
X00562Y02425*
Y02435*
X00552Y02445*
X00532*
X00522Y02435*
X02695Y02051D02*
X02685Y02061D01*
X02665*
X02656Y02051*
Y02041*
X02665Y02031*
X02685*
X02695Y02021*
Y02011*
X02685Y02002*
X02665*
X02656Y02011*
X02715Y02061D02*
Y02002D01*
X02735Y02021*
X02755Y02002*
Y02061*
X02775Y02002D02*
X02795D01*
X02785*
Y02061*
X02775Y02051*
X02865Y02061D02*
X02825D01*
Y02031*
X02845Y02041*
X02855*
X02865Y02031*
Y02011*
X02855Y02002*
X02835*
X02825Y02011*
X01928Y02435D02*
X01918Y02445D01*
X01898*
X01889Y02435*
Y02425*
X01898Y02415*
X01918*
X01928Y02405*
Y02395*
X01918Y02386*
X01898*
X01889Y02395*
X01948Y02445D02*
Y02386D01*
X01968Y02405*
X01988Y02386*
Y02445*
X02008Y02386D02*
X02028D01*
X02018*
Y02445*
X02008Y02435*
X02088Y02386D02*
Y02445D01*
X02058Y02415*
X02098*
X0116Y02435D02*
X0115Y02445D01*
X0113*
X01121Y02435*
Y02425*
X0113Y02415*
X0115*
X0116Y02405*
Y02395*
X0115Y02386*
X0113*
X01121Y02395*
X0118Y02445D02*
Y02386D01*
X012Y02405*
X0122Y02386*
Y02445*
X0124Y02386D02*
X0126D01*
X0125*
Y02445*
X0124Y02435*
X0129D02*
X013Y02445D01*
X0132*
X0133Y02435*
Y02425*
X0132Y02415*
X0131*
X0132*
X0133Y02405*
Y02395*
X0132Y02386*
X013*
X0129Y02395*
X0116Y03203D02*
X0115Y03213D01*
X0113*
X01121Y03203*
Y03193*
X0113Y03183*
X0115*
X0116Y03173*
Y03163*
X0115Y03154*
X0113*
X01121Y03163*
X0118Y03213D02*
Y03154D01*
X012Y03173*
X0122Y03154*
Y03213*
X0124Y03154D02*
X0126D01*
X0125*
Y03213*
X0124Y03203*
X0129D02*
X013Y03213D01*
X0132*
X0133Y03203*
Y03163*
X0132Y03154*
X013*
X0129Y03163*
Y03203*
X00392Y03971D02*
X00382Y03981D01*
X00362*
X00353Y03971*
Y03961*
X00362Y03951*
X00382*
X00392Y03941*
Y03931*
X00382Y03922*
X00362*
X00353Y03931*
X00412Y03981D02*
Y03922D01*
X00432Y03941*
X00452Y03922*
Y03981*
X00512D02*
X00472D01*
Y03951*
X00492Y03961*
X00502*
X00512Y03951*
Y03931*
X00502Y03922*
X00482*
X00472Y03931*
X02695Y03631D02*
X02685Y03641D01*
X02665*
X02656Y03631*
Y03621*
X02665Y03611*
X02685*
X02695Y03601*
Y03591*
X02685Y03582*
X02665*
X02656Y03591*
X02715Y03641D02*
Y03582D01*
X02735Y03601*
X02755Y03582*
Y03641*
X02775Y03631D02*
X02785Y03641D01*
X02805*
X02815Y03631*
Y03621*
X02805Y03611*
X02815Y03601*
Y03591*
X02805Y03582*
X02785*
X02775Y03591*
Y03601*
X02785Y03611*
X02775Y03621*
Y03631*
X02785Y03611D02*
X02805D01*
X01928Y03971D02*
X01918Y03981D01*
X01898*
X01889Y03971*
Y03961*
X01898Y03951*
X01918*
X01928Y03941*
Y03931*
X01918Y03922*
X01898*
X01889Y03931*
X01948Y03981D02*
Y03922D01*
X01968Y03941*
X01988Y03922*
Y03981*
X02008D02*
X02048D01*
Y03971*
X02008Y03931*
Y03922*
X02695Y04738D02*
X02685Y04748D01*
X02665*
X02656Y04738*
Y04728*
X02665Y04718*
X02685*
X02695Y04708*
Y04698*
X02685Y04689*
X02665*
X02656Y04698*
X02715Y04748D02*
Y04689D01*
X02735Y04708*
X02755Y04689*
Y04748*
X02805Y04689D02*
Y04748D01*
X02775Y04718*
X02815*
X01928Y04738D02*
X01918Y04748D01*
X01898*
X01889Y04738*
Y04728*
X01898Y04718*
X01918*
X01928Y04708*
Y04698*
X01918Y04689*
X01898*
X01889Y04698*
X01948Y04748D02*
Y04689D01*
X01968Y04708*
X01988Y04689*
Y04748*
X02008Y04738D02*
X02018Y04748D01*
X02038*
X02048Y04738*
Y04728*
X02038Y04718*
X02028*
X02038*
X02048Y04708*
Y04698*
X02038Y04689*
X02018*
X02008Y04698*
X0116Y04738D02*
X0115Y04748D01*
X0113*
X01121Y04738*
Y04728*
X0113Y04718*
X0115*
X0116Y04708*
Y04698*
X0115Y04689*
X0113*
X01121Y04698*
X0118Y04748D02*
Y04689D01*
X012Y04708*
X0122Y04689*
Y04748*
X0128Y04689D02*
X0124D01*
X0128Y04728*
Y04738*
X0127Y04748*
X0125*
X0124Y04738*
X00392D02*
X00382Y04748D01*
X00362*
X00353Y04738*
Y04728*
X00362Y04718*
X00382*
X00392Y04708*
Y04698*
X00382Y04689*
X00362*
X00353Y04698*
X00412Y04748D02*
Y04689D01*
X00432Y04708*
X00452Y04689*
Y04748*
X00472Y04689D02*
X00492D01*
X00482*
Y04748*
X00472Y04738*
X01981Y04757D02*
Y04817D01*
X02011*
X02021Y04807*
Y04787*
X02011Y04777*
X01981*
X02001D02*
X02021Y04757D01*
X02041Y04807D02*
X02051Y04817D01*
X02071*
X02081Y04807*
Y04797*
X02071Y04787*
X02061*
X02071*
X02081Y04777*
Y04767*
X02071Y04757*
X02051*
X02041Y04767*
X03889Y01471D02*
Y0153D01*
X03918*
X03928Y0152*
Y015*
X03918Y0149*
X03889*
X03908D02*
X03928Y01471D01*
X03988D02*
X03948D01*
X03988Y0151*
Y0152*
X03978Y0153*
X03958*
X03948Y0152*
X03889Y01928D02*
Y01987D01*
X03918*
X03928Y01977*
Y01957*
X03918Y01947*
X03889*
X03908D02*
X03928Y01928D01*
X03948D02*
X03968D01*
X03958*
Y01987*
X03948Y01977*
X03873Y04201D02*
Y0426D01*
X03902*
X03912Y0425*
Y0423*
X03902Y0422*
X03873*
X03972Y04201D02*
X03932D01*
X03972Y0424*
Y0425*
X03962Y0426*
X03942*
X03932Y0425*
X01346Y04965D02*
Y04905D01*
X01376*
X01386Y04915*
Y04955*
X01376Y04965*
X01346*
X01406Y04905D02*
X01426D01*
X01416*
Y04965*
X01406Y04955*
X01456D02*
X01466Y04965D01*
X01486*
X01496Y04955*
Y04945*
X01486Y04935*
X01496Y04925*
Y04915*
X01486Y04905*
X01466*
X01456Y04915*
Y04925*
X01466Y04935*
X01456Y04945*
Y04955*
X01466Y04935D02*
X01486D01*
M02*