%FSTAX23Y23*%
%MOIN*%
%SFA1B1*%

%IPPOS*%
%ADD11C,0.005905*%
%ADD45C,0.003937*%
%LNpcb1-1*%
%LPD*%
G54D11*
X01793Y04817D02*
D01*
X01793Y04825*
X01792Y04833*
X0179Y04841*
X01788Y04849*
X01786Y04857*
X01783Y04864*
X01779Y04872*
X01775Y04879*
X01771Y04885*
X01766Y04892*
X0176Y04898*
X01754Y04904*
X01748Y04909*
X01742Y04914*
X01735Y04918*
X01728Y04922*
X0172Y04925*
X01713Y04928*
X01705Y0493*
X01697Y04932*
X01689Y04933*
X01681Y04933*
X01673*
X01665Y04933*
X01656Y04932*
X01649Y0493*
X01641Y04928*
X01633Y04925*
X01626Y04922*
X01619Y04918*
X01612Y04914*
X01605Y04909*
X01599Y04904*
X01593Y04898*
X01588Y04892*
X01583Y04885*
X01578Y04879*
X01574Y04872*
X01571Y04864*
X01568Y04857*
X01565Y04849*
X01563Y04841*
X01562Y04833*
X01561Y04825*
X01561Y04817*
X01561Y04809*
X01562Y04801*
X01563Y04793*
X01565Y04785*
X01568Y04777*
X01571Y0477*
X01574Y04763*
X01578Y04756*
X01583Y04749*
X01588Y04743*
X01593Y04737*
X01599Y04731*
X01605Y04726*
X01612Y04721*
X01619Y04717*
X01626Y04713*
X01633Y0471*
X01641Y04707*
X01649Y04705*
X01656Y04703*
X01665Y04702*
X01673Y04701*
X01681*
X01689Y04702*
X01697Y04703*
X01705Y04705*
X01713Y04707*
X0172Y0471*
X01728Y04713*
X01735Y04717*
X01742Y04721*
X01748Y04726*
X01754Y04731*
X0176Y04737*
X01766Y04743*
X01771Y04749*
X01775Y04756*
X01779Y04763*
X01783Y0477*
X01786Y04777*
X01788Y04785*
X0179Y04793*
X01792Y04801*
X01793Y04809*
X01793Y04817*
X0431Y04555D02*
D01*
X04309Y04563*
X04309Y04571*
X04307Y0458*
X04305Y04588*
X04302Y04596*
X04299Y04603*
X04296Y04611*
X04291Y04618*
X04287Y04625*
X04282Y04632*
X04276Y04638*
X0427Y04644*
X04264Y04649*
X04257Y04654*
X0425Y04659*
X04242Y04663*
X04235Y04666*
X04227Y04669*
X04219Y04671*
X04211Y04673*
X04202Y04674*
X04194Y04675*
X04185*
X04177Y04674*
X04169Y04673*
X04161Y04671*
X04153Y04669*
X04145Y04666*
X04137Y04663*
X0413Y04659*
X04123Y04654*
X04116Y04649*
X04109Y04644*
X04103Y04638*
X04098Y04632*
X04093Y04625*
X04088Y04618*
X04084Y04611*
X0408Y04603*
X04077Y04596*
X04074Y04588*
X04072Y0458*
X04071Y04571*
X0407Y04563*
X0407Y04555*
X0407Y04546*
X04071Y04538*
X04072Y0453*
X04074Y04522*
X04077Y04514*
X0408Y04506*
X04084Y04498*
X04088Y04491*
X04093Y04484*
X04098Y04477*
X04103Y04471*
X04109Y04465*
X04116Y0446*
X04123Y04455*
X0413Y04451*
X04137Y04447*
X04145Y04443*
X04153Y0444*
X04161Y04438*
X04169Y04436*
X04177Y04435*
X04185Y04435*
X04194*
X04202Y04435*
X04211Y04436*
X04219Y04438*
X04227Y0444*
X04235Y04443*
X04242Y04447*
X0425Y04451*
X04257Y04455*
X04264Y0446*
X0427Y04465*
X04276Y04471*
X04282Y04477*
X04287Y04484*
X04291Y04491*
X04296Y04498*
X04299Y04506*
X04302Y04514*
X04305Y04522*
X04307Y0453*
X04309Y04538*
X04309Y04546*
X0431Y04555*
G54D45*
X01146Y03886D02*
X0176D01*
Y03272D02*
Y03886D01*
X01146Y03272D02*
X0176D01*
X01146D02*
Y03886D01*
X01914Y03118D02*
X02528D01*
Y02504D02*
Y03118D01*
X01914Y02504D02*
X02528D01*
X01914D02*
Y03118D01*
Y01583D02*
X02528D01*
Y00969D02*
Y01583D01*
X01914Y00969D02*
X02528D01*
X01914D02*
Y01583D01*
X01146Y02351D02*
X0176D01*
Y01737D02*
Y02351D01*
X01146Y01737D02*
X0176D01*
X01146D02*
Y02351D01*
X00378Y03118D02*
X00992D01*
Y02504D02*
Y03118D01*
X00378Y02504D02*
X00992D01*
X00378D02*
Y03118D01*
Y03886D02*
X00992D01*
Y03272D02*
Y03886D01*
X00378Y03272D02*
X00992D01*
X00378D02*
Y03886D01*
Y04654D02*
X00992D01*
Y0404D02*
Y04654D01*
X00378Y0404D02*
X00992D01*
X00378D02*
Y04654D01*
Y02351D02*
X00992D01*
Y01737D02*
Y02351D01*
X00378Y01737D02*
X00992D01*
X00378D02*
Y02351D01*
X01146Y03118D02*
X0176D01*
Y02504D02*
Y03118D01*
X01146Y02504D02*
X0176D01*
X01146D02*
Y03118D01*
X01914Y01737D02*
Y02351D01*
Y01737D02*
X02528D01*
Y02351*
X01914D02*
X02528D01*
X02681Y0404D02*
Y04654D01*
Y0404D02*
X03296D01*
Y04654*
X02681D02*
X03296D01*
X01914Y0404D02*
Y04654D01*
Y0404D02*
X02528D01*
Y04654*
X01914D02*
X02528D01*
X01146Y0404D02*
Y04654D01*
Y0404D02*
X0176D01*
Y04654*
X01146D02*
X0176D01*
X02681Y02932D02*
Y03547D01*
Y02932D02*
X03296D01*
Y03547*
X02681D02*
X03296D01*
X01914Y03272D02*
Y03886D01*
Y03272D02*
X02528D01*
Y03886*
X01914D02*
X02528D01*
X02681Y01353D02*
Y01967D01*
Y01353D02*
X03296D01*
Y01967*
X02681D02*
X03296D01*
X00762Y00969D02*
Y01583D01*
Y00969D02*
X01376D01*
Y01583*
X00762D02*
X01376D01*
M02*