%FSTAX23Y23*%
%MOIN*%
%SFA1B1*%

%IPPOS*%
%ADD12C,0.007874*%
%ADD15C,0.010000*%
%ADD40C,0.118110*%
%ADD41C,0.005000*%
%ADD42R,0.074803X0.031496*%
%ADD43R,0.074803X0.031496*%
%ADD44R,0.074803X0.031500*%
%LNpcb1-1*%
%LPD*%
G54D12*
X03505Y01164D02*
D01*
X03505Y01165*
X03505Y01165*
X03505Y01165*
X03505Y01165*
X03505Y01166*
X03505Y01166*
X03505Y01166*
X03505Y01166*
X03505Y01167*
X03504Y01167*
X03504Y01167*
X03504Y01167*
X03504Y01167*
X03504Y01168*
X03503Y01168*
X03503Y01168*
X03503Y01168*
X03503Y01168*
X03502Y01168*
X03502Y01168*
X03502Y01168*
X03502Y01168*
X03501*
X03501Y01168*
X03501Y01168*
X03501Y01168*
X035Y01168*
X035Y01168*
X035Y01168*
X035Y01168*
X03499Y01168*
X03499Y01167*
X03499Y01167*
X03499Y01167*
X03498Y01167*
X03498Y01167*
X03498Y01166*
X03498Y01166*
X03498Y01166*
X03498Y01166*
X03498Y01165*
X03498Y01165*
X03498Y01165*
X03498Y01165*
X03498Y01164*
X03498Y01164*
X03498Y01164*
X03498Y01163*
X03498Y01163*
X03498Y01163*
X03498Y01163*
X03498Y01162*
X03498Y01162*
X03498Y01162*
X03498Y01162*
X03499Y01162*
X03499Y01161*
X03499Y01161*
X03499Y01161*
X035Y01161*
X035Y01161*
X035Y01161*
X035Y01161*
X03501Y0116*
X03501Y0116*
X03501Y0116*
X03501Y0116*
X03502*
X03502Y0116*
X03502Y0116*
X03502Y0116*
X03503Y01161*
X03503Y01161*
X03503Y01161*
X03503Y01161*
X03504Y01161*
X03504Y01161*
X03504Y01161*
X03504Y01162*
X03504Y01162*
X03505Y01162*
X03505Y01162*
X03505Y01162*
X03505Y01163*
X03505Y01163*
X03505Y01163*
X03505Y01163*
X03505Y01164*
X03505Y01164*
X03505Y01164*
X02553Y01364D02*
X02627D01*
X02553Y0121D02*
Y01364D01*
X02627Y0121D02*
Y01364D01*
X02561Y02068D02*
X02635D01*
X02561Y01915D02*
Y02068D01*
X02635Y01915D02*
Y02068D01*
X03324Y01785D02*
X03399D01*
X03324Y01631D02*
Y01785D01*
X03399Y01631D02*
Y01785D01*
X03324Y03312D02*
X03399D01*
X03324Y03159D02*
Y03312D01*
X03399Y03159D02*
Y03312D01*
X03328Y04478D02*
X03403D01*
X03328Y04324D02*
Y04478D01*
X03403Y04324D02*
Y04478D01*
X02572Y04509D02*
X02647D01*
X02572Y04356D02*
Y04509D01*
X02647Y04356D02*
Y04509D01*
X01789Y04486D02*
X01864D01*
X01789Y04332D02*
Y04486D01*
X01864Y04332D02*
Y04486D01*
X01045D02*
X0112D01*
X01045Y04332D02*
Y04486D01*
X0112Y04332D02*
Y04486D01*
X02561Y03627D02*
X02635D01*
X02561Y03474D02*
Y03627D01*
X02635Y03474D02*
Y03627D01*
X01789Y03639D02*
X01864D01*
X01789Y03486D02*
Y03639D01*
X01864Y03486D02*
Y03639D01*
X01041Y03627D02*
X01116D01*
X01041Y03474D02*
Y03627D01*
X01116Y03474D02*
Y03627D01*
X01025Y02931D02*
X011D01*
X01025Y02777D02*
Y02931D01*
X011Y02777D02*
Y02931D01*
X01789Y02923D02*
X01864D01*
X01789Y02769D02*
Y02923D01*
X01864Y02769D02*
Y02923D01*
X02568Y02938D02*
X02643D01*
X02568Y02785D02*
Y02938D01*
X02643Y02785D02*
Y02938D01*
X01407Y01379D02*
X01482D01*
X01407Y01226D02*
Y01379D01*
X01482Y01226D02*
Y01379D01*
X01789Y021D02*
X01864D01*
X01789Y01946D02*
Y021D01*
X01864Y01946D02*
Y021D01*
X01025Y02068D02*
X011D01*
X01025Y01915D02*
Y02068D01*
X011Y01915D02*
Y02068D01*
X03347Y00968D02*
X03447D01*
Y01368*
X03347Y00968D02*
Y01368D01*
X03447*
G54D15*
X01132Y03117D02*
Y03058D01*
X01102*
X01092Y03067*
Y03107*
X01102Y03117*
X01132*
X01072Y03067D02*
X01062Y03058D01*
X01042*
X01032Y03067*
Y03107*
X01042Y03117*
X01062*
X01072Y03107*
Y03097*
X01062Y03087*
X01032*
X04648Y02878D02*
Y02828D01*
X04638Y02819*
X04618*
X04608Y02828*
Y02878*
X04588Y02819D02*
X04568D01*
X04578*
Y02878*
X04588Y02868*
X03434Y01402D02*
Y01462D01*
X03404*
X03394Y01452*
Y01432*
X03404Y01422*
X03434*
X03374Y01402D02*
X03354D01*
X03364*
Y01462*
X03374Y01452*
X02622Y0155D02*
Y01491D01*
X02592*
X02582Y015*
Y0154*
X02592Y0155*
X02622*
X02562Y01491D02*
X02542D01*
X02552*
Y0155*
X02562Y0154*
X02512Y0155D02*
X02472D01*
Y0154*
X02512Y015*
Y01491*
X01476Y01565D02*
Y01506D01*
X01446*
X01436Y01515*
Y01555*
X01446Y01565*
X01476*
X01416Y01506D02*
X01396D01*
X01406*
Y01565*
X01416Y01555*
X01326Y01565D02*
X01346Y01555D01*
X01366Y01535*
Y01515*
X01356Y01506*
X01336*
X01326Y01515*
Y01525*
X01336Y01535*
X01366*
X01094Y02254D02*
Y02195D01*
X01064*
X01054Y02204*
Y02244*
X01064Y02254*
X01094*
X01034Y02195D02*
X01014D01*
X01024*
Y02254*
X01034Y02244*
X00944Y02195D02*
X00984D01*
X00944Y02234*
Y02244*
X00954Y02254*
X00974*
X00984Y02244*
X03394Y01971D02*
Y01912D01*
X03364*
X03354Y01921*
Y01961*
X03364Y01971*
X03394*
X03334Y01912D02*
X03314D01*
X03324*
Y01971*
X03334Y01961*
X03244Y01971D02*
X03284D01*
Y01941*
X03264Y01951*
X03254*
X03244Y01941*
Y01921*
X03254Y01912*
X03274*
X03284Y01921*
X0263Y02254D02*
Y02195D01*
X026*
X0259Y02204*
Y02244*
X026Y02254*
X0263*
X0257Y02195D02*
X0255D01*
X0256*
Y02254*
X0257Y02244*
X0249Y02195D02*
Y02254D01*
X0252Y02224*
X0248*
X01858Y02286D02*
Y02227D01*
X01828*
X01818Y02236*
Y02276*
X01828Y02286*
X01858*
X01798Y02227D02*
X01778D01*
X01788*
Y02286*
X01798Y02276*
X01748D02*
X01738Y02286D01*
X01718*
X01708Y02276*
Y02266*
X01718Y02256*
X01728*
X01718*
X01708Y02246*
Y02236*
X01718Y02227*
X01738*
X01748Y02236*
X02704Y03125D02*
Y03065D01*
X02674*
X02664Y03075*
Y03115*
X02674Y03125*
X02704*
X02644Y03065D02*
X02624D01*
X02634*
Y03125*
X02644Y03115*
X02594Y03065D02*
X02574D01*
X02584*
Y03125*
X02594Y03115*
X01858Y03109D02*
Y0305D01*
X01828*
X01818Y03059*
Y03099*
X01828Y03109*
X01858*
X01798Y0305D02*
X01778D01*
X01788*
Y03109*
X01798Y03099*
X01748D02*
X01738Y03109D01*
X01718*
X01708Y03099*
Y03059*
X01718Y0305*
X01738*
X01748Y03059*
Y03099*
X0111Y03813D02*
Y03754D01*
X0108*
X0107Y03763*
Y03803*
X0108Y03813*
X0111*
X0101D02*
X0105D01*
Y03783*
X0103Y03793*
X0102*
X0101Y03783*
Y03763*
X0102Y03754*
X0104*
X0105Y03763*
X03394Y03499D02*
Y0344D01*
X03364*
X03354Y03449*
Y03489*
X03364Y03499*
X03394*
X03334Y03489D02*
X03324Y03499D01*
X03304*
X03294Y03489*
Y03479*
X03304Y03469*
X03294Y03459*
Y03449*
X03304Y0344*
X03324*
X03334Y03449*
Y03459*
X03324Y03469*
X03334Y03479*
Y03489*
X03324Y03469D02*
X03304D01*
X0263Y03813D02*
Y03754D01*
X026*
X0259Y03763*
Y03803*
X026Y03813*
X0263*
X0257D02*
X0253D01*
Y03803*
X0257Y03763*
Y03754*
X01858Y03825D02*
Y03766D01*
X01828*
X01818Y03775*
Y03815*
X01828Y03825*
X01858*
X01758D02*
X01778Y03815D01*
X01798Y03795*
Y03775*
X01788Y03766*
X01768*
X01758Y03775*
Y03785*
X01768Y03795*
X01798*
X03397Y04664D02*
Y04605D01*
X03367*
X03357Y04614*
Y04654*
X03367Y04664*
X03397*
X03307Y04605D02*
Y04664D01*
X03337Y04634*
X03297*
X02642Y04695D02*
Y04636D01*
X02612*
X02602Y04645*
Y04685*
X02612Y04695*
X02642*
X02582Y04685D02*
X02572Y04695D01*
X02552*
X02542Y04685*
Y04675*
X02552Y04665*
X02562*
X02552*
X02542Y04655*
Y04645*
X02552Y04636*
X02572*
X02582Y04645*
X01858Y04672D02*
Y04613D01*
X01828*
X01818Y04622*
Y04662*
X01828Y04672*
X01858*
X01758Y04613D02*
X01798D01*
X01758Y04652*
Y04662*
X01768Y04672*
X01788*
X01798Y04662*
X01131Y04672D02*
Y04613D01*
X01101*
X01091Y04622*
Y04662*
X01101Y04672*
X01131*
X01071Y04613D02*
X01051D01*
X01061*
Y04672*
X01071Y04662*
G54D40*
X03603Y00851D03*
X04568D03*
X03603Y02699D03*
X04568D03*
G54D41*
X0396Y00772D02*
X04224D01*
X0396D02*
Y00925D01*
X04224*
Y00772D02*
Y00925D01*
X0396Y00772D02*
X04224D01*
X03735Y02025D02*
X04432D01*
Y02523*
X03735Y02025D02*
Y02523D01*
X04432*
Y02778*
X03735Y02523D02*
Y02778D01*
X04432*
X04646*
X03735D02*
X04432D01*
X03524D02*
X03735D01*
X04646Y00772D02*
Y02778D01*
X03524Y00772D02*
Y02778D01*
X04224Y00772D02*
X04646D01*
X03524D02*
X0396D01*
X03524D02*
Y02778D01*
Y00772D02*
X04646D01*
X03524Y02778D02*
X04646D01*
Y00772D02*
Y02778D01*
G54D42*
X0259Y01222D03*
X03362Y03171D03*
X01826Y03498D03*
X02606Y02797D03*
X01062Y01927D03*
G54D43*
X02598Y01927D03*
X03362Y01643D03*
X03366Y04336D03*
X0261Y04368D03*
X01826Y04344D03*
X01082D03*
X02598Y03486D03*
X01078Y03486D03*
X01062Y02789D03*
X01826Y02781D03*
X01826Y01958D03*
G54D44*
X01444Y01238D03*
M02*